SplineFontDB: 3.2
FontName: Modern-manJu-Round
FullName: Modern manJu Round
FamilyName: Modern-manJu
Weight: Book
Copyright: Copyright 2023 LLLLL.
Version: 0.3
ItalicAngle: 0
UnderlinePosition: -144
UnderlineWidth: 32
Ascent: 1352
Descent: 696
InvalidEm: 0
sfntRevision: 0x00010000
LayerCount: 2
Layer: 0 1 "Back" 1
Layer: 1 1 "Fore" 0
XUID: [1021 520 2022644484 8954717]
StyleMap: 0x0040
FSType: 0
OS2Version: 3
OS2_WeightWidthSlopeOnly: 0
OS2_UseTypoMetrics: 0
CreationTime: 1390402476
ModificationTime: 1687180798
PfmFamily: 17
TTFWeight: 400
TTFWidth: 5
LineGap: 0
VLineGap: 0
Panose: 2 2 6 3 5 4 5 2 3 4
OS2TypoAscent: 732
OS2TypoAOffset: 0
OS2TypoDescent: -229
OS2TypoDOffset: 0
OS2TypoLinegap: 0
OS2WinAscent: 732
OS2WinAOffset: 0
OS2WinDescent: 229
OS2WinDOffset: 0
HheadAscent: 732
HheadAOffset: 0
HheadDescent: -229
HheadDOffset: 0
OS2SubXSize: 489
OS2SubYSize: 453
OS2SubXOff: 0
OS2SubYOff: 98
OS2SupXSize: 489
OS2SupYSize: 453
OS2SupXOff: 0
OS2SupYOff: 317
OS2StrikeYSize: 35
OS2StrikeYPos: 180
OS2CapHeight: 464
OS2XHeight: 311
OS2FamilyClass: 261
OS2Vendor: 'SBT '
OS2CodePages: 001e0101.00000000
OS2UnicodeRanges: 800000a7.1001e408.00020016.00000000
Lookup: 1 0 0 "Single Subs wide y" { "Single Subs wide y-1"  } []
Lookup: 1 0 0 "Single Substitution k g h t d force replacement" { "Single Substitution t d-isol"  "Single Substitution k g h"  } []
Lookup: 1 0 0 "Single Substitution o u fina" { "Single Substitution lookup 4 subtable"  } []
Lookup: 1 0 0 "Single Substitution lookup 6" { "Single Substitution lookup 6 subtable"  } []
Lookup: 1 0 0 "Single Substitution lookup 7" { "Single Substitution lookup 7 subtable"  } []
Lookup: 1 0 0 "Single Substitution lookup 8" { "Single Substitution lookup 8 subtable"  } []
Lookup: 1 0 0 "Single Substitution lookup 9" { "Single Substitution lookup 9 subtable"  } []
Lookup: 1 0 0 "Single Substitution k to F" { "Single Substitution lookup 10 subtable"  } []

StartChar: a.isol
Encoding: 0 6176 0
Width: 1231
VWidth: 2796
GlyphClass: 2
Flags: W
LayerCount: 2
Fore
SplineSet
0 950 m 0,0,1
 224 950 224 950 336 838 c 256,2,3
 448 726 448 726 448 502 c 1,4,5
 615 502 615 502 650 502 c 256,6,7
 685 502 685 502 784 502 c 0,8,9
 951 502 951 502 1035 587 c 256,10,11
 1120 672 1120 672 1120 838 c 0,12,13
 1120 1007 1120 1007 1035 1090 c 0,14,15
 950 1175 950 1175 784 1174 c 0,16,17
 727 1174 727 1174 726 1232 c 0,18,19
 726 1287 726 1287 784 1286 c 0,20,21
 1008 1286 1008 1286 1120 1174 c 256,22,23
 1232 1062 1232 1062 1232 838 c 256,24,25
 1232 614 1232 614 1120 502 c 256,26,27
 1008 390 1008 390 784 390 c 0,28,29
 686 390 686 390 650 390 c 256,30,31
 615 390 615 390 448 390 c 1,32,33
 448 335 448 335 448 336 c 257,34,35
 448 336 448 336 448 279 c 0,36,37
 448 224 448 224 390 224 c 0,38,39
 335 224 335 224 336 279 c 0,40,41
 336 336 336 336 336 336 c 257,42,43
 336 336 336 336 336 502 c 0,44,45
 336 671 336 671 251 754 c 0,46,47
 166 839 166 839 0 838 c 0,48,49
 -55 838 -55 838 -55 896 c 0,50,51
 -55 950 -55 950 0 950 c 0,0,1
EndSplineSet
Validated: 33
Substitution2: "'fina' Terminal Forms in Mongolian lookup 2 subtable" a.fina
Substitution2: "'medi' Medial Forms in Mongolian lookup 1 subtable" a.medi
Substitution2: "Required Feature in Latin lookup 0 subtable" a.init
EndChar

StartChar: a.init
Encoding: 1 -1 1
Width: 895
VWidth: 2796
GlyphClass: 2
Flags: W
LayerCount: 2
Fore
SplineSet
0 950 m 0,0,1
 224 950 224 950 336 838 c 256,2,3
 448 726 448 726 448 502 c 1,4,5
 503 502 503 502 672 502 c 0,6,7
 839 502 839 502 896 502 c 1,8,9
 896 447 896 447 896 421 c 0,10,11
 896 391 896 391 896 390 c 1,12,13
 866 390 866 390 825 390 c 256,14,15
 784 390 784 390 726 390 c 1,16,17
 726 390 726 390 726 347 c 0,18,19
 726 301 726 301 726 279 c 0,20,21
 726 224 726 224 672 224 c 0,22,23
 615 224 615 224 614 279 c 0,24,25
 614 336 614 336 614 336 c 257,26,27
 614 336 614 336 614 390 c 1,28,29
 559 390 559 390 532 390 c 0,30,31
 502 390 502 390 448 390 c 1,32,33
 448 335 448 335 448 336 c 257,34,35
 448 336 448 336 448 279 c 0,36,37
 448 224 448 224 390 224 c 0,38,39
 335 224 335 224 336 279 c 0,40,41
 336 336 336 336 336 336 c 257,42,43
 336 336 336 336 336 502 c 0,44,45
 336 671 336 671 251 754 c 0,46,47
 166 839 166 839 0 838 c 0,48,49
 -55 838 -55 838 -55 896 c 0,50,51
 -55 950 -55 950 0 950 c 0,0,1
EndSplineSet
Validated: 33
EndChar

StartChar: a.fina
Encoding: 2 -1 2
Width: 838
VWidth: 2796
GlyphClass: 2
Flags: W
LayerCount: 2
Fore
SplineSet
0 502 m 1,0,1
 167 502 167 502 229 502 c 0,2,3
 295 502 295 502 390 502 c 0,4,5
 559 502 559 502 644 587 c 0,6,7
 726 672 726 672 726 838 c 0,8,9
 726 1007 726 1007 644 1090 c 0,10,11
 559 1175 559 1175 390 1174 c 0,12,13
 335 1174 335 1174 336 1232 c 0,14,15
 336 1287 336 1287 390 1286 c 0,16,17
 614 1286 614 1286 726 1174 c 256,18,19
 838 1062 838 1062 838 838 c 256,20,21
 838 614 838 614 726 502 c 256,22,23
 614 390 614 390 390 390 c 0,24,25
 294 390 294 390 229 390 c 0,26,27
 166 390 166 390 0 390 c 1,28,29
 0 447 0 447 0 475 c 256,30,31
 0 502 0 502 0 502 c 1,0,1
EndSplineSet
Validated: 33
Substitution2: "Single Substitution lookup 6 subtable" a1.fina
EndChar

StartChar: a1.fina
Encoding: 3 -1 3
Width: 895
VWidth: 2796
GlyphClass: 2
Flags: W
LayerCount: 2
Fore
SplineSet
448 502 m 0,0,1
 672 502 672 502 784 390 c 256,2,3
 896 278 896 278 896 55 c 0,4,5
 896 -166 896 -166 784 -279 c 256,6,7
 672 -391 672 -391 448 -390 c 0,8,9
 391 -390 391 -390 390 -336 c 0,10,11
 390 -279 390 -279 448 -279 c 0,12,13
 615 -279 615 -279 699 -197 c 0,14,15
 784 -112 784 -112 784 55 c 0,16,17
 784 224 784 224 699 309 c 0,18,19
 614 391 614 391 448 390 c 0,20,21
 350 390 350 390 314 390 c 256,22,23
 279 390 279 390 112 390 c 1,24,25
 112 335 112 335 112 336 c 257,26,27
 112 336 112 336 112 279 c 0,28,29
 112 224 112 224 55 224 c 0,30,31
 0 224 0 224 0 279 c 0,32,33
 0 336 0 336 0 336 c 257,34,35
 0 336 0 336 0 502 c 1,36,37
 55 502 55 502 167 502 c 256,38,39
 279 502 279 502 448 502 c 0,0,1
EndSplineSet
Validated: 33
EndChar

StartChar: a.medi
Encoding: 4 -1 4
Width: 281
VWidth: 2796
GlyphClass: 2
Flags: W
LayerCount: 2
Fore
SplineSet
0 502 m 1,0,1
 55 502 55 502 139 502 c 256,2,3
 224 502 224 502 279 502 c 1,4,5
 279 486 279 486 279 467 c 256,6,7
 279 448 279 448 279 390 c 1,8,9
 224 390 224 390 186 390 c 256,10,11
 148 390 148 390 112 390 c 1,12,13
 112 390 112 390 112 363 c 256,14,15
 112 336 112 336 112 279 c 0,16,17
 112 224 112 224 55 224 c 0,18,19
 0 224 0 224 0 279 c 0,20,21
 0 336 0 336 0 336 c 257,22,23
 0 336 0 336 0 390 c 0,24,25
 0 447 0 447 0 448 c 257,26,27
 0 447 0 447 0 502 c 1,0,1
EndSplineSet
Validated: 1
Substitution2: "Single Substitution lookup 26 subtable" glyph277
EndChar

StartChar: e.isol
Encoding: 5 6237 5
Width: 1231
VWidth: 2796
GlyphClass: 2
Flags: W
LayerCount: 2
Fore
SplineSet
0 950 m 0,0,1
 224 950 224 950 336 838 c 256,2,3
 448 726 448 726 448 502 c 1,4,5
 615 502 615 502 650 502 c 256,6,7
 685 502 685 502 784 502 c 0,8,9
 1008 502 1008 502 1120 390 c 256,10,11
 1232 278 1232 278 1232 55 c 0,12,13
 1232 -166 1232 -166 1120 -279 c 256,14,15
 1008 -391 1008 -391 784 -390 c 0,16,17
 727 -390 727 -390 726 -336 c 0,18,19
 726 -279 726 -279 784 -279 c 0,20,21
 951 -279 951 -279 1035 -197 c 0,22,23
 1120 -112 1120 -112 1120 55 c 0,24,25
 1120 224 1120 224 1035 309 c 0,26,27
 950 391 950 391 784 390 c 0,28,29
 686 390 686 390 650 390 c 256,30,31
 615 390 615 390 448 390 c 1,32,33
 448 335 448 335 448 336 c 257,34,35
 448 336 448 336 448 279 c 0,36,37
 448 224 448 224 390 224 c 0,38,39
 335 224 335 224 336 279 c 0,40,41
 336 336 336 336 336 336 c 257,42,43
 336 336 336 336 336 502 c 0,44,45
 336 671 336 671 251 754 c 0,46,47
 166 839 166 839 0 838 c 0,48,49
 -55 838 -55 838 -55 896 c 0,50,51
 -55 950 -55 950 0 950 c 0,0,1
EndSplineSet
Validated: 33
Substitution2: "'fina' Terminal Forms in Mongolian lookup 2 subtable" e.fina
Substitution2: "'medi' Medial Forms in Mongolian lookup 1 subtable" e.medi
Substitution2: "Required Feature in Latin lookup 0 subtable" e.init
EndChar

StartChar: e.init
Encoding: 6 -1 6
Width: 895
VWidth: 2796
GlyphClass: 2
Flags: W
LayerCount: 2
Fore
SplineSet
0 950 m 0,0,1
 224 950 224 950 336 838 c 256,2,3
 448 726 448 726 448 502 c 1,4,5
 503 502 503 502 672 502 c 0,6,7
 839 502 839 502 896 502 c 1,8,9
 896 447 896 447 896 448 c 257,10,11
 896 448 896 448 896 390 c 1,12,13
 839 390 839 390 672 390 c 0,14,15
 503 390 503 390 448 390 c 1,16,17
 448 335 448 335 448 336 c 257,18,19
 448 336 448 336 448 279 c 0,20,21
 448 224 448 224 390 224 c 0,22,23
 335 224 335 224 336 279 c 0,24,25
 336 336 336 336 336 336 c 257,26,27
 336 336 336 336 336 502 c 0,28,29
 336 671 336 671 251 754 c 0,30,31
 166 839 166 839 0 838 c 0,32,33
 -55 838 -55 838 -55 896 c 0,34,35
 -55 950 -55 950 0 950 c 0,0,1
EndSplineSet
Validated: 33
EndChar

StartChar: e.fina
Encoding: 7 -1 7
Width: 838
VWidth: 2796
GlyphClass: 2
Flags: W
LayerCount: 2
Fore
SplineSet
0 502 m 1,0,1
 167 502 167 502 229 502 c 0,2,3
 295 502 295 502 390 502 c 0,4,5
 559 502 559 502 644 587 c 0,6,7
 726 672 726 672 726 838 c 0,8,9
 726 1007 726 1007 644 1090 c 0,10,11
 559 1175 559 1175 390 1174 c 0,12,13
 335 1174 335 1174 336 1232 c 0,14,15
 336 1287 336 1287 390 1286 c 0,16,17
 614 1286 614 1286 726 1174 c 256,18,19
 838 1062 838 1062 838 838 c 256,20,21
 838 614 838 614 726 502 c 256,22,23
 614 390 614 390 390 390 c 0,24,25
 294 390 294 390 229 390 c 0,26,27
 166 390 166 390 0 390 c 1,28,29
 0 447 0 447 0 475 c 256,30,31
 0 502 0 502 0 502 c 1,0,1
451 808 m 0,32,33
 440 794 440 794 423 789 c 256,34,35
 407 784 407 784 390 784 c 256,36,37
 374 784 374 784 360 789 c 0,38,39
 344 794 344 794 333 808 c 0,40,41
 319 819 319 819 314 836 c 0,42,43
 309 850 309 850 309 866 c 256,44,45
 309 882 309 882 314 898 c 256,46,47
 319 914 319 914 333 926 c 0,48,49
 344 937 344 937 360 945 c 0,50,51
 374 950 374 950 390 950 c 256,52,53
 406 950 406 950 423 945 c 0,54,55
 439 937 439 937 451 926 c 256,56,57
 462 915 462 915 470 898 c 0,58,59
 475 882 475 882 475 866 c 256,60,61
 475 850 475 850 470 836 c 0,62,63
 462 819 462 819 451 808 c 0,32,33
EndSplineSet
Validated: 33
Substitution2: "Single Substitution lookup 8 subtable" e3.fina
Substitution2: "Single Substitution lookup 7 subtable" e2.fina
Substitution2: "Single Substitution lookup 6 subtable" e1.fina
EndChar

StartChar: e1.fina
Encoding: 8 -1 8
Width: 838
VWidth: 2796
GlyphClass: 2
Flags: W
LayerCount: 2
Fore
SplineSet
0 502 m 1,0,1
 167 502 167 502 229 502 c 0,2,3
 295 502 295 502 390 502 c 0,4,5
 559 502 559 502 644 587 c 0,6,7
 726 672 726 672 726 838 c 0,8,9
 726 1007 726 1007 644 1090 c 0,10,11
 559 1175 559 1175 390 1174 c 0,12,13
 335 1174 335 1174 336 1232 c 0,14,15
 336 1287 336 1287 390 1286 c 0,16,17
 614 1286 614 1286 726 1174 c 256,18,19
 838 1062 838 1062 838 838 c 256,20,21
 838 614 838 614 726 502 c 256,22,23
 614 390 614 390 390 390 c 0,24,25
 294 390 294 390 229 390 c 0,26,27
 166 390 166 390 0 390 c 1,28,29
 0 447 0 447 0 475 c 256,30,31
 0 502 0 502 0 502 c 1,0,1
EndSplineSet
Validated: 33
EndChar

StartChar: e3.fina
Encoding: 9 -1 9
Width: 895
VWidth: 2796
GlyphClass: 2
Flags: W
LayerCount: 2
Fore
SplineSet
448 502 m 0,0,1
 672 502 672 502 784 390 c 256,2,3
 896 278 896 278 896 55 c 0,4,5
 896 -166 896 -166 784 -279 c 256,6,7
 672 -391 672 -391 448 -390 c 0,8,9
 391 -390 391 -390 390 -336 c 0,10,11
 390 -279 390 -279 448 -279 c 0,12,13
 615 -279 615 -279 699 -197 c 0,14,15
 784 -112 784 -112 784 55 c 0,16,17
 784 224 784 224 699 309 c 0,18,19
 614 391 614 391 448 390 c 0,20,21
 350 390 350 390 314 390 c 256,22,23
 279 390 279 390 112 390 c 1,24,25
 112 335 112 335 112 336 c 257,26,27
 112 336 112 336 112 279 c 0,28,29
 112 224 112 224 55 224 c 0,30,31
 0 224 0 224 0 279 c 0,32,33
 0 336 0 336 0 336 c 257,34,35
 0 336 0 336 0 502 c 1,36,37
 55 502 55 502 167 502 c 256,38,39
 279 502 279 502 448 502 c 0,0,1
-276 1141 m 0,40,41
 -287 1130 -287 1130 -303 1125 c 0,42,43
 -319 1117 -319 1117 -336 1117 c 256,44,45
 -352 1117 -352 1117 -369 1125 c 0,46,47
 -383 1130 -383 1130 -396 1141 c 0,48,49
 -407 1155 -407 1155 -412 1171 c 0,50,51
 -420 1185 -420 1185 -421 1201 c 256,52,53
 -421 1217 -421 1217 -412 1234 c 0,54,55
 -407 1250 -407 1250 -396 1262 c 0,56,57
 -382 1273 -382 1273 -369 1281 c 0,58,59
 -353 1286 -353 1286 -336 1286 c 256,60,61
 -320 1286 -320 1286 -303 1281 c 0,62,63
 -287 1273 -287 1273 -276 1262 c 256,64,65
 -265 1251 -265 1251 -259 1234 c 0,66,67
 -251 1218 -251 1218 -251 1201 c 256,68,69
 -251 1185 -251 1185 -259 1171 c 0,70,71
 -265 1155 -265 1155 -276 1141 c 0,40,41
EndSplineSet
Validated: 33
EndChar

StartChar: e2.fina
Encoding: 10 -1 10
Width: 895
VWidth: 2796
GlyphClass: 2
Flags: W
LayerCount: 2
Fore
SplineSet
448 502 m 0,0,1
 672 502 672 502 784 390 c 256,2,3
 896 278 896 278 896 55 c 0,4,5
 896 -166 896 -166 784 -279 c 256,6,7
 672 -391 672 -391 448 -390 c 0,8,9
 391 -390 391 -390 390 -336 c 0,10,11
 390 -279 390 -279 448 -279 c 0,12,13
 615 -279 615 -279 699 -197 c 0,14,15
 784 -112 784 -112 784 55 c 0,16,17
 784 224 784 224 699 309 c 0,18,19
 614 391 614 391 448 390 c 0,20,21
 350 390 350 390 314 390 c 256,22,23
 279 390 279 390 112 390 c 1,24,25
 112 335 112 335 112 336 c 257,26,27
 112 336 112 336 112 279 c 0,28,29
 112 224 112 224 55 224 c 0,30,31
 0 224 0 224 0 279 c 0,32,33
 0 336 0 336 0 336 c 257,34,35
 0 336 0 336 0 502 c 1,36,37
 55 502 55 502 167 502 c 256,38,39
 279 502 279 502 448 502 c 0,0,1
EndSplineSet
Validated: 33
EndChar

StartChar: e.medi
Encoding: 11 -1 11
Width: 281
VWidth: 2796
GlyphClass: 2
Flags: W
LayerCount: 2
Fore
SplineSet
0 502 m 1,0,1
 0 502 0 502 0 502 c 257,2,3
 0 502 0 502 0 502 c 1,4,5
 55 502 55 502 139 502 c 256,6,7
 224 502 224 502 279 502 c 1,8,9
 279 475 279 475 279 434 c 0,10,11
 279 390 279 390 279 390 c 1,12,13
 224 390 224 390 180 390 c 256,14,15
 136 390 136 390 112 390 c 1,16,17
 112 390 112 390 112 350 c 0,18,19
 112 306 112 306 112 279 c 0,20,21
 112 224 112 224 55 224 c 0,22,23
 0 224 0 224 0 279 c 0,24,25
 0 336 0 336 0 336 c 257,26,27
 0 336 0 336 0 390 c 0,28,29
 0 447 0 447 0 448 c 257,30,31
 0 447 0 447 0 502 c 1,0,1
115 808 m 0,32,33
 104 794 104 794 87 789 c 256,34,35
 71 784 71 784 55 784 c 0,36,37
 41 784 41 784 25 789 c 256,38,39
 9 794 9 794 -3 808 c 0,40,41
 -14 819 -14 819 -22 836 c 0,42,43
 -27 850 -27 850 -27 866 c 256,44,45
 -27 882 -27 882 -22 898 c 0,46,47
 -14 914 -14 914 -3 926 c 256,48,49
 8 937 8 937 25 945 c 0,50,51
 41 950 41 950 55 950 c 0,52,53
 71 950 71 950 87 945 c 0,54,55
 103 937 103 937 115 926 c 256,56,57
 126 915 126 915 134 898 c 0,58,59
 139 882 139 882 139 866 c 256,60,61
 139 850 139 850 134 836 c 0,62,63
 126 819 126 819 115 808 c 0,32,33
EndSplineSet
Validated: 5
Substitution2: "Single Substitution lookup 26 subtable" glyph278
Substitution2: "Single Substitution lookup 6 subtable" e1.medi
EndChar

StartChar: e1.medi
Encoding: 12 -1 12
Width: 281
VWidth: 2796
GlyphClass: 2
Flags: W
LayerCount: 2
Fore
SplineSet
0 502 m 1,0,1
 55 502 55 502 139 502 c 256,2,3
 224 502 224 502 279 502 c 1,4,5
 279 486 279 486 279 467 c 256,6,7
 279 448 279 448 279 390 c 1,8,9
 224 390 224 390 186 390 c 256,10,11
 148 390 148 390 112 390 c 1,12,13
 112 390 112 390 112 363 c 256,14,15
 112 336 112 336 112 279 c 0,16,17
 112 224 112 224 55 224 c 0,18,19
 0 224 0 224 0 279 c 0,20,21
 0 336 0 336 0 336 c 257,22,23
 0 336 0 336 0 390 c 0,24,25
 0 447 0 447 0 448 c 257,26,27
 0 447 0 447 0 502 c 1,0,1
EndSplineSet
Validated: 1
Substitution2: "Single Substitution lookup 26 subtable" glyph277
EndChar

StartChar: i.isol
Encoding: 13 6259 13
Width: 1231
VWidth: 2796
GlyphClass: 2
Flags: W
LayerCount: 2
Fore
SplineSet
0 950 m 0,0,1
 224 950 224 950 336 838 c 256,2,3
 448 726 448 726 448 502 c 1,4,5
 615 502 615 502 565 502 c 256,6,7
 516 502 516 502 614 502 c 1,8,9
 614 614 614 614 699 699 c 256,10,11
 784 784 784 784 896 784 c 0,12,13
 1063 784 1063 784 1147 699 c 256,14,15
 1232 614 1232 614 1232 448 c 0,16,17
 1232 391 1232 391 1174 390 c 0,18,19
 1119 390 1119 390 1120 448 c 0,20,21
 1120 560 1120 560 1062 614 c 0,22,23
 1007 671 1007 671 896 672 c 0,24,25
 839 672 839 672 784 614 c 0,26,27
 727 559 727 559 726 448 c 0,28,29
 726 224 726 224 726 161 c 256,30,31
 726 98 726 98 726 0 c 0,32,33
 726 -55 726 -55 672 -55 c 0,34,35
 615 -55 615 -55 614 0 c 256,36,37
 614 55 614 55 614 167 c 256,38,39
 614 279 614 279 614 390 c 1,40,41
 516 390 516 390 565 390 c 256,42,43
 614 390 614 390 448 390 c 1,44,45
 448 335 448 335 448 336 c 257,46,47
 448 336 448 336 448 279 c 0,48,49
 448 224 448 224 390 224 c 0,50,51
 335 224 335 224 336 279 c 0,52,53
 336 336 336 336 336 336 c 257,54,55
 336 336 336 336 336 502 c 0,56,57
 336 671 336 671 251 754 c 0,58,59
 166 839 166 839 0 838 c 0,60,61
 -55 838 -55 838 -55 896 c 0,62,63
 -55 950 -55 950 0 950 c 0,0,1
EndSplineSet
Validated: 33
Substitution2: "Required Feature in Latin lookup 0 subtable" i.init
Substitution2: "'medi' Medial Forms in Mongolian lookup 1 subtable" i.medi
Substitution2: "'fina' Terminal Forms in Mongolian lookup 2 subtable" i.fina
Substitution2: "Single Substitution lookup 6 subtable" i1.isol
EndChar

StartChar: i1.isol
Encoding: 14 -1 14
Width: 614
VWidth: 2796
GlyphClass: 2
Flags: W
LayerCount: 2
Fore
SplineSet
0 502 m 256,0,1
 0 614 0 614 85 699 c 0,2,3
 167 784 167 784 279 784 c 0,4,5
 448 784 448 784 532 699 c 0,6,7
 614 614 614 614 614 448 c 0,8,9
 614 391 614 391 560 390 c 0,10,11
 503 390 503 390 502 448 c 0,12,13
 502 560 502 560 448 614 c 0,14,15
 391 671 391 671 279 672 c 0,16,17
 224 672 224 672 167 614 c 0,18,19
 112 559 112 559 112 448 c 0,20,21
 112 224 112 224 112 161 c 256,22,23
 112 98 112 98 112 0 c 0,24,25
 112 -55 112 -55 55 -55 c 0,26,27
 0 -55 0 -55 0 0 c 0,28,29
 0 208 0 208 0 300 c 0,30,31
 0 390 0 390 0 502 c 256,0,1
EndSplineSet
Validated: 1
EndChar

StartChar: i.init
Encoding: 15 -1 15
Width: 895
VWidth: 2796
GlyphClass: 2
Flags: W
LayerCount: 2
Fore
SplineSet
0 950 m 0,0,1
 224 950 224 950 336 838 c 256,2,3
 448 726 448 726 448 502 c 1,4,5
 503 502 503 502 532 502 c 0,6,7
 559 502 559 502 614 502 c 2,8,9
 614 502 614 502 672 502 c 0,10,11
 727 502 727 502 726 502 c 2,12,13
 756 502 756 502 797 502 c 256,14,15
 838 502 838 502 896 502 c 1,16,17
 896 447 896 447 896 421 c 0,18,19
 896 391 896 391 896 390 c 1,20,21
 839 390 839 390 811 390 c 256,22,23
 784 390 784 390 726 390 c 1,24,25
 726 226 726 226 726 156 c 0,26,27
 726 88 726 88 726 0 c 0,28,29
 726 -55 726 -55 672 -55 c 0,30,31
 615 -55 615 -55 614 0 c 256,32,33
 614 55 614 55 614 167 c 256,34,35
 614 279 614 279 614 390 c 1,36,37
 559 390 559 390 532 390 c 0,38,39
 502 390 502 390 448 390 c 1,40,41
 448 335 448 335 448 336 c 257,42,43
 448 336 448 336 448 279 c 0,44,45
 448 224 448 224 390 224 c 0,46,47
 335 224 335 224 336 279 c 0,48,49
 336 336 336 336 336 336 c 257,50,51
 336 336 336 336 336 502 c 0,52,53
 336 671 336 671 251 754 c 0,54,55
 166 839 166 839 0 838 c 0,56,57
 -55 838 -55 838 -55 896 c 0,58,59
 -55 950 -55 950 0 950 c 0,0,1
EndSplineSet
Validated: 33
EndChar

StartChar: glyph147
Encoding: 16 -1 16
Width: 783
VWidth: 2796
GlyphClass: 2
Flags: W
LayerCount: 2
Fore
SplineSet
279 502 m 1,0,1
 279 614 279 614 363 699 c 256,2,3
 448 784 448 784 560 784 c 0,4,5
 727 784 727 784 811 699 c 256,6,7
 896 614 896 614 896 448 c 0,8,9
 896 391 896 391 838 390 c 0,10,11
 783 390 783 390 784 448 c 0,12,13
 784 560 784 560 726 614 c 0,14,15
 671 671 671 671 560 672 c 0,16,17
 503 672 503 672 448 614 c 0,18,19
 391 559 391 559 390 448 c 0,20,21
 390 224 390 224 390 161 c 256,22,23
 390 98 390 98 390 0 c 0,24,25
 390 -55 390 -55 336 -55 c 0,26,27
 279 -55 279 -55 279 0 c 256,28,29
 279 55 279 55 279 167 c 256,30,31
 279 279 279 279 279 390 c 1,32,33
 183 390 183 390 229 390 c 0,34,35
 278 390 278 390 112 390 c 1,36,37
 112 335 112 335 112 336 c 257,38,39
 112 336 112 336 112 279 c 0,40,41
 112 224 112 224 55 224 c 0,42,43
 0 224 0 224 0 279 c 0,44,45
 0 336 0 336 0 336 c 257,46,47
 0 336 0 336 0 502 c 1,48,49
 96 502 96 502 164 502 c 256,50,51
 233 502 233 502 279 502 c 1,0,1
EndSplineSet
Validated: 37
EndChar

StartChar: i.fina
Encoding: 17 -1 17
Width: 614
VWidth: 2796
GlyphClass: 2
Flags: W
LayerCount: 2
Fore
SplineSet
0 502 m 256,0,1
 0 614 0 614 85 699 c 0,2,3
 167 784 167 784 279 784 c 0,4,5
 448 784 448 784 532 699 c 0,6,7
 614 614 614 614 614 448 c 0,8,9
 614 391 614 391 560 390 c 0,10,11
 503 390 503 390 502 448 c 0,12,13
 502 560 502 560 448 614 c 0,14,15
 391 671 391 671 279 672 c 0,16,17
 224 672 224 672 167 614 c 0,18,19
 112 559 112 559 112 448 c 0,20,21
 112 224 112 224 112 161 c 256,22,23
 112 98 112 98 112 0 c 0,24,25
 112 -55 112 -55 55 -55 c 0,26,27
 0 -55 0 -55 0 0 c 0,28,29
 0 208 0 208 0 300 c 0,30,31
 0 390 0 390 0 502 c 256,0,1
EndSplineSet
Validated: 1
Substitution2: "Single Substitution lookup 7 subtable" i2.fina
Substitution2: "Single Substitution lookup 6 subtable" i1.fina
EndChar

StartChar: i2.fina
Encoding: 18 -1 18
Width: 559
VWidth: 2796
GlyphClass: 2
Flags: W
LayerCount: 2
Fore
SplineSet
0 390 m 1,0,1
 0 423 0 423 0 464 c 0,2,3
 0 502 0 502 0 502 c 257,4,5
 0 502 0 502 55 502 c 0,6,7
 112 502 112 502 112 502 c 2,8,9
 336 502 336 502 448 390 c 256,10,11
 560 278 560 278 560 55 c 0,12,13
 560 0 560 0 502 0 c 0,14,15
 447 0 447 0 448 55 c 0,16,17
 448 224 448 224 363 309 c 0,18,19
 278 391 278 391 112 390 c 0,20,21
 109 390 109 390 112 358 c 0,22,23
 112 323 112 323 112 -55 c 0,24,25
 112 -112 112 -112 55 -112 c 0,26,27
 0 -112 0 -112 0 -55 c 0,28,29
 0 229 0 229 0 311 c 0,30,31
 3 390 3 390 0 390 c 1,0,1
EndSplineSet
Validated: 33
EndChar

StartChar: i1.fina
Encoding: 19 -1 19
Width: 447
VWidth: 2796
GlyphClass: 2
Flags: W
LayerCount: 2
Fore
SplineSet
0 502 m 1,0,1
 224 502 224 502 336 390 c 256,2,3
 448 278 448 278 448 55 c 0,4,5
 448 0 448 0 390 0 c 0,6,7
 335 0 335 0 336 55 c 0,8,9
 336 224 336 224 251 309 c 0,10,11
 166 391 166 391 0 390 c 1,12,13
 0 447 0 447 0 475 c 256,14,15
 0 502 0 502 0 502 c 1,0,1
EndSplineSet
Validated: 33
EndChar

StartChar: iy.isol
Encoding: 20 6239 20
Width: 1567
VWidth: 2796
GlyphClass: 2
Flags: W
LayerCount: 2
Fore
SplineSet
390 502 m 0,0,1
 559 502 559 502 644 587 c 0,2,3
 726 672 726 672 726 838 c 0,4,5
 726 1007 726 1007 644 1090 c 0,6,7
 559 1175 559 1175 390 1174 c 0,8,9
 335 1174 335 1174 336 1232 c 0,10,11
 336 1287 336 1287 390 1286 c 0,12,13
 614 1286 614 1286 726 1174 c 256,14,15
 838 1062 838 1062 838 838 c 256,16,17
 838 614 838 614 726 502 c 256,18,19
 614 390 614 390 390 390 c 0,20,21
 294 390 294 390 229 390 c 0,22,23
 166 390 166 390 0 390 c 1,24,25
 0 447 0 447 0 475 c 256,26,27
 0 502 0 502 0 502 c 1,28,29
 167 502 167 502 229 502 c 0,30,31
 294 502 294 502 390 502 c 0,0,1
0 614 m 0,32,33
 0 671 0 671 55 672 c 0,34,35
 112 672 112 672 112 614 c 2,36,37
 112 614 112 614 112 612 c 2,38,39
 112 612 112 612 112 502 c 0,40,41
 112 447 112 447 55 448 c 0,42,43
 0 448 0 448 0 502 c 0,44,45
 0 559 0 559 0 448 c 0,46,47
 0 374 0 374 0 374 c 257,48,49
 0 374 0 374 0 390 c 0,50,51
 0 447 0 447 0 502 c 0,52,53
 0 559 0 559 0 614 c 0,32,33
224 614 m 0,54,55
 224 671 224 671 279 672 c 0,56,57
 336 672 336 672 336 614 c 2,58,59
 336 614 336 614 336 587 c 256,60,61
 336 560 336 560 336 502 c 0,62,63
 336 447 336 447 279 448 c 0,64,65
 224 448 224 448 224 502 c 0,66,67
 224 532 224 532 224 546 c 256,68,69
 224 559 224 559 224 614 c 0,54,55
EndSplineSet
Validated: 37
Substitution2: "'fina' Terminal Forms in Mongolian lookup 2 subtable" iy.fina
Substitution2: "'medi' Medial Forms in Mongolian lookup 1 subtable" iy.medi
Substitution2: "Required Feature in Latin lookup 0 subtable" iy.init
EndChar

StartChar: i.medi
Encoding: 21 -1 21
Width: 281
VWidth: 2796
GlyphClass: 2
Flags: W
LayerCount: 2
Fore
SplineSet
0 502 m 1,0,1
 55 502 55 502 139 502 c 256,2,3
 224 502 224 502 279 502 c 1,4,5
 279 447 279 447 279 448 c 257,6,7
 279 448 279 448 279 390 c 1,8,9
 224 390 224 390 183 390 c 0,10,11
 139 390 139 390 112 390 c 1,12,13
 112 335 112 335 112 180 c 256,14,15
 112 24 112 24 112 0 c 0,16,17
 112 -55 112 -55 55 -55 c 0,18,19
 0 -55 0 -55 0 0 c 0,20,21
 0 120 0 120 0 227 c 0,22,23
 0 336 0 336 0 390 c 0,24,25
 0 447 0 447 0 448 c 257,26,27
 0 447 0 447 0 502 c 1,0,1
EndSplineSet
Substitution2: "Single Substitution lookup 29 subtable" glyph279
Substitution2: "Single Substitution lookup 26 subtable" glyph279
Substitution2: "Single Substitution lookup 6 subtable" i1.medi
EndChar

StartChar: is1.medi
Encoding: 22 -1 22
Width: 559
VWidth: 2796
GlyphClass: 2
Flags: W
LayerCount: 2
Fore
SplineSet
0 502 m 1,0,1
 0 502 0 502 27 502 c 256,2,3
 54 502 54 502 0 502 c 1,4,5
 55 502 55 502 139 502 c 256,6,7
 224 502 224 502 279 502 c 2,8,9
 279 502 279 502 390 502 c 256,10,11
 502 502 502 502 560 502 c 1,12,13
 560 502 560 502 560 475 c 256,14,15
 560 448 560 448 560 390 c 1,16,17
 503 390 503 390 475 390 c 256,18,19
 448 390 448 390 390 390 c 1,20,21
 390 390 390 390 393 224 c 0,22,23
 393 57 393 57 393 0 c 0,24,25
 393 -55 393 -55 339 -55 c 0,26,27
 282 -55 282 -55 281 0 c 0,28,29
 281 57 281 57 281 197 c 0,30,31
 278 336 278 336 279 390 c 1,32,33
 224 390 224 390 197 390 c 0,34,35
 167 390 167 390 112 390 c 1,36,37
 112 390 112 390 112 363 c 256,38,39
 112 336 112 336 112 279 c 0,40,41
 112 224 112 224 55 224 c 0,42,43
 0 224 0 224 0 279 c 0,44,45
 0 336 0 336 0 369 c 0,46,47
 0 398 0 398 0 502 c 1,0,1
EndSplineSet
Validated: 37
Substitution2: "Single Substitution lookup 31 subtable" glyph339
EndChar

StartChar: i1.medi
Encoding: 23 -1 23
Width: 559
VWidth: 2796
GlyphClass: 2
Flags: W
LayerCount: 2
Fore
SplineSet
-3 502 m 1,0,1
 -3 502 -3 502 25 502 c 256,2,3
 52 502 52 502 -3 502 c 1,4,5
 52 502 52 502 137 502 c 256,6,7
 222 502 222 502 276 502 c 2,8,9
 276 502 276 502 388 502 c 256,10,11
 500 502 500 502 557 502 c 1,12,13
 557 502 557 502 557 475 c 256,14,15
 557 448 557 448 557 390 c 1,16,17
 500 390 500 390 472 390 c 256,18,19
 445 390 445 390 388 390 c 1,20,21
 388 390 388 390 390 224 c 0,22,23
 390 55 390 55 390 0 c 256,24,25
 390 -55 390 -55 336 -55 c 0,26,27
 279 -55 279 -55 279 0 c 256,28,29
 279 55 279 55 279 197 c 0,30,31
 276 336 276 336 276 390 c 1,32,33
 221 390 221 390 194 390 c 0,34,35
 164 390 164 390 109 390 c 1,36,37
 109 390 109 390 109 224 c 0,38,39
 112 55 112 55 112 0 c 256,40,41
 112 -55 112 -55 55 -55 c 0,42,43
 0 -55 0 -55 0 0 c 256,44,45
 0 55 0 55 -3 227 c 0,46,47
 -3 398 -3 398 -3 502 c 1,0,1
EndSplineSet
Validated: 5
EndChar

StartChar: iy.init
Encoding: 24 -1 24
Width: 505
VWidth: 2796
GlyphClass: 2
Flags: W
LayerCount: 2
Fore
SplineSet
0 614 m 0,0,1
 0 671 0 671 55 672 c 0,2,3
 112 672 112 672 112 614 c 0,4,5
 112 554 112 554 112 557 c 256,6,7
 112 560 112 560 112 502 c 1,8,9
 158 502 158 502 191 502 c 256,10,11
 224 502 224 502 279 502 c 1,12,13
 279 486 279 486 279 467 c 256,14,15
 279 448 279 448 279 390 c 1,16,17
 224 390 224 390 186 390 c 256,18,19
 148 390 148 390 112 390 c 1,20,21
 112 390 112 390 112 363 c 256,22,23
 112 336 112 336 112 279 c 0,24,25
 112 224 112 224 55 224 c 0,26,27
 0 224 0 224 0 279 c 0,28,29
 0 336 0 336 0 336 c 257,30,31
 0 336 0 336 0 390 c 0,32,33
 0 447 0 447 0 502 c 0,34,35
 0 559 0 559 0 614 c 0,0,1
224 614 m 0,36,37
 224 671 224 671 279 672 c 0,38,39
 336 672 336 672 336 614 c 0,40,41
 336 554 336 554 336 557 c 256,42,43
 336 560 336 560 336 502 c 1,44,45
 382 502 382 502 415 502 c 256,46,47
 448 502 448 502 502 502 c 1,48,49
 502 486 502 486 502 467 c 256,50,51
 502 448 502 448 502 390 c 1,52,53
 349 390 349 390 300 390 c 256,54,55
 251 390 251 390 224 390 c 1,56,57
 224 447 224 447 224 502 c 0,58,59
 224 559 224 559 224 614 c 0,36,37
EndSplineSet
Validated: 5
EndChar

StartChar: o.isol
Encoding: 25 6179 25
Width: 1343
VWidth: 2796
GlyphClass: 2
Flags: W
LayerCount: 2
Fore
SplineSet
0 950 m 0,0,1
 224 950 224 950 336 838 c 256,2,3
 448 726 448 726 448 502 c 1,4,5
 503 502 503 502 538 502 c 256,6,7
 573 502 573 502 672 502 c 0,8,9
 784 502 784 502 978 502 c 0,10,11
 1175 502 1175 502 1343 502 c 1,12,13
 1343 447 1343 447 1343 390 c 0,14,15
 1343 335 1343 335 1343 336 c 2,16,17
 1343 167 1343 167 1259 85 c 0,18,19
 1174 0 1174 0 1008 0 c 0,20,21
 839 0 839 0 754 85 c 0,22,23
 672 167 672 167 672 336 c 2,24,25
 672 336 672 336 672 363 c 256,26,27
 672 390 672 390 672 390 c 1,28,29
 574 390 574 390 538 390 c 256,30,31
 503 390 503 390 448 390 c 1,32,33
 448 335 448 335 448 336 c 257,34,35
 448 336 448 336 448 279 c 0,36,37
 448 224 448 224 390 224 c 0,38,39
 335 224 335 224 336 279 c 0,40,41
 336 336 336 336 336 336 c 257,42,43
 336 336 336 336 336 502 c 0,44,45
 336 671 336 671 251 754 c 0,46,47
 166 839 166 839 0 838 c 0,48,49
 -55 838 -55 838 -55 896 c 0,50,51
 -55 950 -55 950 0 950 c 0,0,1
784 336 m 2,52,53
 784 224 784 224 838 167 c 0,54,55
 895 112 895 112 1008 112 c 256,56,57
 1120 112 1120 112 1174 167 c 0,58,59
 1231 224 1231 224 1232 336 c 2,60,61
 1232 336 1232 336 1232 363 c 256,62,63
 1232 390 1232 390 1232 390 c 1,64,65
 1120 390 1120 390 978 390 c 0,66,67
 839 390 839 390 784 390 c 1,68,69
 784 390 784 390 784 363 c 256,70,71
 784 336 784 336 784 336 c 2,52,53
EndSplineSet
Validated: 33
Substitution2: "'fina' Terminal Forms in Mongolian lookup 2 subtable" o.fina
Substitution2: "'medi' Medial Forms in Mongolian lookup 1 subtable" o.medi
Substitution2: "Required Feature in Latin lookup 0 subtable" o.init
EndChar

StartChar: o.init
Encoding: 26 -1 26
Width: 1231
VWidth: 2796
GlyphClass: 2
Flags: W
LayerCount: 2
Fore
SplineSet
0 950 m 0,0,1
 224 950 224 950 336 838 c 256,2,3
 448 726 448 726 448 502 c 1,4,5
 503 502 503 502 511 502 c 0,6,7
 516 502 516 502 614 502 c 0,8,9
 726 502 726 502 896 502 c 0,10,11
 1063 502 1063 502 1232 502 c 1,12,13
 1232 502 1232 502 1232 448 c 0,14,15
 1232 391 1232 391 1232 390 c 1,16,17
 1175 390 1175 390 1147 390 c 256,18,19
 1120 390 1120 390 1062 390 c 1,20,21
 1062 390 1062 390 1062 363 c 256,22,23
 1062 336 1062 336 1062 336 c 2,24,25
 1062 224 1062 224 1008 167 c 0,26,27
 951 112 951 112 838 112 c 256,28,29
 726 112 726 112 672 167 c 0,30,31
 615 224 615 224 614 336 c 2,32,33
 614 336 614 336 614 363 c 256,34,35
 614 390 614 390 614 390 c 1,36,37
 516 390 516 390 511 390 c 0,38,39
 503 390 503 390 448 390 c 1,40,41
 448 335 448 335 448 336 c 257,42,43
 448 336 448 336 448 279 c 0,44,45
 448 224 448 224 390 224 c 0,46,47
 335 224 335 224 336 279 c 0,48,49
 336 336 336 336 336 336 c 257,50,51
 336 336 336 336 336 502 c 0,52,53
 336 671 336 671 251 754 c 0,54,55
 166 839 166 839 0 838 c 0,56,57
 -55 838 -55 838 -55 896 c 0,58,59
 -55 950 -55 950 0 950 c 0,0,1
726 336 m 2,60,61
 726 279 726 279 754 251 c 0,62,63
 784 224 784 224 838 224 c 0,64,65
 895 224 895 224 923 251 c 256,66,67
 950 278 950 278 950 336 c 2,68,69
 950 336 950 336 950 363 c 256,70,71
 950 390 950 390 950 390 c 1,72,73
 895 390 895 390 838 390 c 0,74,75
 783 390 783 390 726 390 c 1,76,77
 726 390 726 390 726 363 c 256,78,79
 726 336 726 336 726 336 c 2,60,61
EndSplineSet
Validated: 33
EndChar

StartChar: o.fina
Encoding: 27 -1 27
Width: 892
VWidth: 2796
GlyphClass: 2
Flags: W
LayerCount: 2
Fore
SplineSet
0 502 m 0,0,1
 0 726 0 726 112 838 c 256,2,3
 224 950 224 950 448 950 c 256,4,5
 672 950 672 950 784 838 c 256,6,7
 896 726 896 726 896 502 c 0,8,9
 896 447 896 447 838 448 c 0,10,11
 783 448 783 448 784 502 c 0,12,13
 784 671 784 671 696 754 c 0,14,15
 609 839 609 839 448 838 c 0,16,17
 279 841 279 841 197 756 c 0,18,19
 112 671 112 671 112 502 c 1,20,21
 224 502 224 502 363 502 c 256,22,23
 502 502 502 502 614 502 c 1,24,25
 614 365 614 365 614 352 c 0,26,27
 614 336 614 336 614 336 c 2,28,29
 614 167 614 167 532 85 c 0,30,31
 447 0 447 0 336 0 c 0,32,33
 167 0 167 0 85 85 c 0,34,35
 0 167 0 167 0 336 c 1,36,37
 3 336 3 336 0 399 c 0,38,39
 0 461 0 461 0 502 c 0,0,1
112 336 m 2,40,41
 112 224 112 224 167 167 c 0,42,43
 224 112 224 112 336 112 c 0,44,45
 391 112 391 112 448 167 c 0,46,47
 503 224 503 224 502 336 c 2,48,49
 502 336 502 336 502 363 c 256,50,51
 502 390 502 390 502 390 c 1,52,53
 374 390 374 390 112 390 c 1,54,55
 112 390 112 390 112 363 c 256,56,57
 112 336 112 336 112 336 c 2,40,41
EndSplineSet
Validated: 33
Substitution2: "Single Substitution lookup 6 subtable" o1.fina
Substitution2: "Single Substitution lookup 4 subtable" o1.fina
EndChar

StartChar: o1.fina
Encoding: 28 -1 28
Width: 447
VWidth: 2796
GlyphClass: 2
Flags: W
LayerCount: 2
Fore
SplineSet
0 502 m 1,0,1
 112 502 112 502 197 502 c 0,2,3
 279 502 279 502 448 502 c 1,4,5
 448 472 448 472 448 461 c 0,6,7
 448 447 448 447 448 390 c 2,8,9
 448 390 448 390 448 363 c 256,10,11
 448 336 448 336 448 336 c 2,12,13
 448 224 448 224 390 167 c 0,14,15
 335 112 335 112 224 112 c 256,16,17
 112 112 112 112 55 167 c 0,18,19
 0 224 0 224 0 336 c 1,20,21
 3 336 3 336 0 399 c 0,22,23
 0 458 0 458 0 502 c 1,0,1
112 336 m 2,24,25
 112 279 112 279 139 251 c 256,26,27
 166 224 166 224 224 224 c 0,28,29
 279 224 279 224 309 251 c 0,30,31
 336 278 336 278 336 336 c 2,32,33
 336 336 336 336 336 363 c 256,34,35
 336 390 336 390 336 390 c 1,36,37
 262 390 262 390 112 390 c 1,38,39
 112 390 112 390 112 363 c 256,40,41
 112 336 112 336 112 336 c 2,24,25
EndSplineSet
Validated: 1
Substitution2: "Single Substitution lookup 27 subtable" glyph281
EndChar

StartChar: o.medi
Encoding: 29 -1 29
Width: 614
VWidth: 2796
GlyphClass: 2
Flags: W
LayerCount: 2
Fore
SplineSet
0 502 m 1,0,1
 112 502 112 502 279 502 c 0,2,3
 448 502 448 502 614 502 c 1,4,5
 614 477 614 477 614 442 c 256,6,7
 614 407 614 407 614 390 c 1,8,9
 579 390 579 390 513 390 c 256,10,11
 447 390 447 390 448 390 c 257,12,13
 448 390 448 390 448 363 c 256,14,15
 448 336 448 336 448 336 c 2,16,17
 448 224 448 224 390 167 c 0,18,19
 335 112 335 112 224 112 c 256,20,21
 112 112 112 112 55 167 c 0,22,23
 0 224 0 224 0 336 c 1,24,25
 3 336 3 336 0 399 c 0,26,27
 0 458 0 458 0 502 c 1,0,1
112 336 m 2,28,29
 112 279 112 279 139 251 c 256,30,31
 166 224 166 224 224 224 c 0,32,33
 279 224 279 224 309 251 c 0,34,35
 336 278 336 278 336 336 c 2,36,37
 336 336 336 336 336 363 c 256,38,39
 336 390 336 390 336 390 c 1,40,41
 262 390 262 390 112 390 c 1,42,43
 112 390 112 390 112 363 c 256,44,45
 112 336 112 336 112 336 c 2,28,29
EndSplineSet
Validated: 37
Substitution2: "Single Substitution lookup 27 subtable" glyph280
EndChar

StartChar: u.isol
Encoding: 30 6240 30
Width: 1343
VWidth: 2796
GlyphClass: 2
Flags: W
LayerCount: 2
Fore
SplineSet
0 950 m 0,0,1
 224 950 224 950 336 838 c 256,2,3
 448 726 448 726 448 502 c 1,4,5
 503 502 503 502 538 502 c 256,6,7
 573 502 573 502 672 502 c 0,8,9
 784 502 784 502 978 502 c 0,10,11
 1175 502 1175 502 1343 502 c 1,12,13
 1343 447 1343 447 1343 390 c 0,14,15
 1343 335 1343 335 1343 336 c 2,16,17
 1343 167 1343 167 1259 85 c 0,18,19
 1174 0 1174 0 1008 0 c 0,20,21
 839 0 839 0 754 85 c 0,22,23
 672 167 672 167 672 336 c 2,24,25
 672 336 672 336 672 363 c 256,26,27
 672 390 672 390 672 390 c 1,28,29
 574 390 574 390 538 390 c 256,30,31
 503 390 503 390 448 390 c 1,32,33
 448 335 448 335 448 336 c 257,34,35
 448 336 448 336 448 279 c 0,36,37
 448 224 448 224 390 224 c 0,38,39
 335 224 335 224 336 279 c 0,40,41
 336 336 336 336 336 336 c 257,42,43
 336 336 336 336 336 502 c 0,44,45
 336 671 336 671 251 754 c 0,46,47
 166 839 166 839 0 838 c 0,48,49
 -55 838 -55 838 -55 896 c 0,50,51
 -55 950 -55 950 0 950 c 0,0,1
784 336 m 2,52,53
 784 224 784 224 838 167 c 0,54,55
 895 112 895 112 1008 112 c 256,56,57
 1120 112 1120 112 1174 167 c 0,58,59
 1231 224 1231 224 1232 336 c 2,60,61
 1232 336 1232 336 1232 363 c 256,62,63
 1232 390 1232 390 1232 390 c 1,64,65
 1175 390 1175 390 1008 390 c 0,66,67
 839 390 839 390 784 390 c 1,68,69
 784 390 784 390 784 363 c 256,70,71
 784 336 784 336 784 336 c 2,52,53
1065 808 m 0,72,73
 1054 794 1054 794 1038 789 c 0,74,75
 1024 784 1024 784 1008 784 c 256,76,77
 992 784 992 784 975 789 c 256,78,79
 959 794 959 794 948 808 c 0,80,81
 937 819 937 819 928 836 c 0,82,83
 923 850 923 850 923 866 c 256,84,85
 923 882 923 882 928 898 c 0,86,87
 936 914 936 914 948 926 c 256,88,89
 959 937 959 937 975 945 c 0,90,91
 991 950 991 950 1008 950 c 256,92,93
 1024 950 1024 950 1038 945 c 0,94,95
 1054 937 1054 937 1065 926 c 0,96,97
 1079 915 1079 915 1084 898 c 256,98,99
 1089 882 1089 882 1090 866 c 256,100,101
 1090 850 1090 850 1084 836 c 0,102,103
 1079 819 1079 819 1065 808 c 0,72,73
EndSplineSet
Validated: 33
Substitution2: "'fina' Terminal Forms in Mongolian lookup 2 subtable" u.fina
Substitution2: "'medi' Medial Forms in Mongolian lookup 1 subtable" u.medi
Substitution2: "Required Feature in Latin lookup 0 subtable" u.init
EndChar

StartChar: u.init
Encoding: 31 -1 31
Width: 1231
VWidth: 2796
GlyphClass: 2
Flags: W
LayerCount: 2
Fore
SplineSet
0 950 m 0,0,1
 224 950 224 950 336 838 c 256,2,3
 448 726 448 726 448 502 c 1,4,5
 503 502 503 502 511 502 c 0,6,7
 516 502 516 502 614 502 c 0,8,9
 720 502 720 502 901 502 c 256,10,11
 1081 502 1081 502 1232 502 c 1,12,13
 1232 447 1232 447 1232 448 c 257,14,15
 1232 448 1232 448 1232 390 c 1,16,17
 1199 390 1199 390 1158 390 c 0,18,19
 1120 390 1120 390 1062 390 c 1,20,21
 1062 390 1062 390 1062 363 c 256,22,23
 1062 336 1062 336 1062 336 c 2,24,25
 1062 224 1062 224 1008 167 c 0,26,27
 951 112 951 112 838 112 c 256,28,29
 726 112 726 112 672 167 c 0,30,31
 615 224 615 224 614 336 c 2,32,33
 614 336 614 336 614 363 c 256,34,35
 614 390 614 390 614 390 c 1,36,37
 516 390 516 390 511 390 c 0,38,39
 503 390 503 390 448 390 c 1,40,41
 448 335 448 335 448 336 c 257,42,43
 448 336 448 336 448 279 c 0,44,45
 448 224 448 224 390 224 c 0,46,47
 335 224 335 224 336 279 c 0,48,49
 336 336 336 336 336 336 c 257,50,51
 336 336 336 336 336 502 c 0,52,53
 336 671 336 671 251 754 c 0,54,55
 166 839 166 839 0 838 c 0,56,57
 -55 838 -55 838 -55 896 c 0,58,59
 -55 950 -55 950 0 950 c 0,0,1
726 336 m 2,60,61
 726 279 726 279 754 251 c 0,62,63
 784 224 784 224 838 224 c 0,64,65
 895 224 895 224 923 251 c 256,66,67
 950 278 950 278 950 336 c 2,68,69
 950 336 950 336 950 363 c 256,70,71
 950 390 950 390 950 390 c 1,72,73
 895 390 895 390 838 390 c 0,74,75
 783 390 783 390 726 390 c 1,76,77
 726 390 726 390 726 363 c 256,78,79
 726 336 726 336 726 336 c 2,60,61
898 808 m 0,80,81
 887 794 887 794 871 789 c 256,82,83
 855 784 855 784 838 784 c 256,84,85
 822 784 822 784 806 789 c 0,86,87
 792 794 792 794 778 808 c 0,88,89
 767 819 767 819 762 836 c 0,90,91
 754 850 754 850 754 866 c 256,92,93
 754 882 754 882 762 898 c 0,94,95
 767 914 767 914 778 926 c 0,96,97
 792 937 792 937 806 945 c 0,98,99
 822 950 822 950 838 950 c 256,100,101
 854 950 854 950 871 945 c 0,102,103
 887 937 887 937 898 926 c 256,104,105
 909 915 909 915 918 898 c 0,106,107
 923 882 923 882 923 866 c 256,108,109
 923 850 923 850 918 836 c 0,110,111
 909 819 909 819 898 808 c 0,80,81
EndSplineSet
Validated: 33
EndChar

StartChar: v.isol
Encoding: 32 6241 32
Width: 1567
VWidth: 2796
GlyphClass: 2
Flags: W
LayerCount: 2
Fore
SplineSet
0 950 m 0,0,1
 224 950 224 950 336 838 c 256,2,3
 448 726 448 726 448 502 c 1,4,5
 503 502 503 502 511 502 c 0,6,7
 516 502 516 502 614 502 c 0,8,9
 726 502 726 502 811 502 c 256,10,11
 896 502 896 502 1062 502 c 0,12,13
 1286 502 1286 502 1398 390 c 256,14,15
 1510 278 1510 278 1510 55 c 0,16,17
 1510 0 1510 0 1453 0 c 0,18,19
 1398 0 1398 0 1398 55 c 0,20,21
 1398 224 1398 224 1313 309 c 0,22,23
 1231 391 1231 391 1062 390 c 1,24,25
 1062 363 1062 363 1062 350 c 256,26,27
 1062 336 1062 336 1062 336 c 2,28,29
 1062 224 1062 224 1008 167 c 0,30,31
 951 112 951 112 838 112 c 256,32,33
 726 112 726 112 672 167 c 0,34,35
 615 224 615 224 614 336 c 2,36,37
 614 336 614 336 614 363 c 256,38,39
 614 390 614 390 614 390 c 1,40,41
 516 390 516 390 511 390 c 0,42,43
 503 390 503 390 448 390 c 1,44,45
 448 335 448 335 448 336 c 257,46,47
 448 336 448 336 448 279 c 0,48,49
 448 224 448 224 390 224 c 0,50,51
 335 224 335 224 336 279 c 0,52,53
 336 336 336 336 336 336 c 257,54,55
 336 336 336 336 336 502 c 0,56,57
 336 671 336 671 251 754 c 0,58,59
 166 839 166 839 0 838 c 0,60,61
 -55 838 -55 838 -55 896 c 0,62,63
 -55 950 -55 950 0 950 c 0,0,1
726 336 m 2,64,65
 726 279 726 279 754 251 c 0,66,67
 784 224 784 224 838 224 c 0,68,69
 895 224 895 224 923 251 c 256,70,71
 950 278 950 278 950 336 c 2,72,73
 950 336 950 336 950 363 c 256,74,75
 950 390 950 390 950 390 c 1,76,77
 895 390 895 390 838 390 c 0,78,79
 783 390 783 390 726 390 c 1,80,81
 726 390 726 390 726 363 c 256,82,83
 726 336 726 336 726 336 c 2,64,65
EndSplineSet
Validated: 33
Substitution2: "'fina' Terminal Forms in Mongolian lookup 2 subtable" v.fina
Substitution2: "'medi' Medial Forms in Mongolian lookup 1 subtable" v.medi
Substitution2: "Required Feature in Latin lookup 0 subtable" v.init
EndChar

StartChar: v.init
Encoding: 33 -1 33
Width: 1062
VWidth: 2796
GlyphClass: 2
Flags: W
LayerCount: 2
Fore
SplineSet
0 950 m 0,0,1
 224 950 224 950 336 838 c 256,2,3
 448 726 448 726 448 502 c 1,4,5
 503 502 503 502 511 502 c 0,6,7
 516 502 516 502 614 502 c 0,8,9
 726 502 726 502 811 502 c 256,10,11
 896 502 896 502 1062 502 c 1,12,13
 1062 502 1062 502 1062 448 c 0,14,15
 1062 391 1062 391 1062 390 c 2,16,17
 1062 223 1062 223 1008 167 c 0,18,19
 951 112 951 112 838 112 c 256,20,21
 726 112 726 112 672 167 c 0,22,23
 615 224 615 224 614 336 c 2,24,25
 614 336 614 336 614 363 c 256,26,27
 614 390 614 390 614 390 c 1,28,29
 516 390 516 390 511 390 c 0,30,31
 503 390 503 390 448 390 c 1,32,33
 448 335 448 335 448 336 c 257,34,35
 448 336 448 336 448 279 c 0,36,37
 448 224 448 224 390 224 c 0,38,39
 335 224 335 224 336 279 c 0,40,41
 336 336 336 336 336 336 c 257,42,43
 336 336 336 336 336 502 c 0,44,45
 336 671 336 671 251 754 c 0,46,47
 166 839 166 839 0 838 c 0,48,49
 -55 838 -55 838 -55 896 c 0,50,51
 -55 950 -55 950 0 950 c 0,0,1
726 336 m 2,52,53
 726 279 726 279 754 251 c 0,54,55
 784 224 784 224 838 224 c 0,56,57
 895 224 895 224 923 251 c 256,58,59
 950 278 950 278 950 336 c 2,60,61
 950 336 950 336 950 363 c 256,62,63
 950 390 950 390 950 390 c 1,64,65
 895 390 895 390 838 390 c 0,66,67
 783 390 783 390 726 390 c 1,68,69
 726 390 726 390 726 363 c 256,70,71
 726 336 726 336 726 336 c 2,52,53
950 448 m 1,72,73
 977 448 977 448 1062 448 c 1,74,75
 1062 336 1062 336 1062 197 c 0,76,77
 1062 55 1062 55 1062 0 c 256,78,79
 1062 -55 1062 -55 1008 -55 c 0,80,81
 951 -55 951 -55 950 0 c 256,82,83
 950 55 950 55 950 197 c 0,84,85
 950 336 950 336 950 448 c 1,72,73
EndSplineSet
Validated: 37
EndChar

StartChar: u.fina
Encoding: 34 -1 34
Width: 892
VWidth: 2796
GlyphClass: 2
Flags: W
LayerCount: 2
Fore
SplineSet
0 502 m 1,0,1
 0 726 0 726 112 838 c 256,2,3
 224 950 224 950 448 950 c 256,4,5
 672 950 672 950 784 838 c 256,6,7
 896 726 896 726 896 502 c 0,8,9
 896 447 896 447 838 448 c 0,10,11
 783 448 783 448 784 502 c 0,12,13
 784 671 784 671 696 754 c 0,14,15
 609 839 609 839 448 838 c 0,16,17
 279 841 279 841 197 756 c 0,18,19
 112 671 112 671 112 502 c 1,20,21
 224 502 224 502 363 502 c 256,22,23
 502 502 502 502 614 502 c 1,24,25
 614 365 614 365 614 352 c 0,26,27
 614 336 614 336 614 336 c 2,28,29
 614 167 614 167 532 85 c 0,30,31
 447 0 447 0 336 0 c 0,32,33
 167 0 167 0 85 85 c 0,34,35
 0 167 0 167 0 336 c 1,36,37
 3 336 3 336 3 421 c 0,38,39
 3 502 3 502 0 502 c 1,0,1
112 336 m 2,40,41
 112 224 112 224 167 167 c 0,42,43
 224 112 224 112 336 112 c 0,44,45
 391 112 391 112 448 167 c 0,46,47
 503 224 503 224 502 336 c 2,48,49
 502 336 502 336 502 363 c 256,50,51
 502 390 502 390 502 390 c 1,52,53
 374 390 374 390 112 390 c 1,54,55
 112 390 112 390 112 363 c 256,56,57
 112 336 112 336 112 336 c 2,40,41
508 1141 m 0,58,59
 494 1130 494 1130 481 1125 c 0,60,61
 465 1117 465 1117 448 1117 c 256,62,63
 432 1117 432 1117 415 1125 c 0,64,65
 399 1130 399 1130 388 1141 c 0,66,67
 377 1155 377 1155 369 1171 c 0,68,69
 364 1185 364 1185 363 1201 c 256,70,71
 363 1217 363 1217 369 1234 c 0,72,73
 377 1250 377 1250 388 1262 c 256,74,75
 399 1273 399 1273 415 1281 c 0,76,77
 431 1286 431 1286 448 1286 c 256,78,79
 464 1286 464 1286 481 1281 c 0,80,81
 495 1273 495 1273 508 1262 c 0,82,83
 519 1251 519 1251 524 1234 c 0,84,85
 532 1218 532 1218 532 1201 c 256,86,87
 532 1185 532 1185 524 1171 c 0,88,89
 519 1155 519 1155 508 1141 c 0,58,59
EndSplineSet
Validated: 33
Substitution2: "Single Substitution lookup 8 subtable" u3.fina
Substitution2: "Single Substitution lookup 7 subtable" u2.fina
Substitution2: "Single Substitution lookup 6 subtable" u1.fina
Substitution2: "Single Substitution lookup 4 subtable" u2.fina
EndChar

StartChar: u3.fina
Encoding: 35 -1 35
Width: 892
VWidth: 2796
GlyphClass: 2
Flags: W
LayerCount: 2
Fore
SplineSet
0 502 m 0,0,1
 0 726 0 726 112 838 c 256,2,3
 224 950 224 950 448 950 c 256,4,5
 672 950 672 950 784 838 c 256,6,7
 896 726 896 726 896 502 c 0,8,9
 896 447 896 447 838 448 c 0,10,11
 783 448 783 448 784 502 c 0,12,13
 784 671 784 671 696 754 c 0,14,15
 609 839 609 839 448 838 c 0,16,17
 279 841 279 841 197 756 c 0,18,19
 112 671 112 671 112 502 c 1,20,21
 224 502 224 502 363 502 c 256,22,23
 502 502 502 502 614 502 c 1,24,25
 614 365 614 365 614 352 c 0,26,27
 614 336 614 336 614 336 c 2,28,29
 614 167 614 167 532 85 c 0,30,31
 447 0 447 0 336 0 c 0,32,33
 167 0 167 0 85 85 c 0,34,35
 0 167 0 167 0 336 c 1,36,37
 3 336 3 336 0 399 c 0,38,39
 0 461 0 461 0 502 c 0,0,1
112 336 m 2,40,41
 112 224 112 224 167 167 c 0,42,43
 224 112 224 112 336 112 c 0,44,45
 391 112 391 112 448 167 c 0,46,47
 503 224 503 224 502 336 c 2,48,49
 502 336 502 336 502 363 c 256,50,51
 502 390 502 390 502 390 c 1,52,53
 374 390 374 390 112 390 c 1,54,55
 112 390 112 390 112 363 c 256,56,57
 112 336 112 336 112 336 c 2,40,41
EndSplineSet
Validated: 33
EndChar

StartChar: u2.fina
Encoding: 36 -1 36
Width: 447
VWidth: 2796
GlyphClass: 2
Flags: W
LayerCount: 2
Fore
SplineSet
0 502 m 1,0,1
 112 502 112 502 197 502 c 0,2,3
 279 502 279 502 448 502 c 1,4,5
 448 442 448 442 448 390 c 0,6,7
 448 371 448 371 448 360 c 0,8,9
 448 335 448 335 448 336 c 2,10,11
 448 224 448 224 390 167 c 0,12,13
 335 112 335 112 224 112 c 256,14,15
 112 112 112 112 55 167 c 0,16,17
 0 224 0 224 0 336 c 1,18,19
 3 336 3 336 0 399 c 0,20,21
 0 458 0 458 0 502 c 1,0,1
112 336 m 2,22,23
 112 279 112 279 139 251 c 256,24,25
 166 224 166 224 224 224 c 0,26,27
 279 224 279 224 309 251 c 0,28,29
 336 278 336 278 336 336 c 2,30,31
 336 336 336 336 336 363 c 256,32,33
 336 390 336 390 336 390 c 1,34,35
 262 390 262 390 112 390 c 1,36,37
 112 390 112 390 112 363 c 256,38,39
 112 336 112 336 112 336 c 2,22,23
284 808 m 0,40,41
 273 794 273 794 257 789 c 256,42,43
 241 784 241 784 224 784 c 256,44,45
 208 784 208 784 191 789 c 256,46,47
 175 794 175 794 164 808 c 0,48,49
 153 819 153 819 147 836 c 0,50,51
 139 850 139 850 139 866 c 256,52,53
 139 882 139 882 147 898 c 0,54,55
 152 914 152 914 164 926 c 256,56,57
 175 937 175 937 191 945 c 0,58,59
 207 950 207 950 224 950 c 256,60,61
 240 950 240 950 257 945 c 0,62,63
 273 937 273 937 284 926 c 256,64,65
 295 915 295 915 300 898 c 0,66,67
 308 882 308 882 309 866 c 256,68,69
 309 850 309 850 300 836 c 0,70,71
 295 819 295 819 284 808 c 0,40,41
EndSplineSet
Validated: 1
Substitution2: "Single Substitution lookup 27 subtable" glyph283
Substitution2: "Single Substitution lookup 6 subtable" u1.fina
EndChar

StartChar: u1.fina
Encoding: 37 -1 37
Width: 447
VWidth: 2796
GlyphClass: 2
Flags: W
LayerCount: 2
Fore
SplineSet
0 502 m 1,0,1
 112 502 112 502 197 502 c 0,2,3
 279 502 279 502 448 502 c 1,4,5
 448 472 448 472 448 461 c 0,6,7
 448 447 448 447 448 390 c 2,8,9
 448 390 448 390 448 363 c 256,10,11
 448 336 448 336 448 336 c 2,12,13
 448 224 448 224 390 167 c 0,14,15
 335 112 335 112 224 112 c 256,16,17
 112 112 112 112 55 167 c 0,18,19
 0 224 0 224 0 336 c 1,20,21
 3 336 3 336 0 399 c 0,22,23
 0 458 0 458 0 502 c 1,0,1
112 336 m 2,24,25
 112 279 112 279 139 251 c 256,26,27
 166 224 166 224 224 224 c 0,28,29
 279 224 279 224 309 251 c 0,30,31
 336 278 336 278 336 336 c 2,32,33
 336 336 336 336 336 363 c 256,34,35
 336 390 336 390 336 390 c 1,36,37
 262 390 262 390 112 390 c 1,38,39
 112 390 112 390 112 363 c 256,40,41
 112 336 112 336 112 336 c 2,24,25
EndSplineSet
Validated: 1
Substitution2: "Single Substitution lookup 27 subtable" glyph281
EndChar

StartChar: v.fina
Encoding: 38 -1 38
Width: 895
VWidth: 2796
GlyphClass: 2
Flags: W
LayerCount: 2
Fore
SplineSet
0 502 m 1,0,1
 112 502 112 502 197 502 c 0,2,3
 279 502 279 502 448 502 c 0,4,5
 672 502 672 502 784 390 c 256,6,7
 896 278 896 278 896 55 c 0,8,9
 896 0 896 0 838 0 c 0,10,11
 783 0 783 0 784 55 c 0,12,13
 784 224 784 224 699 309 c 0,14,15
 614 391 614 391 448 390 c 1,16,17
 448 363 448 363 448 350 c 256,18,19
 448 336 448 336 448 336 c 2,20,21
 448 224 448 224 390 167 c 0,22,23
 335 112 335 112 224 112 c 256,24,25
 112 112 112 112 55 167 c 0,26,27
 0 224 0 224 0 336 c 2,28,29
 0 336 0 336 0 363 c 256,30,31
 0 390 0 390 0 390 c 2,32,33
 0 447 0 447 0 448 c 257,34,35
 0 447 0 447 0 502 c 1,0,1
112 336 m 2,36,37
 112 279 112 279 139 251 c 256,38,39
 166 224 166 224 224 224 c 0,40,41
 279 224 279 224 309 251 c 0,42,43
 336 278 336 278 336 336 c 2,44,45
 336 336 336 336 336 363 c 256,46,47
 336 390 336 390 336 390 c 1,48,49
 279 390 279 390 224 390 c 0,50,51
 167 390 167 390 112 390 c 1,52,53
 112 390 112 390 112 363 c 256,54,55
 112 336 112 336 112 336 c 2,36,37
EndSplineSet
Validated: 33
Substitution2: "Single Substitution lookup 27 subtable" glyph285
EndChar

StartChar: u.medi
Encoding: 39 -1 39
Width: 614
VWidth: 2796
GlyphClass: 2
Flags: W
LayerCount: 2
Fore
SplineSet
0 502 m 1,0,1
 112 502 112 502 279 502 c 0,2,3
 448 502 448 502 614 502 c 1,4,5
 614 453 614 453 614 423 c 0,6,7
 614 390 614 390 614 390 c 1,8,9
 581 390 581 390 543 390 c 0,10,11
 502 390 502 390 448 390 c 1,12,13
 448 390 448 390 448 390 c 257,14,15
 448 390 448 390 448 390 c 257,16,17
 448 390 448 390 448 363 c 256,18,19
 448 336 448 336 448 336 c 2,20,21
 448 224 448 224 390 167 c 0,22,23
 335 112 335 112 224 112 c 256,24,25
 112 112 112 112 55 167 c 0,26,27
 0 224 0 224 0 336 c 1,28,29
 3 336 3 336 0 399 c 0,30,31
 0 458 0 458 0 502 c 1,0,1
112 336 m 2,32,33
 112 279 112 279 139 251 c 256,34,35
 166 224 166 224 224 224 c 0,36,37
 279 224 279 224 309 251 c 0,38,39
 336 278 336 278 336 336 c 2,40,41
 336 336 336 336 336 363 c 256,42,43
 336 390 336 390 336 390 c 1,44,45
 262 390 262 390 112 390 c 1,46,47
 112 390 112 390 112 363 c 256,48,49
 112 336 112 336 112 336 c 2,32,33
284 808 m 0,50,51
 273 794 273 794 257 789 c 256,52,53
 241 784 241 784 224 784 c 256,54,55
 208 784 208 784 191 789 c 256,56,57
 175 794 175 794 164 808 c 0,58,59
 153 819 153 819 147 836 c 0,60,61
 139 850 139 850 139 866 c 256,62,63
 139 882 139 882 147 898 c 0,64,65
 152 914 152 914 164 926 c 256,66,67
 175 937 175 937 191 945 c 0,68,69
 207 950 207 950 224 950 c 256,70,71
 240 950 240 950 257 945 c 0,72,73
 273 937 273 937 284 926 c 256,74,75
 295 915 295 915 300 898 c 0,76,77
 308 882 308 882 309 866 c 256,78,79
 309 850 309 850 300 836 c 0,80,81
 295 819 295 819 284 808 c 0,50,51
EndSplineSet
Validated: 5
Substitution2: "Single Substitution lookup 27 subtable" glyph282
Substitution2: "Single Substitution lookup 6 subtable" u1.medi
EndChar

StartChar: u1.medi
Encoding: 40 -1 40
Width: 614
VWidth: 2796
GlyphClass: 2
Flags: W
LayerCount: 2
Fore
SplineSet
0 502 m 1,0,1
 112 502 112 502 279 502 c 0,2,3
 448 502 448 502 614 502 c 1,4,5
 614 477 614 477 614 442 c 256,6,7
 614 407 614 407 614 390 c 1,8,9
 579 390 579 390 513 390 c 256,10,11
 447 390 447 390 448 390 c 257,12,13
 448 390 448 390 448 363 c 256,14,15
 448 336 448 336 448 336 c 2,16,17
 448 224 448 224 390 167 c 0,18,19
 335 112 335 112 224 112 c 256,20,21
 112 112 112 112 55 167 c 0,22,23
 0 224 0 224 0 336 c 1,24,25
 3 336 3 336 0 399 c 0,26,27
 0 458 0 458 0 502 c 1,0,1
112 336 m 2,28,29
 112 279 112 279 139 251 c 256,30,31
 166 224 166 224 224 224 c 0,32,33
 279 224 279 224 309 251 c 0,34,35
 336 278 336 278 336 336 c 2,36,37
 336 336 336 336 336 363 c 256,38,39
 336 390 336 390 336 390 c 1,40,41
 262 390 262 390 112 390 c 1,42,43
 112 390 112 390 112 363 c 256,44,45
 112 336 112 336 112 336 c 2,28,29
EndSplineSet
Validated: 37
Substitution2: "Single Substitution lookup 27 subtable" glyph280
EndChar

StartChar: v.medi
Encoding: 41 -1 41
Width: 617
VWidth: 2796
GlyphClass: 2
Flags: W
LayerCount: 2
Fore
SplineSet
0 502 m 1,0,1
 112 502 112 502 279 502 c 0,2,3
 448 502 448 502 614 502 c 1,4,5
 614 502 614 502 614 448 c 0,6,7
 614 391 614 391 614 390 c 1,8,9
 559 390 559 390 502 390 c 0,10,11
 447 390 447 390 448 390 c 1,12,13
 448 223 448 223 390 167 c 0,14,15
 335 112 335 112 224 112 c 256,16,17
 112 112 112 112 55 167 c 0,18,19
 0 224 0 224 0 336 c 2,20,21
 0 336 0 336 0 363 c 256,22,23
 0 390 0 390 0 390 c 257,24,25
 0 390 0 390 0 448 c 0,26,27
 0 502 0 502 0 502 c 1,0,1
112 336 m 2,28,29
 112 279 112 279 139 251 c 256,30,31
 166 224 166 224 224 224 c 0,32,33
 279 224 279 224 309 251 c 0,34,35
 336 278 336 278 336 336 c 2,36,37
 336 336 336 336 336 363 c 256,38,39
 336 390 336 390 336 390 c 1,40,41
 279 390 279 390 224 390 c 0,42,43
 167 390 167 390 112 390 c 1,44,45
 112 390 112 390 112 363 c 256,46,47
 112 336 112 336 112 336 c 2,28,29
336 448 m 1,48,49
 363 448 363 448 448 448 c 1,50,51
 448 336 448 336 448 197 c 0,52,53
 448 55 448 55 448 0 c 256,54,55
 448 -55 448 -55 390 -55 c 0,56,57
 335 -55 335 -55 336 0 c 256,58,59
 336 55 336 55 336 197 c 0,60,61
 336 336 336 336 336 448 c 1,48,49
EndSplineSet
Validated: 37
Substitution2: "Single Substitution lookup 27 subtable" glyph284
EndChar

StartChar: b.isol
Encoding: 42 6186 42
Width: 783
VWidth: 2796
GlyphClass: 2
Flags: W
LayerCount: 2
Fore
SplineSet
0 502 m 1,0,1
 0 726 0 726 112 838 c 256,2,3
 224 950 224 950 448 950 c 256,4,5
 672 950 672 950 784 838 c 256,6,7
 896 726 896 726 896 502 c 2,8,9
 896 502 896 502 896 475 c 256,10,11
 896 448 896 448 896 448 c 2,12,13
 896 391 896 391 838 390 c 0,14,15
 783 390 783 390 784 448 c 2,16,17
 784 448 784 448 784 461 c 256,18,19
 784 475 784 475 784 502 c 0,20,21
 784 671 784 671 696 754 c 0,22,23
 609 839 609 839 448 838 c 0,24,25
 279 841 279 841 197 756 c 0,26,27
 112 671 112 671 112 502 c 1,28,29
 224 502 224 502 363 502 c 256,30,31
 502 502 502 502 614 502 c 1,32,33
 614 365 614 365 614 352 c 0,34,35
 614 336 614 336 614 336 c 2,36,37
 614 167 614 167 532 85 c 0,38,39
 447 0 447 0 336 0 c 0,40,41
 167 0 167 0 85 85 c 0,42,43
 0 167 0 167 0 336 c 1,44,45
 3 336 3 336 3 421 c 0,46,47
 3 502 3 502 0 502 c 1,0,1
112 336 m 2,48,49
 112 224 112 224 167 167 c 0,50,51
 224 112 224 112 336 112 c 0,52,53
 391 112 391 112 448 167 c 0,54,55
 503 224 503 224 502 336 c 2,56,57
 502 336 502 336 502 363 c 256,58,59
 502 390 502 390 502 390 c 1,60,61
 374 390 374 390 112 390 c 1,62,63
 112 390 112 390 112 363 c 256,64,65
 112 336 112 336 112 336 c 2,48,49
EndSplineSet
Validated: 33
Substitution2: "Single Substitution lookup 25 subtable" glyph286
Substitution2: "'fina' Terminal Forms in Mongolian lookup 2 subtable" b.fina
Substitution2: "'medi' Medial Forms in Mongolian lookup 1 subtable" b.medi
Substitution2: "Required Feature in Latin lookup 0 subtable" b.init
EndChar

StartChar: b.fina
Encoding: 43 -1 43
Width: 895
VWidth: 2796
GlyphClass: 2
Flags: W
LayerCount: 2
Fore
SplineSet
0 502 m 1,0,1
 0 726 0 726 112 838 c 256,2,3
 224 950 224 950 448 950 c 256,4,5
 672 950 672 950 784 838 c 256,6,7
 896 726 896 726 896 502 c 2,8,9
 896 502 896 502 896 475 c 256,10,11
 896 448 896 448 896 448 c 2,12,13
 896 391 896 391 838 390 c 0,14,15
 783 390 783 390 784 448 c 2,16,17
 784 448 784 448 784 461 c 256,18,19
 784 475 784 475 784 502 c 0,20,21
 784 671 784 671 696 754 c 0,22,23
 609 839 609 839 448 838 c 0,24,25
 279 841 279 841 197 756 c 0,26,27
 112 671 112 671 112 502 c 1,28,29
 224 502 224 502 363 502 c 256,30,31
 502 502 502 502 614 502 c 1,32,33
 614 365 614 365 614 352 c 0,34,35
 614 336 614 336 614 336 c 2,36,37
 614 167 614 167 532 85 c 0,38,39
 447 0 447 0 336 0 c 0,40,41
 167 0 167 0 85 85 c 0,42,43
 0 167 0 167 0 336 c 1,44,45
 3 336 3 336 3 421 c 0,46,47
 3 502 3 502 0 502 c 1,0,1
112 336 m 2,48,49
 112 224 112 224 167 167 c 0,50,51
 224 112 224 112 336 112 c 0,52,53
 391 112 391 112 448 167 c 0,54,55
 503 224 503 224 502 336 c 2,56,57
 502 336 502 336 502 363 c 256,58,59
 502 390 502 390 502 390 c 1,60,61
 374 390 374 390 112 390 c 1,62,63
 112 390 112 390 112 363 c 256,64,65
 112 336 112 336 112 336 c 2,48,49
896 55 m 0,66,67
 896 -166 896 -166 811 -279 c 256,68,69
 726 -391 726 -391 502 -390 c 0,70,71
 447 -390 447 -390 448 -336 c 0,72,73
 448 -279 448 -279 502 -279 c 0,74,75
 671 -279 671 -279 726 -197 c 0,76,77
 783 -112 783 -112 784 55 c 0,78,79
 784 118 784 118 784 199 c 0,80,81
 784 278 784 278 784 448 c 0,82,83
 784 503 784 503 838 502 c 0,84,85
 895 502 895 502 896 448 c 0,86,87
 896 391 896 391 896 251 c 256,88,89
 896 112 896 112 896 55 c 0,66,67
EndSplineSet
Validated: 37
EndChar

StartChar: b.medi
Encoding: 44 -1 44
Width: 783
VWidth: 2796
GlyphClass: 2
Flags: W
LayerCount: 2
Fore
SplineSet
0 502 m 1,0,1
 0 726 0 726 112 838 c 256,2,3
 224 950 224 950 448 950 c 256,4,5
 672 950 672 950 784 838 c 256,6,7
 896 726 896 726 896 502 c 2,8,9
 896 502 896 502 896 475 c 256,10,11
 896 448 896 448 896 448 c 2,12,13
 896 391 896 391 838 390 c 0,14,15
 783 390 783 390 784 448 c 2,16,17
 784 448 784 448 784 461 c 256,18,19
 784 475 784 475 784 502 c 0,20,21
 784 671 784 671 696 754 c 0,22,23
 609 839 609 839 448 838 c 0,24,25
 279 841 279 841 197 756 c 0,26,27
 112 671 112 671 112 502 c 1,28,29
 224 502 224 502 363 502 c 256,30,31
 502 502 502 502 614 502 c 1,32,33
 614 365 614 365 614 352 c 0,34,35
 614 336 614 336 614 336 c 2,36,37
 614 167 614 167 532 85 c 0,38,39
 447 0 447 0 336 0 c 0,40,41
 167 0 167 0 85 85 c 0,42,43
 0 167 0 167 0 336 c 1,44,45
 3 336 3 336 3 421 c 0,46,47
 3 502 3 502 0 502 c 1,0,1
112 336 m 2,48,49
 112 224 112 224 167 167 c 0,50,51
 224 112 224 112 336 112 c 0,52,53
 391 112 391 112 448 167 c 0,54,55
 503 224 503 224 502 336 c 2,56,57
 502 336 502 336 502 363 c 256,58,59
 502 390 502 390 502 390 c 1,60,61
 374 390 374 390 112 390 c 1,62,63
 112 390 112 390 112 363 c 256,64,65
 112 336 112 336 112 336 c 2,48,49
EndSplineSet
Validated: 33
Substitution2: "Single Substitution lookup 28 subtable" glyph337
Substitution2: "Single Substitution lookup 25 subtable" glyph287
EndChar

StartChar: p.isol
Encoding: 45 6246 45
Width: 783
VWidth: 2796
GlyphClass: 2
Flags: W
LayerCount: 2
Fore
SplineSet
0 502 m 1,0,1
 0 726 0 726 112 838 c 256,2,3
 224 950 224 950 448 950 c 256,4,5
 672 950 672 950 784 838 c 256,6,7
 896 726 896 726 896 502 c 2,8,9
 896 502 896 502 896 475 c 256,10,11
 896 448 896 448 896 448 c 2,12,13
 896 391 896 391 838 390 c 0,14,15
 783 390 783 390 784 448 c 2,16,17
 784 448 784 448 784 461 c 256,18,19
 784 475 784 475 784 502 c 0,20,21
 784 671 784 671 696 754 c 0,22,23
 609 839 609 839 448 838 c 0,24,25
 279 841 279 841 197 756 c 0,26,27
 112 671 112 671 112 502 c 1,28,29
 224 502 224 502 363 502 c 256,30,31
 502 502 502 502 614 502 c 1,32,33
 614 365 614 365 614 352 c 0,34,35
 614 336 614 336 614 336 c 2,36,37
 614 167 614 167 532 85 c 0,38,39
 447 0 447 0 336 0 c 0,40,41
 167 0 167 0 85 85 c 0,42,43
 0 167 0 167 0 336 c 1,44,45
 3 336 3 336 3 421 c 0,46,47
 3 502 3 502 0 502 c 1,0,1
112 336 m 2,48,49
 112 224 112 224 167 167 c 0,50,51
 224 112 224 112 336 112 c 0,52,53
 391 112 391 112 448 167 c 0,54,55
 503 224 503 224 502 336 c 2,56,57
 502 336 502 336 502 363 c 256,58,59
 502 390 502 390 502 390 c 1,60,61
 374 390 374 390 112 390 c 1,62,63
 112 390 112 390 112 363 c 256,64,65
 112 336 112 336 112 336 c 2,48,49
390 896 m 1,66,67
 420 896 420 896 502 896 c 1,68,69
 502 852 502 852 502 726 c 0,70,71
 502 671 502 671 448 672 c 0,72,73
 391 672 391 672 390 726 c 0,74,75
 390 784 390 784 390 896 c 1,66,67
EndSplineSet
Validated: 37
Substitution2: "Single Substitution lookup 25 subtable" glyph288
Substitution2: "'fina' Terminal Forms in Mongolian lookup 2 subtable" p.fina
Substitution2: "'medi' Medial Forms in Mongolian lookup 1 subtable" p.medi
Substitution2: "Required Feature in Latin lookup 0 subtable" p.init
EndChar

StartChar: p.medi
Encoding: 46 -1 46
Width: 783
VWidth: 2796
GlyphClass: 2
Flags: W
LayerCount: 2
Fore
SplineSet
0 502 m 1,0,1
 0 726 0 726 112 838 c 256,2,3
 224 950 224 950 448 950 c 256,4,5
 672 950 672 950 784 838 c 256,6,7
 896 726 896 726 896 502 c 2,8,9
 896 502 896 502 896 475 c 256,10,11
 896 448 896 448 896 448 c 2,12,13
 896 391 896 391 838 390 c 0,14,15
 783 390 783 390 784 448 c 2,16,17
 784 448 784 448 784 461 c 256,18,19
 784 475 784 475 784 502 c 0,20,21
 784 671 784 671 696 754 c 0,22,23
 609 839 609 839 448 838 c 0,24,25
 279 841 279 841 197 756 c 0,26,27
 112 671 112 671 112 502 c 1,28,29
 224 502 224 502 363 502 c 256,30,31
 502 502 502 502 614 502 c 1,32,33
 614 365 614 365 614 352 c 0,34,35
 614 336 614 336 614 336 c 2,36,37
 614 167 614 167 532 85 c 0,38,39
 447 0 447 0 336 0 c 0,40,41
 167 0 167 0 85 85 c 0,42,43
 0 167 0 167 0 336 c 1,44,45
 3 336 3 336 3 421 c 0,46,47
 3 502 3 502 0 502 c 1,0,1
112 336 m 2,48,49
 112 224 112 224 167 167 c 0,50,51
 224 112 224 112 336 112 c 0,52,53
 391 112 391 112 448 167 c 0,54,55
 503 224 503 224 502 336 c 2,56,57
 502 336 502 336 502 363 c 256,58,59
 502 390 502 390 502 390 c 1,60,61
 374 390 374 390 112 390 c 1,62,63
 112 390 112 390 112 363 c 256,64,65
 112 336 112 336 112 336 c 2,48,49
390 896 m 1,66,67
 420 896 420 896 502 896 c 1,68,69
 502 852 502 852 502 726 c 0,70,71
 502 671 502 671 448 672 c 0,72,73
 391 672 391 672 390 726 c 0,74,75
 390 784 390 784 390 896 c 1,66,67
EndSplineSet
Validated: 37
Substitution2: "Single Substitution lookup 25 subtable" glyph289
EndChar

StartChar: m.isol
Encoding: 47 6190 47
Width: 617
VWidth: 2796
GlyphClass: 2
Flags: W
LayerCount: 2
Fore
SplineSet
0 950 m 0,0,1
 224 950 224 950 336 838 c 256,2,3
 448 726 448 726 448 502 c 1,4,5
 503 502 503 502 532 502 c 0,6,7
 559 502 559 502 614 502 c 1,8,9
 614 502 614 502 614 448 c 0,10,11
 614 391 614 391 614 390 c 1,12,13
 559 390 559 390 532 390 c 256,14,15
 505 390 505 390 448 390 c 1,16,17
 448 335 448 335 448 336 c 257,18,19
 448 336 448 336 448 279 c 0,20,21
 448 224 448 224 390 224 c 0,22,23
 335 224 335 224 336 279 c 0,24,25
 336 336 336 336 336 336 c 257,26,27
 336 336 336 336 336 502 c 0,28,29
 336 671 336 671 251 754 c 0,30,31
 166 839 166 839 0 838 c 0,32,33
 -55 838 -55 838 -55 896 c 0,34,35
 -55 950 -55 950 0 950 c 0,0,1
560 1174 m 0,36,37
 503 1174 503 1174 475 1147 c 256,38,39
 448 1120 448 1120 448 1062 c 2,40,41
 448 1062 448 1062 448 767 c 256,42,43
 448 472 448 472 448 448 c 0,44,45
 448 391 448 391 390 390 c 0,46,47
 335 390 335 390 336 448 c 0,48,49
 336 500 336 500 336 754 c 256,50,51
 336 1008 336 1008 336 1062 c 0,52,53
 336 1174 336 1174 390 1232 c 0,54,55
 447 1287 447 1287 560 1286 c 0,56,57
 615 1286 615 1286 614 1232 c 0,58,59
 615 1174 615 1174 560 1174 c 0,36,37
EndSplineSet
Validated: 37
Substitution2: "'fina' Terminal Forms in Mongolian lookup 2 subtable" m.fina
Substitution2: "'medi' Medial Forms in Mongolian lookup 1 subtable" m.medi
Substitution2: "Required Feature in Latin lookup 0 subtable" m.init
EndChar

StartChar: m.fina
Encoding: 48 -1 48
Width: 671
VWidth: 2796
GlyphClass: 2
Flags: W
LayerCount: 2
Fore
SplineSet
0 502 m 1,0,1
 167 502 167 502 147 502 c 0,2,3
 125 502 125 502 224 502 c 0,4,5
 391 502 391 502 475 587 c 256,6,7
 560 672 560 672 560 838 c 0,8,9
 560 1007 560 1007 475 1090 c 0,10,11
 390 1175 390 1175 224 1174 c 0,12,13
 167 1174 167 1174 167 1232 c 0,14,15
 167 1287 167 1287 224 1286 c 0,16,17
 448 1286 448 1286 560 1174 c 256,18,19
 672 1062 672 1062 672 838 c 256,20,21
 672 614 672 614 560 502 c 256,22,23
 448 390 448 390 224 390 c 0,24,25
 126 390 126 390 147 390 c 0,26,27
 166 390 166 390 0 390 c 1,28,29
 0 447 0 447 0 475 c 256,30,31
 0 502 0 502 0 502 c 1,0,1
0 726 m 0,32,33
 0 838 0 838 55 896 c 0,34,35
 112 951 112 951 224 950 c 0,36,37
 279 950 279 950 279 896 c 0,38,39
 279 839 279 839 224 838 c 0,40,41
 167 838 167 838 139 811 c 256,42,43
 112 784 112 784 112 726 c 0,44,45
 112 559 112 559 112 614 c 0,46,47
 112 671 112 671 112 448 c 0,48,49
 112 391 112 391 55 390 c 0,50,51
 0 390 0 390 0 448 c 0,52,53
 0 560 0 560 0 532 c 0,54,55
 0 502 0 502 0 726 c 0,32,33
EndSplineSet
Validated: 37
EndChar

StartChar: m.medi
Encoding: 49 -1 49
Width: 281
VWidth: 2796
GlyphClass: 2
Flags: W
LayerCount: 2
Fore
SplineSet
0 502 m 1,0,1
 55 502 55 502 139 502 c 256,2,3
 224 502 224 502 279 502 c 1,4,5
 279 486 279 486 279 467 c 256,6,7
 279 448 279 448 279 390 c 1,8,9
 224 390 224 390 186 390 c 256,10,11
 148 390 148 390 112 390 c 1,12,13
 112 390 112 390 112 363 c 256,14,15
 112 336 112 336 112 279 c 0,16,17
 112 224 112 224 55 224 c 0,18,19
 0 224 0 224 0 279 c 0,20,21
 0 336 0 336 0 336 c 257,22,23
 0 336 0 336 0 390 c 0,24,25
 0 447 0 447 0 448 c 257,26,27
 0 447 0 447 0 502 c 1,0,1
0 1062 m 0,28,29
 0 1174 0 1174 55 1232 c 0,30,31
 112 1287 112 1287 224 1286 c 0,32,33
 279 1286 279 1286 279 1232 c 0,34,35
 279 1175 279 1175 224 1174 c 0,36,37
 167 1174 167 1174 139 1147 c 256,38,39
 112 1120 112 1120 112 1062 c 0,40,41
 112 950 112 950 112 811 c 256,42,43
 112 672 112 672 112 390 c 1,44,45
 112 390 112 390 112 448 c 1,46,47
 112 503 112 503 112 448 c 1,48,49
 112 391 112 391 55 390 c 0,50,51
 0 390 0 390 0 448 c 0,52,53
 0 503 0 503 0 421 c 0,54,55
 0 336 0 336 0 390 c 2,56,57
 0 390 0 390 0 532 c 0,58,59
 0 672 0 672 0 1062 c 0,28,29
EndSplineSet
Validated: 37
Substitution2: "Single Substitution lookup 26 subtable" glyph320
EndChar

StartChar: f.isol
Encoding: 50 6262 50
Width: 447
VWidth: 2796
GlyphClass: 2
Flags: W
LayerCount: 2
Fore
SplineSet
167 502 m 1,0,1
 224 502 224 502 309 502 c 0,2,3
 391 502 391 502 448 502 c 1,4,5
 448 447 448 447 448 448 c 257,6,7
 448 448 448 448 448 390 c 1,8,9
 391 390 391 390 350 390 c 256,10,11
 309 390 309 390 279 390 c 1,12,13
 279 335 279 335 279 139 c 0,14,15
 279 -55 279 -55 279 -167 c 0,16,17
 279 -224 279 -224 309 -251 c 0,18,19
 336 -278 336 -278 390 -279 c 0,20,21
 447 -279 447 -279 448 -279 c 257,22,23
 448 -279 448 -279 448 -279 c 1,24,25
 503 -279 503 -279 502 -336 c 0,26,27
 502 -391 502 -391 448 -390 c 0,28,29
 391 -390 391 -390 390 -390 c 257,30,31
 390 -390 390 -390 390 -390 c 1,32,33
 278 -390 278 -390 224 -336 c 0,34,35
 167 -279 167 -279 167 -167 c 0,36,37
 167 103 167 103 167 208 c 0,38,39
 167 308 167 308 167 502 c 1,0,1
0 950 m 2,40,41
 0 950 0 950 27 950 c 256,42,43
 54 950 54 950 55 950 c 2,44,45
 167 950 167 950 224 890 c 0,46,47
 279 830 279 830 279 726 c 2,48,49
 279 726 279 726 279 614 c 256,50,51
 279 502 279 502 279 448 c 0,52,53
 279 391 279 391 224 390 c 0,54,55
 167 390 167 390 167 448 c 0,56,57
 167 503 167 503 167 587 c 256,58,59
 167 672 167 672 167 726 c 0,60,61
 167 764 167 764 139 800 c 0,62,63
 112 838 112 838 55 838 c 2,64,65
 55 838 55 838 27 838 c 256,66,67
 0 838 0 838 0 838 c 2,68,69
 -55 838 -55 838 -55 896 c 0,70,71
 -55 950 -55 950 0 950 c 2,40,41
EndSplineSet
Substitution2: "'fina' Terminal Forms in Mongolian lookup 2 subtable" f.fina
Substitution2: "'medi' Medial Forms in Mongolian lookup 1 subtable" f.medi
Substitution2: "Required Feature in Latin lookup 0 subtable" f.init
EndChar

StartChar: f1.init
Encoding: 51 -1 51
Width: 281
VWidth: 2796
GlyphClass: 2
Flags: W
LayerCount: 2
Fore
SplineSet
0 502 m 1,0,1
 55 502 55 502 139 502 c 256,2,3
 224 502 224 502 279 502 c 1,4,5
 279 447 279 447 279 448 c 257,6,7
 279 448 279 448 279 390 c 1,8,9
 224 390 224 390 183 390 c 0,10,11
 139 390 139 390 112 390 c 1,12,13
 112 335 112 335 112 139 c 0,14,15
 112 -55 112 -55 112 -167 c 0,16,17
 112 -224 112 -224 139 -251 c 256,18,19
 166 -278 166 -278 224 -279 c 0,20,21
 279 -279 279 -279 279 -279 c 257,22,23
 279 -279 279 -279 279 -279 c 1,24,25
 336 -279 336 -279 336 -336 c 0,26,27
 336 -391 336 -391 279 -390 c 0,28,29
 224 -390 224 -390 224 -390 c 257,30,31
 224 -390 224 -390 224 -390 c 1,32,33
 112 -390 112 -390 55 -336 c 0,34,35
 0 -279 0 -279 0 -167 c 0,36,37
 0 103 0 103 0 208 c 0,38,39
 0 308 0 308 0 502 c 1,0,1
EndSplineSet
EndChar

StartChar: glyph183
Encoding: 52 -1 52
Width: 281
VWidth: 2796
GlyphClass: 2
Flags: W
LayerCount: 2
Fore
SplineSet
0 502 m 1,0,1
 55 502 55 502 139 502 c 256,2,3
 224 502 224 502 279 502 c 1,4,5
 279 447 279 447 279 448 c 257,6,7
 279 448 279 448 279 390 c 1,8,9
 224 390 224 390 183 390 c 0,10,11
 139 390 139 390 112 390 c 1,12,13
 112 335 112 335 112 139 c 0,14,15
 112 -55 112 -55 112 -167 c 0,16,17
 112 -224 112 -224 139 -251 c 256,18,19
 166 -278 166 -278 224 -279 c 0,20,21
 279 -279 279 -279 279 -279 c 257,22,23
 279 -279 279 -279 279 -279 c 1,24,25
 336 -279 336 -279 336 -336 c 0,26,27
 336 -391 336 -391 279 -390 c 0,28,29
 224 -390 224 -390 224 -390 c 257,30,31
 224 -390 224 -390 224 -390 c 1,32,33
 112 -390 112 -390 55 -336 c 0,34,35
 0 -279 0 -279 0 -167 c 0,36,37
 0 103 0 103 0 208 c 0,38,39
 0 308 0 308 0 502 c 1,0,1
0 896 m 1,40,41
 0 896 0 896 0 896 c 257,42,43
 0 896 0 896 0 896 c 1,44,45
 112 896 112 896 167 833 c 0,46,47
 224 773 224 773 224 672 c 2,48,49
 224 672 224 672 224 614 c 0,50,51
 224 559 224 559 224 502 c 0,52,53
 224 447 224 447 167 448 c 0,54,55
 112 448 112 448 112 502 c 0,56,57
 112 559 112 559 112 587 c 256,58,59
 112 614 112 614 112 672 c 0,60,61
 112 707 112 707 85 745 c 0,62,63
 55 783 55 783 0 784 c 1,64,65
 0 784 0 784 0 784 c 257,66,67
 0 784 0 784 0 784 c 1,68,69
 -55 784 -55 784 -55 838 c 0,70,71
 -55 896 -55 896 0 896 c 1,40,41
EndSplineSet
Substitution2: "Single Substitution lookup 26 subtable" glyph334
EndChar

StartChar: f.medi
Encoding: 53 -1 53
Width: 281
VWidth: 2796
GlyphClass: 2
Flags: W
LayerCount: 2
Fore
SplineSet
0 502 m 1,0,1
 55 502 55 502 139 502 c 256,2,3
 224 502 224 502 279 502 c 1,4,5
 279 447 279 447 279 448 c 257,6,7
 279 448 279 448 279 390 c 1,8,9
 224 390 224 390 183 390 c 0,10,11
 139 390 139 390 112 390 c 1,12,13
 112 335 112 335 112 139 c 0,14,15
 112 -55 112 -55 112 -167 c 0,16,17
 112 -224 112 -224 139 -251 c 256,18,19
 166 -278 166 -278 224 -279 c 0,20,21
 279 -279 279 -279 279 -279 c 257,22,23
 279 -279 279 -279 279 -279 c 1,24,25
 336 -279 336 -279 336 -336 c 0,26,27
 336 -391 336 -391 279 -390 c 0,28,29
 224 -390 224 -390 224 -390 c 257,30,31
 224 -390 224 -390 224 -390 c 1,32,33
 112 -390 112 -390 55 -336 c 0,34,35
 0 -279 0 -279 0 -167 c 0,36,37
 0 103 0 103 0 208 c 0,38,39
 0 308 0 308 0 502 c 1,0,1
0 896 m 1,40,41
 0 896 0 896 0 896 c 257,42,43
 0 896 0 896 0 896 c 1,44,45
 112 896 112 896 167 833 c 0,46,47
 224 773 224 773 224 672 c 2,48,49
 224 672 224 672 224 614 c 0,50,51
 224 559 224 559 224 502 c 0,52,53
 224 447 224 447 167 448 c 0,54,55
 112 448 112 448 112 502 c 0,56,57
 112 559 112 559 112 587 c 256,58,59
 112 614 112 614 112 672 c 0,60,61
 112 707 112 707 85 745 c 0,62,63
 55 783 55 783 0 784 c 1,64,65
 0 784 0 784 0 784 c 257,66,67
 0 784 0 784 0 784 c 1,68,69
 -55 784 -55 784 -55 838 c 0,70,71
 -55 896 -55 896 0 896 c 1,40,41
EndSplineSet
Substitution2: "Single Substitution lookup 6 subtable" f1.medi
EndChar

StartChar: f1.medi
Encoding: 54 -1 54
Width: 281
VWidth: 2796
GlyphClass: 2
Flags: W
LayerCount: 2
Fore
SplineSet
0 502 m 1,0,1
 55 502 55 502 139 502 c 256,2,3
 224 502 224 502 279 502 c 1,4,5
 279 447 279 447 279 448 c 257,6,7
 279 448 279 448 279 390 c 1,8,9
 224 390 224 390 183 390 c 0,10,11
 139 390 139 390 112 390 c 1,12,13
 112 335 112 335 112 139 c 0,14,15
 112 -55 112 -55 112 -167 c 0,16,17
 112 -224 112 -224 139 -251 c 256,18,19
 166 -278 166 -278 224 -279 c 0,20,21
 279 -279 279 -279 279 -279 c 257,22,23
 279 -279 279 -279 279 -279 c 1,24,25
 336 -279 336 -279 336 -336 c 0,26,27
 336 -391 336 -391 279 -390 c 0,28,29
 224 -390 224 -390 224 -390 c 257,30,31
 224 -390 224 -390 224 -390 c 1,32,33
 112 -390 112 -390 55 -336 c 0,34,35
 0 -279 0 -279 0 -167 c 0,36,37
 0 103 0 103 0 208 c 0,38,39
 0 308 0 308 0 502 c 1,0,1
EndSplineSet
Substitution2: "Single Substitution lookup 26 subtable" glyph336
EndChar

StartChar: d.isol
Encoding: 55 6249 55
Width: 838
VWidth: 2796
GlyphClass: 2
Flags: W
LayerCount: 2
Fore
SplineSet
336 896 m 0,0,1
 489 896 489 896 579 811 c 0,2,3
 672 726 672 726 672 560 c 2,4,5
 672 560 672 560 672 532 c 0,6,7
 672 502 672 502 672 502 c 1,8,9
 839 502 839 502 789 502 c 256,10,11
 740 502 740 502 838 502 c 1,12,13
 838 502 838 502 838 475 c 256,14,15
 838 448 838 448 838 390 c 1,16,17
 740 390 740 390 789 390 c 256,18,19
 838 390 838 390 672 390 c 1,20,21
 672 335 672 335 672 336 c 257,22,23
 672 336 672 336 672 279 c 0,24,25
 672 224 672 224 614 224 c 0,26,27
 559 224 559 224 560 279 c 0,28,29
 560 336 560 336 560 309 c 0,30,31
 560 279 560 279 560 390 c 1,32,33
 448 390 448 390 363 390 c 256,34,35
 278 390 278 390 112 390 c 0,36,37
 55 390 55 390 27 421 c 0,38,39
 0 448 0 448 0 502 c 0,40,41
 0 532 0 532 0 546 c 256,42,43
 0 560 0 560 0 560 c 2,44,45
 0 727 0 727 85 811 c 0,46,47
 167 896 167 896 336 896 c 0,0,1
112 560 m 2,48,49
 112 560 112 560 112 532 c 0,50,51
 112 502 112 502 112 502 c 1,52,53
 167 502 167 502 330 502 c 0,54,55
 491 502 491 502 560 502 c 1,56,57
 560 559 560 559 560 560 c 257,58,59
 560 560 560 560 560 560 c 1,60,61
 560 672 560 672 497 726 c 0,62,63
 434 783 434 783 336 784 c 0,64,65
 224 784 224 784 167 726 c 0,66,67
 112 672 112 672 112 560 c 2,48,49
841 808 m 0,68,69
 830 794 830 794 814 789 c 0,70,71
 800 784 800 784 784 784 c 256,72,73
 768 784 768 784 751 789 c 256,74,75
 735 794 735 794 724 808 c 0,76,77
 713 819 713 819 705 836 c 0,78,79
 700 850 700 850 699 866 c 256,80,81
 699 882 699 882 705 898 c 0,82,83
 713 914 713 914 724 926 c 256,84,85
 735 937 735 937 751 945 c 0,86,87
 767 950 767 950 784 950 c 256,88,89
 800 950 800 950 814 945 c 0,90,91
 830 937 830 937 841 926 c 0,92,93
 855 915 855 915 860 898 c 0,94,95
 868 882 868 882 868 866 c 256,96,97
 868 850 868 850 860 836 c 0,98,99
 855 819 855 819 841 808 c 0,68,69
EndSplineSet
Validated: 37
Substitution2: "Single Substitution t d-isol" d.init
Substitution2: "'fina' Terminal Forms in Mongolian lookup 2 subtable" d.fina
Substitution2: "'medi' Medial Forms in Mongolian lookup 1 subtable" d.medi
Substitution2: "Required Feature in Latin lookup 0 subtable" d.init
EndChar

StartChar: d1.init
Encoding: 56 -1 56
Width: 895
VWidth: 2796
GlyphClass: 2
Flags: W
LayerCount: 2
Fore
SplineSet
448 896 m 0,0,1
 560 896 560 896 644 811 c 0,2,3
 726 726 726 726 726 560 c 2,4,5
 726 560 726 560 726 532 c 0,6,7
 726 502 726 502 726 502 c 1,8,9
 895 502 895 502 847 502 c 256,10,11
 798 502 798 502 896 502 c 1,12,13
 896 502 896 502 896 475 c 256,14,15
 896 448 896 448 896 390 c 1,16,17
 798 390 798 390 847 390 c 256,18,19
 896 390 896 390 726 390 c 1,20,21
 726 335 726 335 726 336 c 257,22,23
 726 336 726 336 726 279 c 0,24,25
 726 224 726 224 672 224 c 0,26,27
 615 224 615 224 614 279 c 0,28,29
 614 336 614 336 614 309 c 0,30,31
 614 279 614 279 614 390 c 1,32,33
 502 390 502 390 336 390 c 0,34,35
 167 390 167 390 0 390 c 0,36,37
 -55 390 -55 390 -55 448 c 0,38,39
 -55 503 -55 503 0 502 c 2,40,41
 0 502 0 502 85 502 c 0,42,43
 167 502 167 502 167 502 c 1,44,45
 167 559 167 559 167 560 c 257,46,47
 167 560 167 560 167 560 c 1,48,49
 167 672 167 672 224 784 c 0,50,51
 279 896 279 896 448 896 c 0,0,1
279 560 m 2,52,53
 279 560 279 560 279 532 c 0,54,55
 279 502 279 502 279 502 c 1,56,57
 336 502 336 502 440 502 c 0,58,59
 546 502 546 502 614 502 c 1,60,61
 614 559 614 559 614 560 c 257,62,63
 614 560 614 560 614 560 c 1,64,65
 614 672 614 672 560 726 c 0,66,67
 503 783 503 783 448 784 c 0,68,69
 336 784 336 784 309 699 c 0,70,71
 279 615 279 615 279 560 c 2,52,53
898 808 m 0,72,73
 887 794 887 794 871 789 c 256,74,75
 855 784 855 784 838 784 c 256,76,77
 822 784 822 784 806 789 c 0,78,79
 792 794 792 794 778 808 c 0,80,81
 767 819 767 819 762 836 c 0,82,83
 754 850 754 850 754 866 c 256,84,85
 754 882 754 882 762 898 c 0,86,87
 767 914 767 914 778 926 c 0,88,89
 792 937 792 937 806 945 c 0,90,91
 822 950 822 950 838 950 c 256,92,93
 854 950 854 950 871 945 c 0,94,95
 887 937 887 937 898 926 c 256,96,97
 909 915 909 915 918 898 c 0,98,99
 923 882 923 882 923 866 c 256,100,101
 923 850 923 850 918 836 c 0,102,103
 909 819 909 819 898 808 c 0,72,73
EndSplineSet
Validated: 37
EndChar

StartChar: d.medi
Encoding: 57 -1 57
Width: 335
VWidth: 2796
GlyphClass: 2
Flags: W
LayerCount: 2
Fore
SplineSet
0 502 m 1,0,1
 55 502 55 502 167 502 c 256,2,3
 279 502 279 502 336 502 c 1,4,5
 336 447 336 447 336 448 c 257,6,7
 336 448 336 448 336 390 c 1,8,9
 279 390 279 390 210 390 c 0,10,11
 139 390 139 390 112 390 c 1,12,13
 112 376 112 376 112 161 c 256,14,15
 112 -55 112 -55 112 -112 c 1,16,17
 112 -112 112 -112 139 -112 c 256,18,19
 166 -112 166 -112 167 -112 c 2,20,21
 279 -112 279 -112 336 -167 c 0,22,23
 391 -224 391 -224 390 -336 c 256,24,25
 390 -448 390 -448 336 -502 c 0,26,27
 279 -559 279 -559 167 -560 c 0,28,29
 142 -560 142 -560 134 -560 c 256,30,31
 126 -560 126 -560 112 -560 c 0,32,33
 55 -560 55 -560 27 -532 c 0,34,35
 0 -502 0 -502 0 -448 c 0,36,37
 0 -224 0 -224 0 44 c 0,38,39
 0 308 0 308 0 502 c 1,0,1
112 -224 m 1,40,41
 112 -279 112 -279 112 -448 c 1,42,43
 126 -448 126 -448 167 -448 c 0,44,45
 222 -448 222 -448 251 -421 c 0,46,47
 278 -391 278 -391 279 -336 c 0,48,49
 279 -279 279 -279 251 -251 c 256,50,51
 224 -224 224 -224 167 -224 c 0,52,53
 150 -224 150 -224 112 -224 c 1,40,41
115 808 m 0,54,55
 104 794 104 794 87 789 c 256,56,57
 71 784 71 784 55 784 c 0,58,59
 41 784 41 784 25 789 c 256,60,61
 9 794 9 794 -3 808 c 0,62,63
 -14 819 -14 819 -22 836 c 0,64,65
 -27 850 -27 850 -27 866 c 256,66,67
 -27 882 -27 882 -22 898 c 0,68,69
 -14 914 -14 914 -3 926 c 256,70,71
 8 937 8 937 25 945 c 0,72,73
 41 950 41 950 55 950 c 0,74,75
 71 950 71 950 87 945 c 0,76,77
 103 937 103 937 115 926 c 256,78,79
 126 915 126 915 134 898 c 0,80,81
 139 882 139 882 139 866 c 256,82,83
 139 850 139 850 134 836 c 0,84,85
 126 819 126 819 115 808 c 0,54,55
EndSplineSet
Validated: 33
Substitution2: "Single Substitution lookup 26 subtable" glyph329
Substitution2: "Single Substitution lookup 6 subtable" d1.medi
EndChar

StartChar: d1.medi
Encoding: 58 -1 58
Width: 335
VWidth: 2796
GlyphClass: 2
Flags: W
LayerCount: 2
Fore
SplineSet
0 502 m 1,0,1
 55 502 55 502 167 502 c 256,2,3
 279 502 279 502 336 502 c 1,4,5
 336 447 336 447 336 448 c 257,6,7
 336 448 336 448 336 390 c 1,8,9
 279 390 279 390 210 390 c 0,10,11
 139 390 139 390 112 390 c 1,12,13
 112 376 112 376 112 300 c 256,14,15
 112 224 112 224 112 167 c 1,16,17
 112 167 112 167 139 167 c 256,18,19
 166 167 166 167 167 167 c 2,20,21
 279 167 279 167 336 112 c 0,22,23
 391 55 391 55 390 -55 c 0,24,25
 390 -167 390 -167 336 -224 c 0,26,27
 279 -279 279 -279 167 -279 c 0,28,29
 142 -279 142 -279 134 -279 c 256,30,31
 126 -279 126 -279 112 -279 c 1,32,33
 112 -312 112 -312 112 -380 c 256,34,35
 112 -448 112 -448 112 -448 c 2,36,37
 112 -503 112 -503 55 -502 c 0,38,39
 0 -502 0 -502 0 -448 c 0,40,41
 0 -224 0 -224 0 44 c 0,42,43
 0 308 0 308 0 502 c 1,0,1
112 55 m 1,44,45
 112 0 112 0 112 -167 c 1,46,47
 126 -167 126 -167 167 -167 c 0,48,49
 222 -167 222 -167 251 -139 c 0,50,51
 278 -112 278 -112 279 -55 c 0,52,53
 279 0 279 0 251 27 c 256,54,55
 224 54 224 54 167 55 c 0,56,57
 150 55 150 55 112 55 c 1,44,45
115 808 m 0,58,59
 104 794 104 794 87 789 c 256,60,61
 71 784 71 784 55 784 c 0,62,63
 41 784 41 784 25 789 c 256,64,65
 9 794 9 794 -3 808 c 0,66,67
 -14 819 -14 819 -22 836 c 0,68,69
 -27 850 -27 850 -27 866 c 256,70,71
 -27 882 -27 882 -22 898 c 0,72,73
 -14 914 -14 914 -3 926 c 256,74,75
 8 937 8 937 25 945 c 0,76,77
 41 950 41 950 55 950 c 0,78,79
 71 950 71 950 87 945 c 0,80,81
 103 937 103 937 115 926 c 256,82,83
 126 915 126 915 134 898 c 0,84,85
 139 882 139 882 139 866 c 256,86,87
 139 850 139 850 134 836 c 0,88,89
 126 819 126 819 115 808 c 0,58,59
EndSplineSet
Validated: 33
Substitution2: "Single Substitution lookup 26 subtable" glyph330
EndChar

StartChar: t.isol
Encoding: 59 6248 59
Width: 838
VWidth: 2796
GlyphClass: 2
Flags: W
LayerCount: 2
Fore
SplineSet
336 896 m 0,0,1
 489 896 489 896 579 811 c 0,2,3
 672 726 672 726 672 560 c 2,4,5
 672 560 672 560 672 532 c 0,6,7
 672 502 672 502 672 502 c 1,8,9
 839 502 839 502 789 502 c 256,10,11
 740 502 740 502 838 502 c 1,12,13
 838 502 838 502 838 475 c 256,14,15
 838 448 838 448 838 390 c 1,16,17
 740 390 740 390 789 390 c 256,18,19
 838 390 838 390 672 390 c 1,20,21
 672 335 672 335 672 336 c 257,22,23
 672 336 672 336 672 279 c 0,24,25
 672 224 672 224 614 224 c 0,26,27
 559 224 559 224 560 279 c 0,28,29
 560 336 560 336 560 309 c 0,30,31
 560 279 560 279 560 390 c 1,32,33
 448 390 448 390 363 390 c 256,34,35
 278 390 278 390 112 390 c 0,36,37
 55 390 55 390 27 421 c 0,38,39
 0 448 0 448 0 502 c 0,40,41
 0 532 0 532 0 546 c 256,42,43
 0 560 0 560 0 560 c 2,44,45
 0 727 0 727 85 811 c 0,46,47
 167 896 167 896 336 896 c 0,0,1
112 560 m 2,48,49
 112 560 112 560 112 532 c 0,50,51
 112 502 112 502 112 502 c 1,52,53
 167 502 167 502 330 502 c 0,54,55
 491 502 491 502 560 502 c 1,56,57
 560 559 560 559 560 560 c 257,58,59
 560 560 560 560 560 560 c 1,60,61
 560 672 560 672 497 726 c 0,62,63
 434 783 434 783 336 784 c 0,64,65
 224 784 224 784 167 726 c 0,66,67
 112 672 112 672 112 560 c 2,48,49
EndSplineSet
Validated: 37
Substitution2: "Single Substitution t d-isol" t.init
Substitution2: "'fina' Terminal Forms in Mongolian lookup 2 subtable" t.fina
Substitution2: "'medi' Medial Forms in Mongolian lookup 1 subtable" t.medi
Substitution2: "Required Feature in Latin lookup 0 subtable" t.init
EndChar

StartChar: t1.init
Encoding: 60 -1 60
Width: 895
VWidth: 2796
GlyphClass: 2
Flags: W
LayerCount: 2
Fore
SplineSet
448 896 m 0,0,1
 560 896 560 896 644 811 c 0,2,3
 726 726 726 726 726 560 c 2,4,5
 726 560 726 560 726 532 c 0,6,7
 726 502 726 502 726 502 c 1,8,9
 895 502 895 502 847 502 c 256,10,11
 798 502 798 502 896 502 c 1,12,13
 896 502 896 502 896 475 c 256,14,15
 896 448 896 448 896 390 c 1,16,17
 798 390 798 390 847 390 c 256,18,19
 896 390 896 390 726 390 c 1,20,21
 726 335 726 335 726 336 c 257,22,23
 726 336 726 336 726 279 c 0,24,25
 726 224 726 224 672 224 c 0,26,27
 615 224 615 224 614 279 c 0,28,29
 614 336 614 336 614 309 c 0,30,31
 614 279 614 279 614 390 c 1,32,33
 502 390 502 390 336 390 c 0,34,35
 167 390 167 390 0 390 c 0,36,37
 -55 390 -55 390 -55 448 c 0,38,39
 -55 503 -55 503 0 502 c 2,40,41
 0 502 0 502 85 502 c 0,42,43
 167 502 167 502 167 502 c 1,44,45
 167 559 167 559 167 560 c 257,46,47
 167 560 167 560 167 560 c 1,48,49
 167 672 167 672 224 784 c 0,50,51
 279 896 279 896 448 896 c 0,0,1
279 560 m 2,52,53
 279 560 279 560 279 532 c 0,54,55
 279 502 279 502 279 502 c 1,56,57
 336 502 336 502 440 502 c 0,58,59
 546 502 546 502 614 502 c 1,60,61
 614 559 614 559 614 560 c 257,62,63
 614 560 614 560 614 560 c 1,64,65
 614 672 614 672 560 726 c 0,66,67
 503 783 503 783 448 784 c 0,68,69
 336 784 336 784 309 699 c 0,70,71
 279 615 279 615 279 560 c 2,52,53
EndSplineSet
Validated: 37
EndChar

StartChar: t.fina
Encoding: 61 -1 61
Width: 1062
VWidth: 2796
GlyphClass: 2
Flags: W
LayerCount: 2
Fore
SplineSet
0 502 m 1,0,1
 112 502 112 502 279 502 c 0,2,3
 448 502 448 502 614 502 c 0,4,5
 671 502 671 502 672 448 c 0,6,7
 672 391 672 391 614 390 c 0,8,9
 579 390 579 390 513 390 c 256,10,11
 447 390 447 390 448 390 c 257,12,13
 448 390 448 390 448 363 c 256,14,15
 448 336 448 336 448 336 c 2,16,17
 448 224 448 224 390 167 c 0,18,19
 335 112 335 112 224 112 c 256,20,21
 112 112 112 112 55 167 c 0,22,23
 0 224 0 224 0 336 c 1,24,25
 3 336 3 336 0 399 c 0,26,27
 0 458 0 458 0 502 c 1,0,1
112 336 m 2,28,29
 112 279 112 279 139 251 c 256,30,31
 166 224 166 224 224 224 c 0,32,33
 279 224 279 224 309 251 c 0,34,35
 336 278 336 278 336 336 c 2,36,37
 336 336 336 336 336 363 c 256,38,39
 336 390 336 390 336 390 c 1,40,41
 262 390 262 390 112 390 c 1,42,43
 112 390 112 390 112 363 c 256,44,45
 112 336 112 336 112 336 c 2,28,29
614 502 m 0,46,47
 783 502 783 502 866 587 c 0,48,49
 951 672 951 672 950 838 c 0,50,51
 950 1007 950 1007 866 1090 c 0,52,53
 784 1175 784 1175 614 1174 c 0,54,55
 559 1174 559 1174 560 1232 c 0,56,57
 560 1287 560 1287 614 1286 c 0,58,59
 838 1286 838 1286 950 1174 c 256,60,61
 1062 1062 1062 1062 1062 838 c 256,62,63
 1062 614 1062 614 950 502 c 256,64,65
 838 390 838 390 614 390 c 0,66,67
 559 390 559 390 560 448 c 0,68,69
 559 502 559 502 614 502 c 0,46,47
EndSplineSet
Validated: 37
EndChar

StartChar: t2.medi
Encoding: 62 -1 62
Width: 335
VWidth: 2796
GlyphClass: 2
Flags: W
LayerCount: 2
Fore
SplineSet
0 502 m 1,0,1
 55 502 55 502 167 502 c 256,2,3
 279 502 279 502 336 502 c 1,4,5
 336 447 336 447 336 448 c 257,6,7
 336 448 336 448 336 390 c 1,8,9
 279 390 279 390 210 390 c 0,10,11
 139 390 139 390 112 390 c 1,12,13
 112 376 112 376 112 161 c 256,14,15
 112 -55 112 -55 112 -112 c 1,16,17
 112 -112 112 -112 139 -112 c 256,18,19
 166 -112 166 -112 167 -112 c 2,20,21
 279 -112 279 -112 336 -167 c 0,22,23
 391 -224 391 -224 390 -336 c 256,24,25
 390 -448 390 -448 336 -502 c 0,26,27
 279 -559 279 -559 167 -560 c 0,28,29
 142 -560 142 -560 134 -560 c 256,30,31
 126 -560 126 -560 112 -560 c 0,32,33
 55 -560 55 -560 27 -532 c 0,34,35
 0 -502 0 -502 0 -448 c 0,36,37
 0 -224 0 -224 0 44 c 0,38,39
 0 308 0 308 0 502 c 1,0,1
112 -224 m 1,40,41
 112 -279 112 -279 112 -448 c 1,42,43
 126 -448 126 -448 167 -448 c 0,44,45
 222 -448 222 -448 251 -421 c 0,46,47
 278 -391 278 -391 279 -336 c 0,48,49
 279 -279 279 -279 251 -251 c 256,50,51
 224 -224 224 -224 167 -224 c 0,52,53
 150 -224 150 -224 112 -224 c 1,40,41
EndSplineSet
Validated: 33
Substitution2: "Single Substitution lookup 26 subtable" glyph331
EndChar

StartChar: t1.medi
Encoding: 63 -1 63
Width: 335
VWidth: 2796
GlyphClass: 2
Flags: W
LayerCount: 2
Fore
SplineSet
0 502 m 1,0,1
 55 502 55 502 167 502 c 256,2,3
 279 502 279 502 336 502 c 1,4,5
 336 447 336 447 336 448 c 257,6,7
 336 448 336 448 336 390 c 1,8,9
 279 390 279 390 210 390 c 0,10,11
 139 390 139 390 112 390 c 1,12,13
 112 376 112 376 112 300 c 256,14,15
 112 224 112 224 112 167 c 1,16,17
 112 167 112 167 139 167 c 256,18,19
 166 167 166 167 167 167 c 2,20,21
 279 167 279 167 336 112 c 0,22,23
 391 55 391 55 390 -55 c 0,24,25
 390 -167 390 -167 336 -224 c 0,26,27
 279 -279 279 -279 167 -279 c 0,28,29
 142 -279 142 -279 134 -279 c 256,30,31
 126 -279 126 -279 112 -279 c 1,32,33
 112 -312 112 -312 112 -380 c 256,34,35
 112 -448 112 -448 112 -448 c 2,36,37
 112 -503 112 -503 55 -502 c 0,38,39
 0 -502 0 -502 0 -448 c 0,40,41
 0 -224 0 -224 0 44 c 0,42,43
 0 308 0 308 0 502 c 1,0,1
112 55 m 1,44,45
 112 0 112 0 112 -167 c 1,46,47
 126 -167 126 -167 167 -167 c 0,48,49
 222 -167 222 -167 251 -139 c 0,50,51
 278 -112 278 -112 279 -55 c 0,52,53
 279 0 279 0 251 27 c 256,54,55
 224 54 224 54 167 55 c 0,56,57
 150 55 150 55 112 55 c 1,44,45
EndSplineSet
Validated: 33
Substitution2: "Single Substitution lookup 26 subtable" glyph332
EndChar

StartChar: t.medi
Encoding: 64 -1 64
Width: 895
VWidth: 2796
GlyphClass: 2
Flags: W
LayerCount: 2
Fore
SplineSet
0 502 m 1,0,1
 112 502 112 502 279 502 c 0,2,3
 448 502 448 502 614 502 c 0,4,5
 671 502 671 502 672 448 c 0,6,7
 672 391 672 391 614 390 c 0,8,9
 579 390 579 390 513 390 c 256,10,11
 447 390 447 390 448 390 c 257,12,13
 448 390 448 390 448 363 c 256,14,15
 448 336 448 336 448 336 c 2,16,17
 448 224 448 224 390 167 c 0,18,19
 335 112 335 112 224 112 c 256,20,21
 112 112 112 112 55 167 c 0,22,23
 0 224 0 224 0 336 c 1,24,25
 3 336 3 336 0 399 c 0,26,27
 0 458 0 458 0 502 c 1,0,1
112 336 m 2,28,29
 112 279 112 279 139 251 c 256,30,31
 166 224 166 224 224 224 c 0,32,33
 279 224 279 224 309 251 c 0,34,35
 336 278 336 278 336 336 c 2,36,37
 336 336 336 336 336 363 c 256,38,39
 336 390 336 390 336 390 c 1,40,41
 262 390 262 390 112 390 c 1,42,43
 112 390 112 390 112 363 c 256,44,45
 112 336 112 336 112 336 c 2,28,29
614 502 m 1,46,47
 671 502 671 502 754 502 c 0,48,49
 839 502 839 502 896 502 c 1,50,51
 896 486 896 486 896 467 c 256,52,53
 896 448 896 448 896 390 c 1,54,55
 839 390 839 390 800 390 c 256,56,57
 762 390 762 390 726 390 c 1,58,59
 726 390 726 390 726 363 c 256,60,61
 726 336 726 336 726 279 c 0,62,63
 726 224 726 224 672 224 c 0,64,65
 615 224 615 224 614 279 c 0,66,67
 614 336 614 336 614 336 c 257,68,69
 614 336 614 336 614 390 c 0,70,71
 614 447 614 447 614 448 c 257,72,73
 614 447 614 447 614 502 c 1,46,47
EndSplineSet
Validated: 37
Substitution2: "Single Substitution lookup 7 subtable" t2.medi
Substitution2: "Single Substitution lookup 6 subtable" t1.medi
EndChar

StartChar: n.isol
Encoding: 65 6184 65
Width: 611
VWidth: 2796
GlyphClass: 2
Flags: W
LayerCount: 2
Fore
SplineSet
0 950 m 0,0,1
 224 950 224 950 336 838 c 256,2,3
 448 726 448 726 448 502 c 1,4,5
 503 502 503 502 532 502 c 0,6,7
 559 502 559 502 614 502 c 1,8,9
 614 447 614 447 614 448 c 257,10,11
 614 448 614 448 614 390 c 1,12,13
 559 390 559 390 532 390 c 0,14,15
 502 390 502 390 448 390 c 1,16,17
 448 335 448 335 448 336 c 257,18,19
 448 336 448 336 448 279 c 0,20,21
 448 224 448 224 390 224 c 0,22,23
 335 224 335 224 336 279 c 0,24,25
 336 336 336 336 336 336 c 257,26,27
 336 336 336 336 336 502 c 0,28,29
 336 671 336 671 251 754 c 0,30,31
 166 839 166 839 0 838 c 0,32,33
 -55 838 -55 838 -55 896 c 0,34,35
 -55 950 -55 950 0 950 c 0,0,1
451 -30 m 0,36,37
 440 -44 440 -44 423 -49 c 256,38,39
 407 -54 407 -54 390 -55 c 256,40,41
 374 -55 374 -55 360 -49 c 0,42,43
 344 -44 344 -44 333 -30 c 0,44,45
 319 -19 319 -19 314 -3 c 0,46,47
 309 11 309 11 309 27 c 256,48,49
 309 43 309 43 314 60 c 256,50,51
 319 76 319 76 333 87 c 0,52,53
 344 98 344 98 360 106 c 0,54,55
 374 111 374 111 390 112 c 256,56,57
 406 112 406 112 423 106 c 0,58,59
 439 98 439 98 451 87 c 256,60,61
 462 76 462 76 470 60 c 0,62,63
 475 44 475 44 475 27 c 256,64,65
 475 11 475 11 470 -3 c 0,66,67
 462 -19 462 -19 451 -30 c 0,36,37
EndSplineSet
Validated: 33
Substitution2: "'fina' Terminal Forms in Mongolian lookup 2 subtable" n.fina
Substitution2: "'medi' Medial Forms in Mongolian lookup 1 subtable" n.medi
Substitution2: "Required Feature in Latin lookup 0 subtable" n.init
EndChar

StartChar: n.fina
Encoding: 66 -1 66
Width: 838
VWidth: 2796
GlyphClass: 2
Flags: W
LayerCount: 2
Fore
SplineSet
0 502 m 1,0,1
 167 502 167 502 229 502 c 0,2,3
 295 502 295 502 390 502 c 0,4,5
 559 502 559 502 644 587 c 0,6,7
 726 672 726 672 726 838 c 0,8,9
 726 1007 726 1007 644 1090 c 0,10,11
 559 1175 559 1175 390 1174 c 0,12,13
 335 1174 335 1174 336 1232 c 0,14,15
 336 1287 336 1287 390 1286 c 0,16,17
 614 1286 614 1286 726 1174 c 256,18,19
 838 1062 838 1062 838 838 c 256,20,21
 838 614 838 614 726 502 c 256,22,23
 614 390 614 390 390 390 c 0,24,25
 294 390 294 390 229 390 c 0,26,27
 166 390 166 390 0 390 c 1,28,29
 0 447 0 447 0 475 c 256,30,31
 0 502 0 502 0 502 c 1,0,1
EndSplineSet
Validated: 33
Substitution2: "Single Substitution lookup 6 subtable" n1.fina
EndChar

StartChar: n1.fina
Encoding: 67 -1 67
Width: 838
VWidth: 2796
GlyphClass: 2
Flags: W
LayerCount: 2
Fore
SplineSet
0 502 m 1,0,1
 167 502 167 502 229 502 c 0,2,3
 295 502 295 502 390 502 c 0,4,5
 559 502 559 502 644 587 c 0,6,7
 726 672 726 672 726 838 c 0,8,9
 726 1007 726 1007 644 1090 c 0,10,11
 559 1175 559 1175 390 1174 c 0,12,13
 335 1174 335 1174 336 1232 c 0,14,15
 336 1287 336 1287 390 1286 c 0,16,17
 614 1286 614 1286 726 1174 c 256,18,19
 838 1062 838 1062 838 838 c 256,20,21
 838 614 838 614 726 502 c 256,22,23
 614 390 614 390 390 390 c 0,24,25
 294 390 294 390 229 390 c 0,26,27
 166 390 166 390 0 390 c 1,28,29
 0 447 0 447 0 475 c 256,30,31
 0 502 0 502 0 502 c 1,0,1
451 -87 m 256,32,33
 440 -98 440 -98 423 -106 c 0,34,35
 407 -111 407 -111 390 -112 c 256,36,37
 374 -112 374 -112 360 -106 c 0,38,39
 344 -98 344 -98 333 -87 c 0,40,41
 319 -76 319 -76 314 -60 c 256,42,43
 309 -44 309 -44 309 -27 c 256,44,45
 309 -11 309 -11 314 3 c 0,46,47
 319 19 319 19 333 30 c 0,48,49
 344 44 344 44 360 49 c 0,50,51
 374 54 374 54 390 55 c 256,52,53
 406 55 406 55 423 49 c 256,54,55
 439 44 439 44 451 30 c 0,56,57
 462 19 462 19 470 3 c 0,58,59
 475 -11 475 -11 475 -27 c 256,60,61
 475 -43 475 -43 470 -60 c 0,62,63
 462 -76 462 -76 451 -87 c 256,32,33
EndSplineSet
Validated: 33
EndChar

StartChar: n1.medi
Encoding: 68 -1 68
Width: 278
VWidth: 2796
GlyphClass: 2
Flags: W
LayerCount: 2
Fore
SplineSet
0 502 m 1,0,1
 0 502 0 502 27 502 c 256,2,3
 54 502 54 502 0 502 c 1,4,5
 55 502 55 502 139 502 c 256,6,7
 224 502 224 502 279 502 c 1,8,9
 279 447 279 447 279 448 c 257,10,11
 279 448 279 448 279 390 c 1,12,13
 224 390 224 390 197 390 c 0,14,15
 167 390 167 390 112 390 c 1,16,17
 112 390 112 390 112 363 c 256,18,19
 112 336 112 336 112 279 c 0,20,21
 112 224 112 224 55 224 c 0,22,23
 0 224 0 224 0 279 c 0,24,25
 0 336 0 336 0 369 c 0,26,27
 0 398 0 398 0 502 c 1,0,1
115 -87 m 256,28,29
 104 -98 104 -98 87 -106 c 0,30,31
 71 -111 71 -111 55 -112 c 0,32,33
 41 -112 41 -112 25 -106 c 0,34,35
 9 -98 9 -98 -3 -87 c 256,36,37
 -14 -76 -14 -76 -22 -60 c 0,38,39
 -27 -44 -27 -44 -27 -27 c 256,40,41
 -27 -11 -27 -11 -22 3 c 0,42,43
 -14 19 -14 19 -3 30 c 0,44,45
 8 44 8 44 25 49 c 256,46,47
 41 54 41 54 55 55 c 0,48,49
 71 55 71 55 87 49 c 256,50,51
 103 44 103 44 115 30 c 0,52,53
 126 19 126 19 134 3 c 0,54,55
 139 -11 139 -11 139 -27 c 256,56,57
 139 -43 139 -43 134 -60 c 0,58,59
 126 -76 126 -76 115 -87 c 256,28,29
EndSplineSet
Validated: 5
Substitution2: "Single Substitution lookup 26 subtable" glyph322
EndChar

StartChar: n.medi
Encoding: 69 -1 69
Width: 281
VWidth: 2796
GlyphClass: 2
Flags: W
LayerCount: 2
Fore
SplineSet
0 502 m 1,0,1
 55 502 55 502 139 502 c 256,2,3
 224 502 224 502 279 502 c 1,4,5
 279 486 279 486 279 467 c 256,6,7
 279 448 279 448 279 390 c 1,8,9
 224 390 224 390 186 390 c 256,10,11
 148 390 148 390 112 390 c 1,12,13
 112 390 112 390 112 363 c 256,14,15
 112 336 112 336 112 279 c 0,16,17
 112 224 112 224 55 224 c 0,18,19
 0 224 0 224 0 279 c 0,20,21
 0 336 0 336 0 336 c 257,22,23
 0 336 0 336 0 390 c 0,24,25
 0 447 0 447 0 448 c 257,26,27
 0 447 0 447 0 502 c 1,0,1
EndSplineSet
Validated: 1
Substitution2: "Single Substitution lookup 26 subtable" glyph277
Substitution2: "Single Substitution lookup 6 subtable" n1.medi
EndChar

StartChar: l.isol
Encoding: 70 6191 70
Width: 617
VWidth: 2796
GlyphClass: 2
Flags: W
LayerCount: 2
Fore
SplineSet
0 950 m 0,0,1
 224 950 224 950 336 838 c 256,2,3
 448 726 448 726 448 502 c 1,4,5
 503 502 503 502 532 502 c 0,6,7
 559 502 559 502 614 502 c 1,8,9
 614 502 614 502 614 448 c 0,10,11
 614 391 614 391 614 390 c 1,12,13
 559 390 559 390 532 390 c 256,14,15
 505 390 505 390 448 390 c 1,16,17
 448 335 448 335 448 336 c 257,18,19
 448 336 448 336 448 279 c 0,20,21
 448 224 448 224 390 224 c 0,22,23
 335 224 335 224 336 279 c 0,24,25
 336 336 336 336 336 336 c 257,26,27
 336 336 336 336 336 502 c 0,28,29
 336 671 336 671 251 754 c 0,30,31
 166 839 166 839 0 838 c 0,32,33
 -55 838 -55 838 -55 896 c 0,34,35
 -55 950 -55 950 0 950 c 0,0,1
167 1286 m 2,36,37
 167 1286 167 1286 197 1286 c 0,38,39
 224 1286 224 1286 224 1286 c 2,40,41
 336 1286 336 1286 390 1226 c 0,42,43
 447 1163 447 1163 448 1062 c 2,44,45
 448 1062 448 1062 448 767 c 256,46,47
 448 472 448 472 448 448 c 0,48,49
 448 391 448 391 390 390 c 0,50,51
 335 390 335 390 336 448 c 0,52,53
 336 500 336 500 336 754 c 256,54,55
 336 1008 336 1008 336 1062 c 0,56,57
 336 1100 336 1100 309 1136 c 0,58,59
 279 1174 279 1174 224 1174 c 2,60,61
 224 1174 224 1174 197 1174 c 0,62,63
 167 1174 167 1174 167 1174 c 2,64,65
 112 1174 112 1174 112 1232 c 0,66,67
 112 1286 112 1286 167 1286 c 2,36,37
EndSplineSet
Validated: 37
Substitution2: "'fina' Terminal Forms in Mongolian lookup 2 subtable" l.fina
Substitution2: "'medi' Medial Forms in Mongolian lookup 1 subtable" l.medi
Substitution2: "Required Feature in Latin lookup 0 subtable" l.init
EndChar

StartChar: l.fina
Encoding: 71 -1 71
Width: 111
VWidth: 2796
GlyphClass: 2
Flags: W
LayerCount: 2
Fore
SplineSet
0 1062 m 0,0,1
 0 1119 0 1119 -27 1147 c 256,2,3
 -54 1174 -54 1174 -112 1174 c 0,4,5
 -167 1174 -167 1174 -167 1232 c 0,6,7
 -167 1287 -167 1287 -112 1286 c 0,8,9
 0 1286 0 1286 55 1232 c 0,10,11
 112 1175 112 1175 112 1062 c 256,12,13
 112 950 112 950 112 811 c 256,14,15
 112 672 112 672 112 390 c 2,16,17
 112 390 112 390 112 363 c 256,18,19
 112 336 112 336 112 279 c 0,20,21
 112 224 112 224 55 224 c 0,22,23
 0 224 0 224 0 279 c 0,24,25
 0 336 0 336 0 336 c 257,26,27
 0 336 0 336 0 390 c 2,28,29
 0 390 0 390 0 532 c 0,30,31
 0 672 0 672 0 1062 c 0,0,1
EndSplineSet
EndChar

StartChar: l.medi
Encoding: 72 -1 72
Width: 281
VWidth: 2796
GlyphClass: 2
Flags: W
LayerCount: 2
Fore
SplineSet
0 502 m 1,0,1
 55 502 55 502 139 502 c 256,2,3
 224 502 224 502 279 502 c 1,4,5
 279 486 279 486 279 467 c 256,6,7
 279 448 279 448 279 390 c 1,8,9
 224 390 224 390 186 390 c 256,10,11
 148 390 148 390 112 390 c 1,12,13
 112 390 112 390 112 363 c 256,14,15
 112 336 112 336 112 279 c 0,16,17
 112 224 112 224 55 224 c 0,18,19
 0 224 0 224 0 279 c 0,20,21
 0 336 0 336 0 390 c 0,22,23
 0 447 0 447 0 502 c 1,0,1
0 1062 m 0,24,25
 0 1119 0 1119 -27 1147 c 256,26,27
 -54 1174 -54 1174 -112 1171 c 0,28,29
 -167 1174 -167 1174 -167 1232 c 0,30,31
 -167 1287 -167 1287 -109 1286 c 0,32,33
 0 1286 0 1286 55 1232 c 0,34,35
 112 1175 112 1175 112 1062 c 256,36,37
 112 950 112 950 112 838 c 256,38,39
 112 726 112 726 112 448 c 0,40,41
 112 391 112 391 55 390 c 0,42,43
 0 390 0 390 0 448 c 2,44,45
 0 448 0 448 0 699 c 256,46,47
 0 950 0 950 0 1062 c 0,24,25
EndSplineSet
Validated: 37
Substitution2: "Single Substitution lookup 26 subtable" glyph321
EndChar

StartChar: k.isol
Encoding: 73 6260 73
Width: 1062
VWidth: 2796
GlyphClass: 2
Flags: W
LayerCount: 2
Fore
SplineSet
448 950 m 256,0,1
 672 950 672 950 784 838 c 256,2,3
 896 726 896 726 896 502 c 1,4,5
 896 502 896 502 978 502 c 0,6,7
 1063 502 1063 502 1062 502 c 1,8,9
 1062 447 1062 447 1062 448 c 257,10,11
 1062 448 1062 448 1062 390 c 1,12,13
 1007 390 1007 390 950 390 c 0,14,15
 895 390 895 390 896 390 c 1,16,17
 896 335 896 335 896 336 c 257,18,19
 896 336 896 336 896 279 c 0,20,21
 896 224 896 224 838 224 c 0,22,23
 783 224 783 224 784 279 c 0,24,25
 784 391 784 391 784 421 c 0,26,27
 784 448 784 448 784 502 c 0,28,29
 784 671 784 671 699 754 c 0,30,31
 614 839 614 839 448 838 c 0,32,33
 279 838 279 838 197 754 c 0,34,35
 112 672 112 672 112 502 c 0,36,37
 112 447 112 447 55 448 c 0,38,39
 0 448 0 448 0 502 c 0,40,41
 0 726 0 726 112 838 c 256,42,43
 224 950 224 950 448 950 c 256,0,1
0 502 m 0,44,45
 224 502 224 502 336 390 c 256,46,47
 448 278 448 278 448 55 c 0,48,49
 448 0 448 0 390 0 c 0,50,51
 335 0 335 0 336 55 c 0,52,53
 336 224 336 224 251 309 c 0,54,55
 166 391 166 391 0 390 c 0,56,57
 -55 390 -55 390 -55 448 c 0,58,59
 -55 502 -55 502 0 502 c 0,44,45
EndSplineSet
Validated: 37
Substitution2: "Single Substitution k g h" k1.init
Substitution2: "'fina' Terminal Forms in Mongolian lookup 2 subtable" k.fina
Substitution2: "'medi' Medial Forms in Mongolian lookup 1 subtable" k.medi
Substitution2: "Required Feature in Latin lookup 0 subtable" k.init
EndChar

StartChar: ks.fina
Encoding: 74 -1 74
Width: 950
VWidth: 2796
GlyphClass: 2
Flags: W
LayerCount: 2
Fore
SplineSet
502 502 m 0,0,1
 671 502 671 502 754 587 c 0,2,3
 839 672 839 672 838 838 c 0,4,5
 838 1007 838 1007 754 1090 c 0,6,7
 672 1175 672 1175 502 1174 c 0,8,9
 447 1174 447 1174 448 1232 c 0,10,11
 448 1287 448 1287 502 1286 c 0,12,13
 726 1286 726 1286 838 1174 c 256,14,15
 950 1062 950 1062 950 838 c 256,16,17
 950 614 950 614 838 502 c 256,18,19
 726 390 726 390 502 390 c 0,20,21
 177 390 177 390 117 390 c 0,22,23
 54 390 54 390 0 390 c 1,24,25
 0 447 0 447 0 390 c 1,26,27
 0 335 0 335 0 502 c 1,28,29
 167 502 167 502 213 502 c 256,30,31
 259 502 259 502 502 502 c 0,0,1
115 -33 m 0,32,33
 104 -44 104 -44 87 -49 c 0,34,35
 71 -57 71 -57 55 -57 c 0,36,37
 41 -57 41 -57 25 -49 c 0,38,39
 9 -44 9 -44 -3 -33 c 0,40,41
 -14 -19 -14 -19 -22 -5 c 0,42,43
 -27 11 -27 11 -27 27 c 256,44,45
 -27 43 -27 43 -22 60 c 0,46,47
 -14 76 -14 76 -3 87 c 256,48,49
 8 98 8 98 25 106 c 0,50,51
 41 111 41 111 55 112 c 0,52,53
 71 112 71 112 87 106 c 0,54,55
 103 98 103 98 115 87 c 256,56,57
 126 76 126 76 134 60 c 0,58,59
 139 44 139 44 139 27 c 256,60,61
 139 11 139 11 134 -5 c 0,62,63
 126 -19 126 -19 115 -33 c 0,32,33
396 -30 m 0,64,65
 382 -44 382 -44 369 -49 c 0,66,67
 353 -54 353 -54 336 -55 c 256,68,69
 320 -55 320 -55 303 -49 c 256,70,71
 287 -44 287 -44 276 -30 c 0,72,73
 265 -19 265 -19 259 -3 c 0,74,75
 251 11 251 11 251 27 c 256,76,77
 251 43 251 43 259 60 c 0,78,79
 264 76 264 76 276 87 c 256,80,81
 287 98 287 98 303 106 c 0,82,83
 319 111 319 111 336 112 c 256,84,85
 352 112 352 112 369 106 c 0,86,87
 383 98 383 98 396 87 c 0,88,89
 407 76 407 76 412 60 c 0,90,91
 420 44 420 44 421 27 c 256,92,93
 421 11 421 11 412 -3 c 0,94,95
 407 -19 407 -19 396 -30 c 0,64,65
EndSplineSet
Validated: 37
EndChar

StartChar: k.fina
Encoding: 75 -1 75
Width: 950
VWidth: 2796
GlyphClass: 2
Flags: W
LayerCount: 2
Fore
SplineSet
502 502 m 0,0,1
 671 502 671 502 754 587 c 0,2,3
 839 672 839 672 838 838 c 0,4,5
 838 1007 838 1007 754 1090 c 0,6,7
 672 1175 672 1175 502 1174 c 0,8,9
 447 1174 447 1174 448 1232 c 0,10,11
 448 1287 448 1287 502 1286 c 0,12,13
 726 1286 726 1286 838 1174 c 256,14,15
 950 1062 950 1062 950 838 c 256,16,17
 950 614 950 614 838 502 c 256,18,19
 726 390 726 390 502 390 c 0,20,21
 404 390 404 390 341 390 c 256,22,23
 278 390 278 390 112 390 c 1,24,25
 112 335 112 335 112 336 c 257,26,27
 112 336 112 336 112 279 c 0,28,29
 112 224 112 224 55 224 c 0,30,31
 0 224 0 224 0 279 c 0,32,33
 0 336 0 336 0 336 c 257,34,35
 0 336 0 336 0 502 c 1,36,37
 167 502 167 502 213 502 c 256,38,39
 259 502 259 502 502 502 c 0,0,1
115 -33 m 0,40,41
 104 -44 104 -44 87 -49 c 0,42,43
 71 -57 71 -57 55 -57 c 0,44,45
 41 -57 41 -57 25 -49 c 0,46,47
 9 -44 9 -44 -3 -33 c 0,48,49
 -14 -19 -14 -19 -22 -5 c 0,50,51
 -27 11 -27 11 -27 27 c 256,52,53
 -27 43 -27 43 -22 60 c 0,54,55
 -14 76 -14 76 -3 87 c 256,56,57
 8 98 8 98 25 106 c 0,58,59
 41 111 41 111 55 112 c 0,60,61
 71 112 71 112 87 106 c 0,62,63
 103 98 103 98 115 87 c 256,64,65
 126 76 126 76 134 60 c 0,66,67
 139 44 139 44 139 27 c 256,68,69
 139 11 139 11 134 -5 c 0,70,71
 126 -19 126 -19 115 -33 c 0,40,41
396 -30 m 0,72,73
 382 -44 382 -44 369 -49 c 0,74,75
 353 -54 353 -54 336 -55 c 256,76,77
 320 -55 320 -55 303 -49 c 256,78,79
 287 -44 287 -44 276 -30 c 0,80,81
 265 -19 265 -19 259 -3 c 0,82,83
 251 11 251 11 251 27 c 256,84,85
 251 43 251 43 259 60 c 0,86,87
 264 76 264 76 276 87 c 256,88,89
 287 98 287 98 303 106 c 0,90,91
 319 111 319 111 336 112 c 256,92,93
 352 112 352 112 369 106 c 0,94,95
 383 98 383 98 396 87 c 0,96,97
 407 76 407 76 412 60 c 0,98,99
 420 44 420 44 421 27 c 256,100,101
 421 11 421 11 412 -3 c 0,102,103
 407 -19 407 -19 396 -30 c 0,72,73
EndSplineSet
Validated: 33
Substitution2: "Single Substitution k g h" k1.fina
Substitution2: "Single Substitution lookup 12 subtable" k1.fina
Substitution2: "Single Substitution lookup 11 subtable" k1.fina
Substitution2: "Single Substitution lookup 10 subtable" k1.fina
Substitution2: "Single Substitution lookup 9 subtable" k1.fina
Substitution2: "Single Substitution lookup 8 subtable" k.fina
EndChar

StartChar: k2.medi
Encoding: 76 -1 76
Width: 559
VWidth: 2796
GlyphClass: 2
Flags: W
LayerCount: 2
Fore
SplineSet
0 502 m 1,0,1
 0 502 0 502 27 502 c 256,2,3
 54 502 54 502 0 502 c 1,4,5
 55 502 55 502 139 502 c 256,6,7
 224 502 224 502 279 502 c 2,8,9
 279 502 279 502 390 502 c 256,10,11
 502 502 502 502 560 502 c 1,12,13
 560 502 560 502 560 475 c 256,14,15
 560 448 560 448 560 390 c 1,16,17
 503 390 503 390 475 390 c 256,18,19
 448 390 448 390 390 390 c 1,20,21
 390 390 390 390 390 363 c 256,22,23
 390 336 390 336 390 279 c 0,24,25
 390 224 390 224 336 224 c 0,26,27
 279 224 279 224 279 279 c 0,28,29
 279 336 279 336 279 336 c 257,30,31
 279 336 279 336 279 390 c 1,32,33
 224 390 224 390 197 390 c 0,34,35
 167 390 167 390 112 390 c 1,36,37
 112 390 112 390 112 363 c 256,38,39
 112 336 112 336 112 279 c 0,40,41
 112 224 112 224 55 224 c 0,42,43
 0 224 0 224 0 279 c 0,44,45
 0 336 0 336 0 369 c 0,46,47
 0 398 0 398 0 502 c 1,0,1
EndSplineSet
Validated: 5
Substitution2: "Single Substitution lookup 26 subtable" glyph290
EndChar

StartChar: ks.medi
Encoding: 77 -1 77
Width: 559
VWidth: 2796
GlyphClass: 2
Flags: W
LayerCount: 2
Fore
SplineSet
0 502 m 1,0,1
 0 502 0 502 27 502 c 256,2,3
 54 502 54 502 0 502 c 1,4,5
 55 502 55 502 139 502 c 256,6,7
 224 502 224 502 279 502 c 2,8,9
 279 502 279 502 390 502 c 256,10,11
 502 502 502 502 560 502 c 1,12,13
 560 502 560 502 560 475 c 256,14,15
 560 448 560 448 560 390 c 1,16,17
 519 390 519 390 481 390 c 0,18,19
 446 390 446 390 112 390 c 1,20,21
 112 390 112 390 112 363 c 256,22,23
 112 336 112 336 112 279 c 0,24,25
 112 224 112 224 55 224 c 0,26,27
 0 224 0 224 0 279 c 0,28,29
 0 336 0 336 0 369 c 0,30,31
 0 398 0 398 0 502 c 1,0,1
115 -33 m 256,32,33
 104 -44 104 -44 87 -49 c 0,34,35
 71 -57 71 -57 55 -57 c 0,36,37
 41 -57 41 -57 25 -49 c 0,38,39
 9 -44 9 -44 -3 -33 c 256,40,41
 -14 -22 -14 -22 -22 -5 c 0,42,43
 -27 11 -27 11 -27 27 c 256,44,45
 -27 43 -27 43 -22 60 c 0,46,47
 -14 76 -14 76 -3 87 c 256,48,49
 8 98 8 98 25 104 c 0,50,51
 41 112 41 112 55 112 c 0,52,53
 71 112 71 112 87 104 c 0,54,55
 103 99 103 99 115 87 c 256,56,57
 126 76 126 76 134 60 c 0,58,59
 139 44 139 44 139 27 c 256,60,61
 139 11 139 11 134 -5 c 0,62,63
 126 -22 126 -22 115 -33 c 256,32,33
396 -33 m 0,64,65
 382 -44 382 -44 369 -49 c 0,66,67
 353 -57 353 -57 336 -57 c 256,68,69
 320 -57 320 -57 303 -49 c 0,70,71
 287 -44 287 -44 276 -33 c 0,72,73
 265 -19 265 -19 259 -5 c 0,74,75
 251 11 251 11 251 27 c 256,76,77
 251 43 251 43 259 60 c 0,78,79
 264 76 264 76 276 87 c 256,80,81
 287 98 287 98 303 106 c 0,82,83
 319 111 319 111 336 112 c 256,84,85
 352 112 352 112 369 106 c 0,86,87
 383 98 383 98 396 87 c 0,88,89
 407 76 407 76 412 60 c 0,90,91
 420 44 420 44 421 27 c 256,92,93
 421 11 421 11 412 -5 c 0,94,95
 407 -19 407 -19 396 -33 c 0,64,65
EndSplineSet
Validated: 5
Substitution2: "Single Substitution lookup 26 subtable" glyph291
Substitution2: "Single Substitution lookup 7 subtable" ks2.medi
Substitution2: "Single Substitution lookup 6 subtable" ks1.medi
EndChar

StartChar: k.medi
Encoding: 78 -1 78
Width: 559
VWidth: 2796
GlyphClass: 2
Flags: W
LayerCount: 2
Fore
SplineSet
0 502 m 1,0,1
 0 502 0 502 27 502 c 256,2,3
 54 502 54 502 0 502 c 1,4,5
 55 502 55 502 139 502 c 256,6,7
 224 502 224 502 279 502 c 2,8,9
 279 502 279 502 390 502 c 256,10,11
 502 502 502 502 560 502 c 1,12,13
 560 502 560 502 560 475 c 256,14,15
 560 448 560 448 560 390 c 1,16,17
 503 390 503 390 475 390 c 256,18,19
 448 390 448 390 390 390 c 1,20,21
 390 390 390 390 390 363 c 256,22,23
 390 336 390 336 390 279 c 0,24,25
 390 224 390 224 336 224 c 0,26,27
 279 224 279 224 279 279 c 0,28,29
 279 336 279 336 279 336 c 257,30,31
 279 336 279 336 279 390 c 1,32,33
 224 390 224 390 197 390 c 0,34,35
 167 390 167 390 112 390 c 1,36,37
 112 390 112 390 112 363 c 256,38,39
 112 336 112 336 112 279 c 0,40,41
 112 224 112 224 55 224 c 0,42,43
 0 224 0 224 0 279 c 0,44,45
 0 336 0 336 0 369 c 0,46,47
 0 398 0 398 0 502 c 1,0,1
115 -33 m 256,48,49
 104 -44 104 -44 87 -49 c 0,50,51
 71 -57 71 -57 55 -57 c 0,52,53
 41 -57 41 -57 25 -49 c 0,54,55
 9 -44 9 -44 -3 -33 c 256,56,57
 -14 -22 -14 -22 -22 -5 c 0,58,59
 -27 11 -27 11 -27 27 c 256,60,61
 -27 43 -27 43 -22 60 c 0,62,63
 -14 76 -14 76 -3 87 c 256,64,65
 8 98 8 98 25 104 c 0,66,67
 41 112 41 112 55 112 c 0,68,69
 71 112 71 112 87 104 c 0,70,71
 103 99 103 99 115 87 c 256,72,73
 126 76 126 76 134 60 c 0,74,75
 139 44 139 44 139 27 c 256,76,77
 139 11 139 11 134 -5 c 0,78,79
 126 -22 126 -22 115 -33 c 256,48,49
396 -33 m 0,80,81
 382 -44 382 -44 369 -49 c 0,82,83
 353 -57 353 -57 336 -57 c 256,84,85
 320 -57 320 -57 303 -49 c 0,86,87
 287 -44 287 -44 276 -33 c 0,88,89
 265 -19 265 -19 259 -5 c 0,90,91
 251 11 251 11 251 27 c 256,92,93
 251 43 251 43 259 60 c 0,94,95
 264 76 264 76 276 87 c 256,96,97
 287 98 287 98 303 106 c 0,98,99
 319 111 319 111 336 112 c 256,100,101
 352 112 352 112 369 106 c 0,102,103
 383 98 383 98 396 87 c 0,104,105
 407 76 407 76 412 60 c 0,106,107
 420 44 420 44 421 27 c 256,108,109
 421 11 421 11 412 -5 c 0,110,111
 407 -19 407 -19 396 -33 c 0,80,81
EndSplineSet
Validated: 5
Substitution2: "Single Substitution k g h" k1.medi
Substitution2: "Single Substitution lookup 26 subtable" glyph292
Substitution2: "Single Substitution lookup 12 subtable" k1.medi
Substitution2: "Single Substitution lookup 11 subtable" k1.medi
Substitution2: "Single Substitution lookup 10 subtable" k1.medi
Substitution2: "Single Substitution lookup 9 subtable" k1.medi
Substitution2: "Single Substitution lookup 8 subtable" k.medi
Substitution2: "Single Substitution lookup 7 subtable" k2.medi
Substitution2: "Single Substitution lookup 6 subtable" k1.medi
EndChar

StartChar: g.isol
Encoding: 79 6244 79
Width: 1062
VWidth: 2796
GlyphClass: 2
Flags: W
LayerCount: 2
Fore
SplineSet
0 502 m 0,0,1
 0 726 0 726 112 838 c 256,2,3
 224 950 224 950 448 950 c 256,4,5
 672 950 672 950 784 838 c 256,6,7
 896 726 896 726 896 502 c 1,8,9
 896 502 896 502 978 502 c 0,10,11
 1063 502 1063 502 1062 502 c 1,12,13
 1062 447 1062 447 1062 448 c 257,14,15
 1062 448 1062 448 1062 390 c 1,16,17
 1007 390 1007 390 950 390 c 0,18,19
 895 390 895 390 896 390 c 1,20,21
 896 335 896 335 896 336 c 257,22,23
 896 336 896 336 896 279 c 0,24,25
 896 224 896 224 838 224 c 0,26,27
 783 224 783 224 784 279 c 0,28,29
 784 391 784 391 784 421 c 0,30,31
 784 448 784 448 784 502 c 0,32,33
 784 671 784 671 699 754 c 0,34,35
 614 839 614 839 448 838 c 0,36,37
 279 838 279 838 197 754 c 0,38,39
 112 672 112 672 112 502 c 0,40,41
 112 447 112 447 55 448 c 0,42,43
 0 447 0 447 0 502 c 0,0,1
0 502 m 0,44,45
 224 502 224 502 336 390 c 256,46,47
 448 278 448 278 448 55 c 0,48,49
 448 0 448 0 390 0 c 0,50,51
 335 0 335 0 336 55 c 0,52,53
 336 224 336 224 251 309 c 0,54,55
 166 391 166 391 0 390 c 0,56,57
 -55 390 -55 390 -55 448 c 0,58,59
 -55 502 -55 502 0 502 c 0,44,45
1065 808 m 0,60,61
 1054 794 1054 794 1038 789 c 0,62,63
 1024 784 1024 784 1008 784 c 256,64,65
 992 784 992 784 975 789 c 256,66,67
 959 794 959 794 948 808 c 0,68,69
 937 819 937 819 928 836 c 0,70,71
 923 850 923 850 923 866 c 256,72,73
 923 882 923 882 928 898 c 0,74,75
 936 914 936 914 948 926 c 256,76,77
 959 937 959 937 975 945 c 0,78,79
 991 950 991 950 1008 950 c 256,80,81
 1024 950 1024 950 1038 945 c 0,82,83
 1054 937 1054 937 1065 926 c 0,84,85
 1079 915 1079 915 1084 898 c 256,86,87
 1089 882 1089 882 1090 866 c 256,88,89
 1090 850 1090 850 1084 836 c 0,90,91
 1079 819 1079 819 1065 808 c 0,60,61
EndSplineSet
Validated: 37
Substitution2: "Single Substitution k g h" g1.init
Substitution2: "'fina' Terminal Forms in Mongolian lookup 2 subtable" g.fina
Substitution2: "'medi' Medial Forms in Mongolian lookup 1 subtable" g.medi
Substitution2: "Required Feature in Latin lookup 0 subtable" g.init
EndChar

StartChar: g.medi
Encoding: 80 -1 80
Width: 559
VWidth: 2796
GlyphClass: 2
Flags: W
LayerCount: 2
Fore
SplineSet
0 502 m 1,0,1
 0 502 0 502 27 502 c 256,2,3
 54 502 54 502 0 502 c 1,4,5
 55 502 55 502 139 502 c 256,6,7
 224 502 224 502 279 502 c 2,8,9
 279 502 279 502 390 502 c 256,10,11
 502 502 502 502 560 502 c 1,12,13
 560 502 560 502 560 475 c 256,14,15
 560 448 560 448 560 390 c 1,16,17
 503 390 503 390 475 390 c 256,18,19
 448 390 448 390 390 390 c 1,20,21
 390 390 390 390 390 363 c 256,22,23
 390 336 390 336 390 279 c 0,24,25
 390 224 390 224 336 224 c 0,26,27
 279 224 279 224 279 279 c 0,28,29
 279 336 279 336 279 336 c 257,30,31
 279 336 279 336 279 390 c 1,32,33
 224 390 224 390 197 390 c 0,34,35
 167 390 167 390 112 390 c 1,36,37
 112 390 112 390 112 363 c 256,38,39
 112 336 112 336 112 279 c 0,40,41
 112 224 112 224 55 224 c 0,42,43
 0 224 0 224 0 279 c 0,44,45
 0 336 0 336 0 369 c 0,46,47
 0 398 0 398 0 502 c 1,0,1
396 808 m 0,48,49
 382 794 382 794 369 789 c 0,50,51
 353 784 353 784 336 784 c 256,52,53
 320 784 320 784 303 789 c 256,54,55
 287 794 287 794 276 808 c 0,56,57
 265 819 265 819 259 836 c 0,58,59
 251 850 251 850 251 866 c 256,60,61
 251 882 251 882 259 898 c 0,62,63
 264 914 264 914 276 926 c 256,64,65
 287 937 287 937 303 945 c 0,66,67
 319 950 319 950 336 950 c 256,68,69
 352 950 352 950 369 945 c 0,70,71
 383 937 383 937 396 926 c 0,72,73
 407 915 407 915 412 898 c 0,74,75
 420 882 420 882 421 866 c 256,76,77
 421 850 421 850 412 836 c 0,78,79
 407 819 407 819 396 808 c 0,48,49
EndSplineSet
Validated: 5
Substitution2: "Single Substitution k g h" g1.medi
Substitution2: "Single Substitution lookup 26 subtable" glyph293
Substitution2: "Single Substitution lookup 6 subtable" g1.medi
EndChar

StartChar: h.isol
Encoding: 81 6245 81
Width: 1062
VWidth: 2796
GlyphClass: 2
Flags: W
LayerCount: 2
Fore
SplineSet
0 502 m 0,0,1
 0 726 0 726 112 838 c 256,2,3
 224 950 224 950 448 950 c 256,4,5
 672 950 672 950 784 838 c 256,6,7
 896 726 896 726 896 502 c 1,8,9
 896 502 896 502 978 502 c 0,10,11
 1063 502 1063 502 1062 502 c 1,12,13
 1062 447 1062 447 1062 448 c 257,14,15
 1062 448 1062 448 1062 390 c 1,16,17
 1007 390 1007 390 950 390 c 0,18,19
 895 390 895 390 896 390 c 1,20,21
 896 335 896 335 896 336 c 257,22,23
 896 336 896 336 896 279 c 0,24,25
 896 224 896 224 838 224 c 0,26,27
 783 224 783 224 784 279 c 0,28,29
 784 391 784 391 784 421 c 0,30,31
 784 448 784 448 784 502 c 0,32,33
 784 671 784 671 699 754 c 0,34,35
 614 839 614 839 448 838 c 0,36,37
 279 838 279 838 197 754 c 0,38,39
 112 672 112 672 112 502 c 0,40,41
 112 447 112 447 55 448 c 0,42,43
 0 447 0 447 0 502 c 0,0,1
1182 721 m 0,44,45
 1157 696 1157 696 1128 683 c 0,46,47
 1095 672 1095 672 1062 672 c 256,48,49
 1029 672 1029 672 999 683 c 0,50,51
 966 697 966 697 945 721 c 0,52,53
 920 743 920 743 907 776 c 0,54,55
 896 806 896 806 896 838 c 256,56,57
 896 871 896 871 907 904 c 0,58,59
 921 934 921 934 945 958 c 0,60,61
 967 980 967 980 999 994 c 0,62,63
 1029 1008 1029 1008 1062 1008 c 256,64,65
 1095 1008 1095 1008 1128 994 c 0,66,67
 1158 980 1158 980 1182 958 c 0,68,69
 1204 933 1204 933 1218 904 c 0,70,71
 1232 871 1232 871 1232 838 c 256,72,73
 1232 805 1232 805 1218 776 c 0,74,75
 1204 743 1204 743 1182 721 c 0,44,45
1120 838 m 256,76,77
 1120 849 1120 849 1114 860 c 256,78,79
 1109 871 1109 871 1103 879 c 0,80,81
 1095 884 1095 884 1084 890 c 256,82,83
 1073 895 1073 895 1062 896 c 256,84,85
 1051 896 1051 896 1040 890 c 256,86,87
 1029 885 1029 885 1024 879 c 0,88,89
 1016 871 1016 871 1010 860 c 0,90,91
 1007 849 1007 849 1008 838 c 256,92,93
 1008 827 1008 827 1010 816 c 0,94,95
 1015 805 1015 805 1024 800 c 0,96,97
 1029 792 1029 792 1040 786 c 0,98,99
 1051 783 1051 783 1062 784 c 256,100,101
 1073 784 1073 784 1084 786 c 0,102,103
 1095 791 1095 791 1103 800 c 0,104,105
 1108 805 1108 805 1114 816 c 256,106,107
 1120 827 1120 827 1120 838 c 256,76,77
0 502 m 0,108,109
 224 502 224 502 336 390 c 256,110,111
 448 278 448 278 448 55 c 0,112,113
 448 0 448 0 390 0 c 0,114,115
 335 0 335 0 336 55 c 0,116,117
 336 224 336 224 251 309 c 0,118,119
 166 391 166 391 0 390 c 0,120,121
 -55 390 -55 390 -55 448 c 0,122,123
 -55 502 -55 502 0 502 c 0,108,109
EndSplineSet
Validated: 37
Substitution2: "Single Substitution k g h" h1.init
Substitution2: "'fina' Terminal Forms in Mongolian lookup 2 subtable" h.fina
Substitution2: "'medi' Medial Forms in Mongolian lookup 1 subtable" h.medi
Substitution2: "Required Feature in Latin lookup 0 subtable" h.init
EndChar

StartChar: h.medi
Encoding: 82 -1 82
Width: 559
VWidth: 2796
GlyphClass: 2
Flags: W
LayerCount: 2
Fore
SplineSet
0 502 m 1,0,1
 0 502 0 502 27 502 c 256,2,3
 54 502 54 502 0 502 c 1,4,5
 55 502 55 502 139 502 c 256,6,7
 224 502 224 502 279 502 c 2,8,9
 279 502 279 502 390 502 c 256,10,11
 502 502 502 502 560 502 c 1,12,13
 560 502 560 502 560 475 c 256,14,15
 560 448 560 448 560 390 c 1,16,17
 503 390 503 390 475 390 c 256,18,19
 448 390 448 390 390 390 c 1,20,21
 390 390 390 390 390 363 c 256,22,23
 390 336 390 336 390 279 c 0,24,25
 390 224 390 224 336 224 c 0,26,27
 279 224 279 224 279 279 c 0,28,29
 279 336 279 336 279 336 c 257,30,31
 279 336 279 336 279 390 c 1,32,33
 224 390 224 390 197 390 c 0,34,35
 167 390 167 390 112 390 c 1,36,37
 112 390 112 390 112 363 c 256,38,39
 112 336 112 336 112 279 c 0,40,41
 112 224 112 224 55 224 c 0,42,43
 0 224 0 224 0 279 c 0,44,45
 0 336 0 336 0 369 c 0,46,47
 0 398 0 398 0 502 c 1,0,1
453 721 m 0,48,49
 431 696 431 696 399 685 c 0,50,51
 369 671 369 671 336 672 c 256,52,53
 303 672 303 672 270 685 c 0,54,55
 240 696 240 696 216 721 c 0,56,57
 194 743 194 743 180 776 c 256,58,59
 166 809 166 809 167 838 c 0,60,61
 167 871 167 871 180 904 c 256,62,63
 194 937 194 937 216 958 c 0,64,65
 241 980 241 980 270 994 c 0,66,67
 303 1008 303 1008 336 1008 c 256,68,69
 369 1008 369 1008 399 994 c 0,70,71
 432 980 432 980 453 958 c 0,72,73
 478 936 478 936 492 904 c 0,74,75
 503 871 503 871 502 838 c 0,76,77
 502 808 502 808 492 776 c 0,78,79
 478 743 478 743 453 721 c 0,48,49
390 838 m 256,80,81
 390 849 390 849 388 860 c 0,82,83
 383 871 383 871 374 879 c 0,84,85
 369 887 369 887 358 890 c 0,86,87
 347 895 347 895 336 896 c 256,88,89
 325 896 325 896 314 890 c 0,90,91
 303 887 303 887 295 879 c 0,92,93
 290 871 290 871 284 860 c 256,94,95
 279 849 279 849 279 838 c 256,96,97
 279 827 279 827 284 816 c 0,98,99
 289 808 289 808 295 800 c 0,100,101
 303 792 303 792 314 786 c 0,102,103
 325 783 325 783 336 784 c 256,104,105
 347 784 347 784 358 786 c 0,106,107
 369 791 369 791 374 800 c 0,108,109
 382 808 382 808 388 816 c 0,110,111
 390 827 390 827 390 838 c 256,80,81
EndSplineSet
Validated: 37
Substitution2: "Single Substitution k g h" h1.medi
Substitution2: "Single Substitution lookup 26 subtable" glyph294
Substitution2: "Single Substitution lookup 6 subtable" h1.medi
EndChar

StartChar: kh.isol
Encoding: 83 6202 83
Width: 783
VWidth: 2796
GlyphClass: 2
Flags: W
LayerCount: 2
Fore
SplineSet
0 502 m 0,0,1
 0 726 0 726 112 838 c 256,2,3
 224 950 224 950 448 950 c 256,4,5
 672 950 672 950 784 838 c 256,6,7
 896 726 896 726 896 502 c 0,8,9
 896 447 896 447 896 448 c 257,10,11
 896 448 896 448 896 448 c 1,12,13
 896 391 896 391 838 390 c 0,14,15
 783 390 783 390 784 448 c 1,16,17
 784 448 784 448 784 448 c 257,18,19
 784 448 784 448 784 502 c 0,20,21
 784 671 784 671 699 754 c 0,22,23
 614 839 614 839 448 838 c 0,24,25
 279 838 279 838 197 754 c 0,26,27
 112 672 112 672 112 502 c 0,28,29
 112 447 112 447 112 279 c 0,30,31
 112 112 112 112 112 0 c 0,32,33
 112 -55 112 -55 55 -55 c 0,34,35
 0 -55 0 -55 0 0 c 256,36,37
 0 55 0 55 0 251 c 256,38,39
 0 447 0 447 0 502 c 0,0,1
112 336 m 0,40,41
 279 336 279 336 363 251 c 256,42,43
 448 166 448 166 448 0 c 0,44,45
 448 -55 448 -55 390 -55 c 0,46,47
 335 -55 335 -55 336 0 c 0,48,49
 336 112 336 112 279 167 c 0,50,51
 224 224 224 224 112 224 c 0,52,53
 55 224 55 224 55 279 c 0,54,55
 55 336 55 336 112 336 c 0,40,41
EndSplineSet
Validated: 37
Substitution2: "Single Substitution lookup 25 subtable" glyph295
Substitution2: "'fina' Terminal Forms in Mongolian lookup 2 subtable" kh.fina
Substitution2: "'medi' Medial Forms in Mongolian lookup 1 subtable" kh.medi
Substitution2: "Required Feature in Latin lookup 0 subtable" kh.init
EndChar

StartChar: k1.init
Encoding: 84 -1 84
Width: 783
VWidth: 2796
GlyphClass: 2
Flags: W
LayerCount: 2
Fore
SplineSet
0 502 m 0,0,1
 0 726 0 726 112 838 c 256,2,3
 224 950 224 950 448 950 c 256,4,5
 672 950 672 950 784 838 c 256,6,7
 896 726 896 726 896 502 c 0,8,9
 896 447 896 447 896 448 c 257,10,11
 896 448 896 448 896 448 c 1,12,13
 896 391 896 391 838 390 c 0,14,15
 783 390 783 390 784 448 c 1,16,17
 784 448 784 448 784 448 c 257,18,19
 784 448 784 448 784 502 c 0,20,21
 784 671 784 671 699 754 c 0,22,23
 614 839 614 839 448 838 c 0,24,25
 279 838 279 838 197 754 c 0,26,27
 112 672 112 672 112 502 c 0,28,29
 112 447 112 447 112 279 c 0,30,31
 112 112 112 112 112 0 c 0,32,33
 112 -55 112 -55 55 -55 c 0,34,35
 0 -55 0 -55 0 0 c 256,36,37
 0 55 0 55 0 251 c 256,38,39
 0 447 0 447 0 502 c 0,0,1
EndSplineSet
Validated: 37
Substitution2: "Single Substitution lookup 25 subtable" glyph296
EndChar

StartChar: k1.fina
Encoding: 85 -1 85
Width: 895
VWidth: 2796
GlyphClass: 2
Flags: W
LayerCount: 2
Fore
SplineSet
0 502 m 0,0,1
 0 726 0 726 112 838 c 256,2,3
 224 950 224 950 448 950 c 256,4,5
 672 950 672 950 784 838 c 256,6,7
 896 726 896 726 896 502 c 0,8,9
 896 447 896 447 896 448 c 257,10,11
 896 448 896 448 896 448 c 1,12,13
 896 391 896 391 838 390 c 0,14,15
 783 390 783 390 784 448 c 1,16,17
 784 448 784 448 784 448 c 257,18,19
 784 448 784 448 784 502 c 0,20,21
 784 671 784 671 699 754 c 0,22,23
 614 839 614 839 448 838 c 0,24,25
 279 838 279 838 197 754 c 0,26,27
 112 672 112 672 112 502 c 0,28,29
 112 447 112 447 112 279 c 0,30,31
 112 112 112 112 112 0 c 0,32,33
 112 -55 112 -55 55 -55 c 0,34,35
 0 -55 0 -55 0 0 c 256,36,37
 0 55 0 55 0 251 c 256,38,39
 0 447 0 447 0 502 c 0,0,1
896 55 m 0,40,41
 896 -166 896 -166 811 -279 c 256,42,43
 726 -391 726 -391 502 -390 c 0,44,45
 447 -390 447 -390 448 -336 c 0,46,47
 448 -279 448 -279 502 -279 c 0,48,49
 671 -279 671 -279 726 -197 c 0,50,51
 783 -112 783 -112 784 55 c 0,52,53
 784 118 784 118 784 199 c 0,54,55
 784 278 784 278 784 448 c 0,56,57
 784 503 784 503 838 502 c 0,58,59
 895 502 895 502 896 448 c 0,60,61
 896 391 896 391 896 251 c 256,62,63
 896 112 896 112 896 55 c 0,40,41
EndSplineSet
Validated: 37
EndChar

StartChar: kh.medi
Encoding: 86 -1 86
Width: 783
VWidth: 2796
GlyphClass: 2
Flags: W
LayerCount: 2
Fore
SplineSet
0 502 m 0,0,1
 0 726 0 726 112 838 c 256,2,3
 224 950 224 950 448 950 c 256,4,5
 672 950 672 950 784 838 c 256,6,7
 896 726 896 726 896 502 c 0,8,9
 896 447 896 447 896 448 c 257,10,11
 896 448 896 448 896 448 c 1,12,13
 896 391 896 391 838 390 c 0,14,15
 783 390 783 390 784 448 c 1,16,17
 784 448 784 448 784 448 c 257,18,19
 784 448 784 448 784 502 c 0,20,21
 784 671 784 671 699 754 c 0,22,23
 614 839 614 839 448 838 c 0,24,25
 279 838 279 838 197 754 c 0,26,27
 112 672 112 672 112 502 c 0,28,29
 112 447 112 447 112 279 c 0,30,31
 112 112 112 112 112 0 c 0,32,33
 112 -55 112 -55 55 -55 c 0,34,35
 0 -55 0 -55 0 0 c 256,36,37
 0 55 0 55 0 251 c 256,38,39
 0 447 0 447 0 502 c 0,0,1
112 336 m 0,40,41
 279 336 279 336 363 251 c 256,42,43
 448 166 448 166 448 0 c 0,44,45
 448 -55 448 -55 390 -55 c 0,46,47
 335 -55 335 -55 336 0 c 0,48,49
 336 112 336 112 279 167 c 0,50,51
 224 224 224 224 112 224 c 0,52,53
 55 224 55 224 55 279 c 0,54,55
 55 336 55 336 112 336 c 0,40,41
EndSplineSet
Validated: 37
Substitution2: "Single Substitution lookup 26 subtable" glyph307
Substitution2: "Single Substitution lookup 25 subtable" glyph301
EndChar

StartChar: k1.medi
Encoding: 87 -1 87
Width: 783
VWidth: 2796
GlyphClass: 2
Flags: W
LayerCount: 2
Fore
SplineSet
0 502 m 0,0,1
 0 726 0 726 112 838 c 256,2,3
 224 950 224 950 448 950 c 256,4,5
 672 950 672 950 784 838 c 256,6,7
 896 726 896 726 896 502 c 0,8,9
 896 447 896 447 896 448 c 257,10,11
 896 448 896 448 896 448 c 1,12,13
 896 391 896 391 838 390 c 0,14,15
 783 390 783 390 784 448 c 1,16,17
 784 448 784 448 784 448 c 257,18,19
 784 448 784 448 784 502 c 0,20,21
 784 671 784 671 699 754 c 0,22,23
 614 839 614 839 448 838 c 0,24,25
 279 838 279 838 197 754 c 0,26,27
 112 672 112 672 112 502 c 0,28,29
 112 447 112 447 112 279 c 0,30,31
 112 112 112 112 112 0 c 0,32,33
 112 -55 112 -55 55 -55 c 0,34,35
 0 -55 0 -55 0 0 c 256,36,37
 0 55 0 55 0 251 c 256,38,39
 0 447 0 447 0 502 c 0,0,1
EndSplineSet
Validated: 37
Substitution2: "Single Substitution lookup 28 subtable" glyph338
Substitution2: "Single Substitution lookup 26 subtable" glyph308
Substitution2: "Single Substitution lookup 25 subtable" glyph302
EndChar

StartChar: gh.isol
Encoding: 88 6252 88
Width: 783
VWidth: 2796
GlyphClass: 2
Flags: W
LayerCount: 2
Fore
SplineSet
0 502 m 0,0,1
 0 726 0 726 112 838 c 256,2,3
 224 950 224 950 448 950 c 256,4,5
 672 950 672 950 784 838 c 256,6,7
 896 726 896 726 896 502 c 0,8,9
 896 447 896 447 896 448 c 257,10,11
 896 448 896 448 896 448 c 1,12,13
 896 391 896 391 838 390 c 0,14,15
 783 390 783 390 784 448 c 1,16,17
 784 448 784 448 784 448 c 257,18,19
 784 448 784 448 784 502 c 0,20,21
 784 671 784 671 699 754 c 0,22,23
 614 839 614 839 448 838 c 0,24,25
 279 838 279 838 197 754 c 0,26,27
 112 672 112 672 112 502 c 0,28,29
 112 447 112 447 112 279 c 0,30,31
 112 112 112 112 112 0 c 0,32,33
 112 -55 112 -55 55 -55 c 0,34,35
 0 -55 0 -55 0 0 c 256,36,37
 0 55 0 55 0 251 c 256,38,39
 0 447 0 447 0 502 c 0,0,1
508 1141 m 0,40,41
 494 1130 494 1130 481 1125 c 0,42,43
 465 1117 465 1117 448 1117 c 256,44,45
 432 1117 432 1117 415 1125 c 0,46,47
 399 1130 399 1130 388 1141 c 0,48,49
 377 1155 377 1155 369 1171 c 0,50,51
 364 1185 364 1185 363 1201 c 256,52,53
 363 1217 363 1217 369 1234 c 0,54,55
 377 1250 377 1250 388 1262 c 256,56,57
 399 1273 399 1273 415 1281 c 0,58,59
 431 1286 431 1286 448 1286 c 256,60,61
 464 1286 464 1286 481 1281 c 0,62,63
 495 1273 495 1273 508 1262 c 0,64,65
 519 1251 519 1251 524 1234 c 0,66,67
 532 1218 532 1218 532 1201 c 256,68,69
 532 1185 532 1185 524 1171 c 0,70,71
 519 1155 519 1155 508 1141 c 0,40,41
EndSplineSet
Validated: 37
Substitution2: "Single Substitution lookup 25 subtable" glyph297
Substitution2: "'fina' Terminal Forms in Mongolian lookup 2 subtable" gh.fina
Substitution2: "'medi' Medial Forms in Mongolian lookup 1 subtable" gh.medi
Substitution2: "Required Feature in Latin lookup 0 subtable" gh.init
EndChar

StartChar: g1.init
Encoding: 89 -1 89
Width: 783
VWidth: 2796
GlyphClass: 2
Flags: W
LayerCount: 2
Fore
SplineSet
0 502 m 0,0,1
 0 726 0 726 112 838 c 256,2,3
 224 950 224 950 448 950 c 256,4,5
 672 950 672 950 784 838 c 256,6,7
 896 726 896 726 896 502 c 0,8,9
 896 447 896 447 896 448 c 257,10,11
 896 448 896 448 896 448 c 1,12,13
 896 391 896 391 838 390 c 0,14,15
 783 390 783 390 784 448 c 1,16,17
 784 448 784 448 784 448 c 257,18,19
 784 448 784 448 784 502 c 0,20,21
 784 671 784 671 699 754 c 0,22,23
 614 839 614 839 448 838 c 0,24,25
 279 838 279 838 197 754 c 0,26,27
 112 672 112 672 112 502 c 0,28,29
 112 447 112 447 112 279 c 0,30,31
 112 112 112 112 112 0 c 0,32,33
 112 -55 112 -55 55 -55 c 0,34,35
 0 -55 0 -55 0 0 c 256,36,37
 0 55 0 55 0 251 c 256,38,39
 0 447 0 447 0 502 c 0,0,1
508 1141 m 0,40,41
 494 1130 494 1130 481 1125 c 0,42,43
 465 1117 465 1117 448 1117 c 256,44,45
 432 1117 432 1117 415 1125 c 0,46,47
 399 1130 399 1130 388 1141 c 0,48,49
 377 1155 377 1155 369 1171 c 0,50,51
 364 1185 364 1185 363 1201 c 256,52,53
 363 1217 363 1217 369 1234 c 0,54,55
 377 1250 377 1250 388 1262 c 256,56,57
 399 1273 399 1273 415 1281 c 0,58,59
 431 1286 431 1286 448 1286 c 256,60,61
 464 1286 464 1286 481 1281 c 0,62,63
 495 1273 495 1273 508 1262 c 0,64,65
 519 1251 519 1251 524 1234 c 0,66,67
 532 1218 532 1218 532 1201 c 256,68,69
 532 1185 532 1185 524 1171 c 0,70,71
 519 1155 519 1155 508 1141 c 0,40,41
EndSplineSet
Validated: 37
Substitution2: "Single Substitution lookup 25 subtable" glyph298
EndChar

StartChar: gh.medi
Encoding: 90 -1 90
Width: 783
VWidth: 2796
GlyphClass: 2
Flags: W
LayerCount: 2
Fore
SplineSet
0 502 m 0,0,1
 0 726 0 726 112 838 c 256,2,3
 224 950 224 950 448 950 c 256,4,5
 672 950 672 950 784 838 c 256,6,7
 896 726 896 726 896 502 c 0,8,9
 896 447 896 447 896 448 c 257,10,11
 896 448 896 448 896 448 c 1,12,13
 896 391 896 391 838 390 c 0,14,15
 783 390 783 390 784 448 c 1,16,17
 784 448 784 448 784 448 c 257,18,19
 784 448 784 448 784 502 c 0,20,21
 784 671 784 671 699 754 c 0,22,23
 614 839 614 839 448 838 c 0,24,25
 279 838 279 838 197 754 c 0,26,27
 112 672 112 672 112 502 c 0,28,29
 112 447 112 447 112 279 c 0,30,31
 112 112 112 112 112 0 c 0,32,33
 112 -55 112 -55 55 -55 c 0,34,35
 0 -55 0 -55 0 0 c 256,36,37
 0 55 0 55 0 251 c 256,38,39
 0 447 0 447 0 502 c 0,0,1
508 1141 m 0,40,41
 494 1130 494 1130 481 1125 c 0,42,43
 465 1117 465 1117 448 1117 c 256,44,45
 432 1117 432 1117 415 1125 c 0,46,47
 399 1130 399 1130 388 1141 c 0,48,49
 377 1155 377 1155 369 1171 c 0,50,51
 364 1185 364 1185 363 1201 c 256,52,53
 363 1217 363 1217 369 1234 c 0,54,55
 377 1250 377 1250 388 1262 c 256,56,57
 399 1273 399 1273 415 1281 c 0,58,59
 431 1286 431 1286 448 1286 c 256,60,61
 464 1286 464 1286 481 1281 c 0,62,63
 495 1273 495 1273 508 1262 c 0,64,65
 519 1251 519 1251 524 1234 c 0,66,67
 532 1218 532 1218 532 1201 c 256,68,69
 532 1185 532 1185 524 1171 c 0,70,71
 519 1155 519 1155 508 1141 c 0,40,41
112 336 m 0,72,73
 279 336 279 336 363 251 c 256,74,75
 448 166 448 166 448 0 c 0,76,77
 448 -55 448 -55 390 -55 c 0,78,79
 335 -55 335 -55 336 0 c 0,80,81
 336 112 336 112 279 167 c 0,82,83
 224 224 224 224 112 224 c 0,84,85
 55 224 55 224 55 279 c 0,86,87
 55 336 55 336 112 336 c 0,72,73
EndSplineSet
Validated: 37
Substitution2: "Single Substitution lookup 26 subtable" glyph309
Substitution2: "Single Substitution lookup 25 subtable" glyph303
EndChar

StartChar: g1.medi
Encoding: 91 -1 91
Width: 783
VWidth: 2796
GlyphClass: 2
Flags: W
LayerCount: 2
Fore
SplineSet
0 502 m 0,0,1
 0 726 0 726 112 838 c 256,2,3
 224 950 224 950 448 950 c 256,4,5
 672 950 672 950 784 838 c 256,6,7
 896 726 896 726 896 502 c 0,8,9
 896 447 896 447 896 448 c 257,10,11
 896 448 896 448 896 448 c 1,12,13
 896 391 896 391 838 390 c 0,14,15
 783 390 783 390 784 448 c 1,16,17
 784 448 784 448 784 448 c 257,18,19
 784 448 784 448 784 502 c 0,20,21
 784 671 784 671 699 754 c 0,22,23
 614 839 614 839 448 838 c 0,24,25
 279 838 279 838 197 754 c 0,26,27
 112 672 112 672 112 502 c 0,28,29
 112 447 112 447 112 279 c 0,30,31
 112 112 112 112 112 0 c 0,32,33
 112 -55 112 -55 55 -55 c 0,34,35
 0 -55 0 -55 0 0 c 256,36,37
 0 55 0 55 0 251 c 256,38,39
 0 447 0 447 0 502 c 0,0,1
508 1141 m 0,40,41
 494 1130 494 1130 481 1125 c 0,42,43
 465 1117 465 1117 448 1117 c 256,44,45
 432 1117 432 1117 415 1125 c 0,46,47
 399 1130 399 1130 388 1141 c 0,48,49
 377 1155 377 1155 369 1171 c 0,50,51
 364 1185 364 1185 363 1201 c 256,52,53
 363 1217 363 1217 369 1234 c 0,54,55
 377 1250 377 1250 388 1262 c 256,56,57
 399 1273 399 1273 415 1281 c 0,58,59
 431 1286 431 1286 448 1286 c 256,60,61
 464 1286 464 1286 481 1281 c 0,62,63
 495 1273 495 1273 508 1262 c 0,64,65
 519 1251 519 1251 524 1234 c 0,66,67
 532 1218 532 1218 532 1201 c 256,68,69
 532 1185 532 1185 524 1171 c 0,70,71
 519 1155 519 1155 508 1141 c 0,40,41
EndSplineSet
Validated: 37
Substitution2: "Single Substitution lookup 26 subtable" glyph310
Substitution2: "Single Substitution lookup 25 subtable" glyph304
EndChar

StartChar: hh.isol
Encoding: 92 6253 92
Width: 783
VWidth: 2796
GlyphClass: 2
Flags: W
LayerCount: 2
Fore
SplineSet
0 502 m 0,0,1
 0 726 0 726 112 838 c 256,2,3
 224 950 224 950 448 950 c 256,4,5
 672 950 672 950 784 838 c 256,6,7
 896 726 896 726 896 502 c 0,8,9
 896 447 896 447 896 448 c 257,10,11
 896 448 896 448 896 448 c 1,12,13
 896 391 896 391 838 390 c 0,14,15
 783 390 783 390 784 448 c 1,16,17
 784 448 784 448 784 448 c 257,18,19
 784 448 784 448 784 502 c 0,20,21
 784 671 784 671 699 754 c 0,22,23
 614 839 614 839 448 838 c 0,24,25
 279 838 279 838 197 754 c 0,26,27
 112 672 112 672 112 502 c 0,28,29
 112 447 112 447 112 279 c 0,30,31
 112 112 112 112 112 0 c 0,32,33
 112 -55 112 -55 55 -55 c 0,34,35
 0 -55 0 -55 0 0 c 256,36,37
 0 55 0 55 0 251 c 256,38,39
 0 447 0 447 0 502 c 0,0,1
112 336 m 0,40,41
 279 336 279 336 363 251 c 256,42,43
 448 166 448 166 448 0 c 0,44,45
 448 -55 448 -55 390 -55 c 0,46,47
 335 -55 335 -55 336 0 c 0,48,49
 336 112 336 112 279 167 c 0,50,51
 224 224 224 224 112 224 c 0,52,53
 55 224 55 224 55 279 c 0,54,55
 55 336 55 336 112 336 c 0,40,41
565 1054 m 0,56,57
 543 1032 543 1032 511 1019 c 0,58,59
 481 1005 481 1005 448 1005 c 256,60,61
 415 1005 415 1005 382 1019 c 0,62,63
 352 1033 352 1033 328 1054 c 0,64,65
 306 1079 306 1079 292 1109 c 0,66,67
 278 1142 278 1142 279 1174 c 256,68,69
 279 1207 279 1207 292 1237 c 0,70,71
 306 1270 306 1270 328 1292 c 0,72,73
 353 1317 353 1317 382 1330 c 0,74,75
 415 1344 415 1344 448 1343 c 256,76,77
 481 1343 481 1343 511 1330 c 0,78,79
 544 1316 544 1316 565 1292 c 0,80,81
 590 1270 590 1270 603 1237 c 0,82,83
 614 1207 614 1207 614 1174 c 256,84,85
 614 1141 614 1141 603 1109 c 0,86,87
 590 1079 590 1079 565 1054 c 0,56,57
502 1174 m 256,88,89
 502 1185 502 1185 500 1196 c 0,90,91
 495 1207 495 1207 486 1212 c 0,92,93
 481 1220 481 1220 470 1226 c 0,94,95
 459 1229 459 1229 448 1229 c 256,96,97
 437 1229 437 1229 426 1226 c 0,98,99
 415 1221 415 1221 407 1212 c 0,100,101
 402 1207 402 1207 396 1196 c 256,102,103
 391 1185 391 1185 390 1174 c 256,104,105
 390 1163 390 1163 396 1152 c 256,106,107
 401 1141 401 1141 407 1133 c 0,108,109
 415 1128 415 1128 426 1122 c 256,110,111
 437 1117 437 1117 448 1117 c 256,112,113
 459 1117 459 1117 470 1122 c 256,114,115
 481 1127 481 1127 486 1133 c 0,116,117
 494 1141 494 1141 500 1152 c 0,118,119
 502 1163 502 1163 502 1174 c 256,88,89
EndSplineSet
Validated: 37
Substitution2: "Single Substitution lookup 25 subtable" glyph299
Substitution2: "'fina' Terminal Forms in Mongolian lookup 2 subtable" hh.fina
Substitution2: "'medi' Medial Forms in Mongolian lookup 1 subtable" hh.medi
Substitution2: "Required Feature in Latin lookup 0 subtable" hh.init
EndChar

StartChar: h1.init
Encoding: 93 -1 93
Width: 783
VWidth: 2796
GlyphClass: 2
Flags: W
LayerCount: 2
Fore
SplineSet
0 502 m 0,0,1
 0 726 0 726 112 838 c 256,2,3
 224 950 224 950 448 950 c 256,4,5
 672 950 672 950 784 838 c 256,6,7
 896 726 896 726 896 502 c 0,8,9
 896 447 896 447 896 448 c 257,10,11
 896 448 896 448 896 448 c 1,12,13
 896 391 896 391 838 390 c 0,14,15
 783 390 783 390 784 448 c 1,16,17
 784 448 784 448 784 448 c 257,18,19
 784 448 784 448 784 502 c 0,20,21
 784 671 784 671 699 754 c 0,22,23
 614 839 614 839 448 838 c 0,24,25
 279 838 279 838 197 754 c 0,26,27
 112 672 112 672 112 502 c 0,28,29
 112 447 112 447 112 279 c 0,30,31
 112 112 112 112 112 0 c 0,32,33
 112 -55 112 -55 55 -55 c 0,34,35
 0 -55 0 -55 0 0 c 256,36,37
 0 55 0 55 0 251 c 256,38,39
 0 447 0 447 0 502 c 0,0,1
565 1054 m 0,40,41
 543 1032 543 1032 511 1019 c 0,42,43
 481 1005 481 1005 448 1005 c 256,44,45
 415 1005 415 1005 382 1019 c 0,46,47
 352 1033 352 1033 328 1054 c 0,48,49
 306 1079 306 1079 292 1109 c 0,50,51
 278 1142 278 1142 279 1174 c 256,52,53
 279 1207 279 1207 292 1237 c 0,54,55
 306 1270 306 1270 328 1292 c 0,56,57
 353 1317 353 1317 382 1330 c 0,58,59
 415 1344 415 1344 448 1343 c 256,60,61
 481 1343 481 1343 511 1330 c 0,62,63
 544 1316 544 1316 565 1292 c 0,64,65
 590 1270 590 1270 603 1237 c 0,66,67
 614 1207 614 1207 614 1174 c 256,68,69
 614 1141 614 1141 603 1109 c 0,70,71
 590 1079 590 1079 565 1054 c 0,40,41
502 1174 m 256,72,73
 502 1185 502 1185 500 1196 c 0,74,75
 495 1207 495 1207 486 1212 c 0,76,77
 481 1220 481 1220 470 1226 c 0,78,79
 459 1229 459 1229 448 1229 c 256,80,81
 437 1229 437 1229 426 1226 c 0,82,83
 415 1221 415 1221 407 1212 c 0,84,85
 402 1207 402 1207 396 1196 c 256,86,87
 391 1185 391 1185 390 1174 c 256,88,89
 390 1163 390 1163 396 1152 c 256,90,91
 401 1141 401 1141 407 1133 c 0,92,93
 415 1128 415 1128 426 1122 c 256,94,95
 437 1117 437 1117 448 1117 c 256,96,97
 459 1117 459 1117 470 1122 c 256,98,99
 481 1127 481 1127 486 1133 c 0,100,101
 494 1141 494 1141 500 1152 c 0,102,103
 502 1163 502 1163 502 1174 c 256,72,73
EndSplineSet
Validated: 37
Substitution2: "Single Substitution lookup 25 subtable" glyph300
EndChar

StartChar: hh.medi
Encoding: 94 -1 94
Width: 447
VWidth: 2796
GlyphClass: 2
Flags: W
LayerCount: 2
Fore
SplineSet
0 502 m 0,0,1
 0 726 0 726 112 838 c 256,2,3
 224 950 224 950 448 950 c 256,4,5
 672 950 672 950 784 838 c 256,6,7
 896 726 896 726 896 502 c 0,8,9
 896 447 896 447 896 448 c 257,10,11
 896 448 896 448 896 448 c 1,12,13
 896 391 896 391 838 390 c 0,14,15
 783 390 783 390 784 448 c 1,16,17
 784 448 784 448 784 448 c 257,18,19
 784 448 784 448 784 502 c 0,20,21
 784 671 784 671 699 754 c 0,22,23
 614 839 614 839 448 838 c 0,24,25
 279 838 279 838 197 754 c 0,26,27
 112 672 112 672 112 502 c 0,28,29
 112 447 112 447 112 279 c 0,30,31
 112 112 112 112 112 0 c 0,32,33
 112 -55 112 -55 55 -55 c 0,34,35
 0 -55 0 -55 0 0 c 256,36,37
 0 55 0 55 0 251 c 256,38,39
 0 447 0 447 0 502 c 0,0,1
112 336 m 0,40,41
 279 336 279 336 363 251 c 256,42,43
 448 166 448 166 448 0 c 0,44,45
 448 -55 448 -55 390 -55 c 0,46,47
 335 -55 335 -55 336 0 c 0,48,49
 336 112 336 112 279 167 c 0,50,51
 224 224 224 224 112 224 c 0,52,53
 55 224 55 224 55 279 c 0,54,55
 55 336 55 336 112 336 c 0,40,41
565 1054 m 0,56,57
 543 1032 543 1032 511 1019 c 0,58,59
 481 1005 481 1005 448 1005 c 256,60,61
 415 1005 415 1005 382 1019 c 0,62,63
 352 1033 352 1033 328 1054 c 0,64,65
 306 1079 306 1079 292 1109 c 0,66,67
 278 1142 278 1142 279 1174 c 256,68,69
 279 1207 279 1207 292 1237 c 0,70,71
 306 1270 306 1270 328 1292 c 0,72,73
 353 1317 353 1317 382 1330 c 0,74,75
 415 1344 415 1344 448 1343 c 256,76,77
 481 1343 481 1343 511 1330 c 0,78,79
 544 1316 544 1316 565 1292 c 0,80,81
 590 1270 590 1270 603 1237 c 0,82,83
 614 1207 614 1207 614 1174 c 256,84,85
 614 1141 614 1141 603 1109 c 0,86,87
 590 1079 590 1079 565 1054 c 0,56,57
502 1174 m 256,88,89
 502 1185 502 1185 500 1196 c 0,90,91
 495 1207 495 1207 486 1212 c 0,92,93
 481 1220 481 1220 470 1226 c 0,94,95
 459 1229 459 1229 448 1229 c 256,96,97
 437 1229 437 1229 426 1226 c 0,98,99
 415 1221 415 1221 407 1212 c 0,100,101
 402 1207 402 1207 396 1196 c 256,102,103
 391 1185 391 1185 390 1174 c 256,104,105
 390 1163 390 1163 396 1152 c 256,106,107
 401 1141 401 1141 407 1133 c 0,108,109
 415 1128 415 1128 426 1122 c 256,110,111
 437 1117 437 1117 448 1117 c 256,112,113
 459 1117 459 1117 470 1122 c 256,114,115
 481 1127 481 1127 486 1133 c 0,116,117
 494 1141 494 1141 500 1152 c 0,118,119
 502 1163 502 1163 502 1174 c 256,88,89
EndSplineSet
Validated: 37
Substitution2: "Single Substitution lookup 26 subtable" glyph311
Substitution2: "Single Substitution lookup 25 subtable" glyph305
EndChar

StartChar: h1.medi
Encoding: 95 -1 95
Width: 783
VWidth: 2796
GlyphClass: 2
Flags: W
LayerCount: 2
Fore
SplineSet
0 502 m 0,0,1
 0 726 0 726 112 838 c 256,2,3
 224 950 224 950 448 950 c 256,4,5
 672 950 672 950 784 838 c 256,6,7
 896 726 896 726 896 502 c 0,8,9
 896 447 896 447 896 448 c 257,10,11
 896 448 896 448 896 448 c 1,12,13
 896 391 896 391 838 390 c 0,14,15
 783 390 783 390 784 448 c 1,16,17
 784 448 784 448 784 448 c 257,18,19
 784 448 784 448 784 502 c 0,20,21
 784 671 784 671 699 754 c 0,22,23
 614 839 614 839 448 838 c 0,24,25
 279 838 279 838 197 754 c 0,26,27
 112 672 112 672 112 502 c 0,28,29
 112 447 112 447 112 279 c 0,30,31
 112 112 112 112 112 0 c 0,32,33
 112 -55 112 -55 55 -55 c 0,34,35
 0 -55 0 -55 0 0 c 256,36,37
 0 55 0 55 0 251 c 256,38,39
 0 447 0 447 0 502 c 0,0,1
565 1054 m 0,40,41
 543 1032 543 1032 511 1019 c 0,42,43
 481 1005 481 1005 448 1005 c 256,44,45
 415 1005 415 1005 382 1019 c 0,46,47
 352 1033 352 1033 328 1054 c 0,48,49
 306 1079 306 1079 292 1109 c 0,50,51
 278 1142 278 1142 279 1174 c 256,52,53
 279 1207 279 1207 292 1237 c 0,54,55
 306 1270 306 1270 328 1292 c 0,56,57
 353 1317 353 1317 382 1330 c 0,58,59
 415 1344 415 1344 448 1343 c 256,60,61
 481 1343 481 1343 511 1330 c 0,62,63
 544 1316 544 1316 565 1292 c 0,64,65
 590 1270 590 1270 603 1237 c 0,66,67
 614 1207 614 1207 614 1174 c 256,68,69
 614 1141 614 1141 603 1109 c 0,70,71
 590 1079 590 1079 565 1054 c 0,40,41
502 1174 m 256,72,73
 502 1185 502 1185 500 1196 c 0,74,75
 495 1207 495 1207 486 1212 c 0,76,77
 481 1220 481 1220 470 1226 c 0,78,79
 459 1229 459 1229 448 1229 c 256,80,81
 437 1229 437 1229 426 1226 c 0,82,83
 415 1221 415 1221 407 1212 c 0,84,85
 402 1207 402 1207 396 1196 c 256,86,87
 391 1185 391 1185 390 1174 c 256,88,89
 390 1163 390 1163 396 1152 c 256,90,91
 401 1141 401 1141 407 1133 c 0,92,93
 415 1128 415 1128 426 1122 c 256,94,95
 437 1117 437 1117 448 1117 c 256,96,97
 459 1117 459 1117 470 1122 c 256,98,99
 481 1127 481 1127 486 1133 c 0,100,101
 494 1141 494 1141 500 1152 c 0,102,103
 502 1163 502 1163 502 1174 c 256,72,73
EndSplineSet
Validated: 37
Substitution2: "Single Substitution lookup 26 subtable" glyph312
Substitution2: "Single Substitution lookup 25 subtable" glyph306
EndChar

StartChar: dz.isol
Encoding: 96 6255 96
Width: 949
VWidth: 2796
GlyphClass: 2
Flags: W
LayerCount: 2
Fore
SplineSet
0 896 m 1,0,1
 0 896 0 896 123 885 c 0,2,3
 246 871 246 871 300 920 c 1,4,5
 428 789 428 789 552 666 c 256,6,7
 675 543 675 543 713 502 c 1,8,9
 770 502 770 502 833 502 c 256,10,11
 896 502 896 502 950 502 c 1,12,13
 950 467 950 467 950 390 c 1,14,15
 893 390 893 390 838 390 c 256,16,17
 783 390 783 390 784 390 c 257,18,19
 784 390 784 390 784 350 c 0,20,21
 784 306 784 306 784 279 c 0,22,23
 784 224 784 224 726 224 c 0,24,25
 671 224 671 224 672 279 c 0,26,27
 672 336 672 336 672 350 c 256,28,29
 672 364 672 364 672 390 c 1,30,31
 579 483 579 483 429 634 c 256,32,33
 279 784 279 784 224 838 c 0,34,35
 213 852 213 852 164 849 c 0,36,37
 112 846 112 846 112 838 c 0,38,39
 112 718 112 718 112 609 c 256,40,41
 112 500 112 500 112 448 c 0,42,43
 112 391 112 391 55 390 c 0,44,45
 0 390 0 390 0 448 c 0,46,47
 0 596 0 596 0 896 c 1,0,1
0 950 m 0,48,49
 112 950 112 950 224 950 c 256,50,51
 336 950 336 950 448 950 c 0,52,53
 503 950 503 950 502 896 c 0,54,55
 502 839 502 839 448 838 c 0,56,57
 298 838 298 838 0 838 c 0,58,59
 -55 838 -55 838 -55 896 c 0,60,61
 -55 950 -55 950 0 950 c 0,48,49
EndSplineSet
Validated: 37
Substitution2: "Single Substitution lookup 30 subtable" dz1.init
Substitution2: "'fina' Terminal Forms in Mongolian lookup 2 subtable" dz.fina
Substitution2: "'medi' Medial Forms in Mongolian lookup 1 subtable" dz.medi
Substitution2: "Required Feature in Latin lookup 0 subtable" dz.init
EndChar

StartChar: dz1.init
Encoding: 97 -1 97
Width: 729
VWidth: 2796
GlyphClass: 2
Flags: W
LayerCount: 2
Fore
SplineSet
0 896 m 1,0,1
 0 896 0 896 123 885 c 0,2,3
 246 871 246 871 300 920 c 1,4,5
 428 789 428 789 552 666 c 256,6,7
 675 543 675 543 713 502 c 0,8,9
 784 447 784 447 784 448 c 257,10,11
 784 448 784 448 726 390 c 1,12,13
 726 390 726 390 699 390 c 256,14,15
 672 390 672 390 672 390 c 1,16,17
 579 483 579 483 429 634 c 256,18,19
 279 784 279 784 224 838 c 0,20,21
 213 852 213 852 164 849 c 0,22,23
 112 846 112 846 112 838 c 0,24,25
 112 718 112 718 112 609 c 256,26,27
 112 500 112 500 112 448 c 0,28,29
 112 391 112 391 55 390 c 0,30,31
 0 390 0 390 0 448 c 0,32,33
 0 596 0 596 0 896 c 1,0,1
0 950 m 0,34,35
 112 950 112 950 224 950 c 256,36,37
 336 950 336 950 448 950 c 0,38,39
 503 950 503 950 502 896 c 0,40,41
 502 839 502 839 448 838 c 0,42,43
 298 838 298 838 0 838 c 0,44,45
 -55 838 -55 838 -55 896 c 0,46,47
 -55 950 -55 950 0 950 c 0,34,35
EndSplineSet
Validated: 37
EndChar

StartChar: dz.fina
Encoding: 98 -1 98
Width: 783
VWidth: 2796
GlyphClass: 2
Flags: W
LayerCount: 2
Fore
SplineSet
309 893 m 1,0,1
 364 833 364 833 410 776 c 0,2,3
 459 721 459 721 502 672 c 0,4,5
 537 631 537 631 568 598 c 0,6,7
 598 563 598 563 620 538 c 0,8,9
 645 513 645 513 658 522 c 0,10,11
 674 527 674 527 672 546 c 0,12,13
 672 625 672 625 672 674 c 0,14,15
 672 726 672 726 672 838 c 0,16,17
 672 895 672 895 726 896 c 0,18,19
 783 896 783 896 784 838 c 0,20,21
 784 502 784 502 784 461 c 0,22,23
 784 417 784 417 784 418 c 2,24,25
 781 358 781 358 729 344 c 256,26,27
 677 330 677 330 647 366 c 0,28,29
 617 393 617 393 579 434 c 256,30,31
 541 475 541 475 494 527 c 0,32,33
 390 642 390 642 276 770 c 0,34,35
 159 901 159 901 120 939 c 1,36,37
 224 950 224 950 265 923 c 0,38,39
 309 893 309 893 309 893 c 1,0,1
0 896 m 1,40,41
 35 896 35 896 74 896 c 0,42,43
 112 893 112 893 112 838 c 0,44,45
 112 718 112 718 112 524 c 0,46,47
 112 333 112 333 112 279 c 256,48,49
 112 224 112 224 55 224 c 0,50,51
 0 224 0 224 0 279 c 0,52,53
 0 484 0 484 0 896 c 1,40,41
0 950 m 0,54,55
 112 950 112 950 224 950 c 256,56,57
 336 950 336 950 448 950 c 0,58,59
 503 950 503 950 502 896 c 0,60,61
 502 839 502 839 448 838 c 0,62,63
 298 838 298 838 0 838 c 0,64,65
 -55 838 -55 838 -55 896 c 0,66,67
 -55 950 -55 950 0 950 c 0,54,55
EndSplineSet
Validated: 37
EndChar

StartChar: dz.medi
Encoding: 99 -1 99
Width: 950
VWidth: 2796
GlyphClass: 2
Flags: W
LayerCount: 2
Fore
SplineSet
0 896 m 1,0,1
 0 896 0 896 123 885 c 0,2,3
 246 871 246 871 300 920 c 1,4,5
 428 789 428 789 552 666 c 256,6,7
 675 543 675 543 713 502 c 1,8,9
 770 502 770 502 833 502 c 256,10,11
 896 502 896 502 950 502 c 1,12,13
 950 467 950 467 950 390 c 1,14,15
 893 390 893 390 838 390 c 256,16,17
 783 390 783 390 784 390 c 257,18,19
 784 390 784 390 784 350 c 0,20,21
 784 306 784 306 784 279 c 0,22,23
 784 224 784 224 726 224 c 0,24,25
 671 224 671 224 672 279 c 0,26,27
 672 336 672 336 672 350 c 256,28,29
 672 364 672 364 672 390 c 1,30,31
 579 483 579 483 429 634 c 256,32,33
 279 784 279 784 224 838 c 0,34,35
 213 852 213 852 164 849 c 0,36,37
 112 846 112 846 112 838 c 0,38,39
 112 718 112 718 112 524 c 0,40,41
 112 333 112 333 112 279 c 256,42,43
 112 224 112 224 55 224 c 0,44,45
 0 224 0 224 0 279 c 0,46,47
 0 484 0 484 0 896 c 1,0,1
0 950 m 0,48,49
 112 950 112 950 229 950 c 0,50,51
 349 950 349 950 448 950 c 0,52,53
 503 950 503 950 502 896 c 0,54,55
 502 839 502 839 448 838 c 0,56,57
 298 838 298 838 0 838 c 0,58,59
 -55 838 -55 838 -55 896 c 0,60,61
 -55 950 -55 950 0 950 c 0,48,49
EndSplineSet
Validated: 37
Substitution2: "Single Substitution lookup 30 subtable" dz1.medi
Substitution2: "Single Substitution lookup 26 subtable" glyph324
Substitution2: "Single Substitution lookup 6 subtable" dz1.medi
EndChar

StartChar: dz1.medi
Encoding: 100 -1 100
Width: 729
VWidth: 2796
GlyphClass: 2
Flags: W
LayerCount: 2
Fore
SplineSet
0 896 m 1,0,1
 0 896 0 896 123 885 c 0,2,3
 246 871 246 871 300 920 c 1,4,5
 428 789 428 789 552 666 c 256,6,7
 675 543 675 543 713 502 c 0,8,9
 784 447 784 447 784 448 c 257,10,11
 784 448 784 448 726 390 c 1,12,13
 726 390 726 390 699 390 c 256,14,15
 672 390 672 390 672 390 c 1,16,17
 579 483 579 483 429 634 c 256,18,19
 279 784 279 784 224 838 c 0,20,21
 213 852 213 852 164 849 c 0,22,23
 112 846 112 846 112 838 c 0,24,25
 112 718 112 718 112 524 c 0,26,27
 112 333 112 333 112 279 c 256,28,29
 112 224 112 224 55 224 c 0,30,31
 0 224 0 224 0 279 c 0,32,33
 0 484 0 484 0 896 c 1,0,1
0 950 m 0,34,35
 112 950 112 950 224 950 c 256,36,37
 336 950 336 950 448 950 c 0,38,39
 503 950 503 950 502 896 c 0,40,41
 502 839 502 839 448 838 c 0,42,43
 298 838 298 838 0 838 c 0,44,45
 -55 838 -55 838 -55 896 c 0,46,47
 -55 950 -55 950 0 950 c 0,34,35
EndSplineSet
Validated: 37
Substitution2: "Single Substitution lookup 26 subtable" glyph325
EndChar

StartChar: ts.isol
Encoding: 101 6254 101
Width: 950
VWidth: 2796
GlyphClass: 2
Flags: W
LayerCount: 2
Fore
SplineSet
0 896 m 1,0,1
 0 896 0 896 123 885 c 0,2,3
 246 871 246 871 300 920 c 1,4,5
 428 789 428 789 552 666 c 256,6,7
 675 543 675 543 713 502 c 1,8,9
 770 502 770 502 833 502 c 256,10,11
 896 502 896 502 950 502 c 1,12,13
 950 467 950 467 950 390 c 1,14,15
 893 390 893 390 838 390 c 256,16,17
 783 390 783 390 784 390 c 257,18,19
 784 390 784 390 784 350 c 0,20,21
 784 306 784 306 784 279 c 0,22,23
 784 224 784 224 726 224 c 0,24,25
 671 224 671 224 672 279 c 0,26,27
 672 336 672 336 672 350 c 256,28,29
 672 364 672 364 672 390 c 1,30,31
 579 483 579 483 429 634 c 256,32,33
 279 784 279 784 224 838 c 0,34,35
 213 852 213 852 164 849 c 0,36,37
 112 846 112 846 112 838 c 0,38,39
 112 718 112 718 112 609 c 256,40,41
 112 500 112 500 112 448 c 0,42,43
 112 391 112 391 55 390 c 0,44,45
 0 390 0 390 0 448 c 0,46,47
 0 596 0 596 0 896 c 1,0,1
0 950 m 0,48,49
 112 950 112 950 448 950 c 0,50,51
 503 950 503 950 502 896 c 0,52,53
 502 839 502 839 448 838 c 0,54,55
 298 838 298 838 0 838 c 0,56,57
 -55 838 -55 838 -55 896 c 0,58,59
 -55 950 -55 950 0 950 c 0,48,49
112 1062 m 0,60,61
 112 1119 112 1119 167 1120 c 0,62,63
 224 1120 224 1120 224 1062 c 0,64,65
 224 1007 224 1007 224 896 c 1,66,67
 197 896 197 896 112 896 c 1,68,69
 112 936 112 936 112 1062 c 0,60,61
EndSplineSet
Validated: 37
Substitution2: "'fina' Terminal Forms in Mongolian lookup 2 subtable" ts.fina
Substitution2: "'medi' Medial Forms in Mongolian lookup 1 subtable" ts.medi
Substitution2: "Required Feature in Latin lookup 0 subtable" ts.init
EndChar

StartChar: ts.medi
Encoding: 102 -1 102
Width: 950
VWidth: 2796
GlyphClass: 2
Flags: W
LayerCount: 2
Fore
SplineSet
0 896 m 1,0,1
 0 896 0 896 123 885 c 0,2,3
 246 871 246 871 300 920 c 1,4,5
 428 789 428 789 552 666 c 256,6,7
 675 543 675 543 713 502 c 1,8,9
 770 502 770 502 833 502 c 256,10,11
 896 502 896 502 950 502 c 1,12,13
 950 467 950 467 950 390 c 1,14,15
 893 390 893 390 838 390 c 256,16,17
 783 390 783 390 784 390 c 257,18,19
 784 390 784 390 784 350 c 0,20,21
 784 306 784 306 784 279 c 0,22,23
 784 224 784 224 726 224 c 0,24,25
 671 224 671 224 672 279 c 0,26,27
 672 336 672 336 672 350 c 256,28,29
 672 364 672 364 672 390 c 1,30,31
 579 483 579 483 429 634 c 256,32,33
 279 784 279 784 224 838 c 0,34,35
 213 852 213 852 164 849 c 0,36,37
 112 846 112 846 112 838 c 0,38,39
 112 718 112 718 112 524 c 0,40,41
 112 333 112 333 112 279 c 256,42,43
 112 224 112 224 55 224 c 0,44,45
 0 224 0 224 0 279 c 0,46,47
 0 484 0 484 0 896 c 1,0,1
0 950 m 0,48,49
 112 950 112 950 448 950 c 0,50,51
 503 950 503 950 502 896 c 0,52,53
 502 839 502 839 448 838 c 0,54,55
 298 838 298 838 0 838 c 0,56,57
 -55 838 -55 838 -55 896 c 0,58,59
 -55 950 -55 950 0 950 c 0,48,49
112 1062 m 0,60,61
 112 1119 112 1119 167 1120 c 0,62,63
 224 1120 224 1120 224 1062 c 0,64,65
 224 1007 224 1007 224 896 c 1,66,67
 197 896 197 896 112 896 c 1,68,69
 112 936 112 936 112 1062 c 0,60,61
EndSplineSet
Validated: 37
Substitution2: "Single Substitution lookup 26 subtable" glyph326
EndChar

StartChar: s.isol
Encoding: 103 6192 103
Width: 1007
VWidth: 2796
GlyphClass: 2
Flags: W
LayerCount: 2
Fore
SplineSet
0 1062 m 0,0,1
 0 1065 0 1065 0 1065 c 2,2,3
 0 1144 0 1144 66 1169 c 0,4,5
 93 1177 93 1177 117 1177 c 0,6,7
 150 1177 150 1177 175 1155 c 0,8,9
 303 1024 303 1024 516 784 c 256,10,11
 729 544 729 544 770 502 c 1,12,13
 825 502 825 502 887 502 c 256,14,15
 950 502 950 502 1008 502 c 1,16,17
 1008 467 1008 467 1008 390 c 1,18,19
 948 390 948 390 893 390 c 256,20,21
 838 390 838 390 838 390 c 257,22,23
 838 390 838 390 838 350 c 0,24,25
 838 306 838 306 838 279 c 0,26,27
 838 224 838 224 784 224 c 0,28,29
 727 224 727 224 726 279 c 0,30,31
 726 336 726 336 726 350 c 256,32,33
 726 364 726 364 726 390 c 1,34,35
 633 483 633 483 434 713 c 0,36,37
 232 940 232 940 177 994 c 0,38,39
 161 1013 161 1013 137 1008 c 256,40,41
 112 1003 112 1003 112 983 c 0,42,43
 112 863 112 863 112 680 c 0,44,45
 112 500 112 500 112 448 c 0,46,47
 112 391 112 391 55 390 c 0,48,49
 0 390 0 390 0 448 c 0,50,51
 0 652 0 652 0 1062 c 0,0,1
EndSplineSet
Validated: 1
Substitution2: "'fina' Terminal Forms in Mongolian lookup 2 subtable" s.fina
Substitution2: "'medi' Medial Forms in Mongolian lookup 1 subtable" s.medi
Substitution2: "Required Feature in Latin lookup 0 subtable" s.init
EndChar

StartChar: s.fina
Encoding: 104 -1 104
Width: 841
VWidth: 2796
GlyphClass: 2
Flags: W
LayerCount: 2
Fore
SplineSet
0 1062 m 0,0,1
 0 1065 0 1065 0 1065 c 2,2,3
 0 1144 0 1144 66 1169 c 0,4,5
 93 1177 93 1177 117 1177 c 0,6,7
 150 1177 150 1177 175 1155 c 0,8,9
 279 1049 279 1049 440 866 c 0,10,11
 598 683 598 683 677 593 c 0,12,13
 699 571 699 571 715 576 c 0,14,15
 729 581 729 581 729 603 c 0,16,17
 729 679 729 679 726 732 c 0,18,19
 726 784 726 784 726 896 c 0,20,21
 726 951 726 951 784 950 c 0,22,23
 839 950 839 950 838 896 c 0,24,25
 838 560 838 560 838 516 c 0,26,27
 838 475 838 475 838 475 c 2,28,29
 838 415 838 415 786 399 c 0,30,31
 734 385 734 385 702 421 c 0,32,33
 609 514 609 514 421 726 c 256,34,35
 233 939 233 939 177 994 c 0,36,37
 161 1013 161 1013 137 1008 c 256,38,39
 112 1003 112 1003 112 983 c 0,40,41
 112 863 112 863 112 598 c 256,42,43
 112 333 112 333 112 279 c 256,44,45
 112 224 112 224 55 224 c 0,46,47
 0 224 0 224 0 279 c 0,48,49
 0 540 0 540 0 1062 c 0,0,1
EndSplineSet
Validated: 33
EndChar

StartChar: s.medi
Encoding: 105 -1 105
Width: 1007
VWidth: 2796
GlyphClass: 2
Flags: W
LayerCount: 2
Fore
SplineSet
0 1062 m 0,0,1
 0 1065 0 1065 0 1065 c 2,2,3
 0 1144 0 1144 66 1169 c 0,4,5
 93 1177 93 1177 117 1177 c 0,6,7
 150 1177 150 1177 175 1155 c 0,8,9
 303 1024 303 1024 516 784 c 256,10,11
 729 544 729 544 770 502 c 1,12,13
 825 502 825 502 887 502 c 256,14,15
 950 502 950 502 1008 502 c 1,16,17
 1008 467 1008 467 1008 390 c 1,18,19
 948 390 948 390 893 390 c 256,20,21
 838 390 838 390 838 390 c 257,22,23
 838 390 838 390 838 350 c 0,24,25
 838 306 838 306 838 279 c 0,26,27
 838 224 838 224 784 224 c 0,28,29
 727 224 727 224 726 279 c 0,30,31
 726 336 726 336 726 350 c 256,32,33
 726 364 726 364 726 390 c 1,34,35
 633 483 633 483 434 713 c 0,36,37
 232 940 232 940 177 994 c 0,38,39
 161 1013 161 1013 137 1008 c 256,40,41
 112 1003 112 1003 112 983 c 0,42,43
 112 863 112 863 112 598 c 256,44,45
 112 333 112 333 112 279 c 256,46,47
 112 224 112 224 55 224 c 0,48,49
 0 224 0 224 0 279 c 0,50,51
 0 540 0 540 0 1062 c 0,0,1
EndSplineSet
Validated: 1
Substitution2: "Single Substitution lookup 26 subtable" glyph327
EndChar

StartChar: j.isol
Encoding: 106 6197 106
Width: 281
VWidth: 2796
GlyphClass: 2
Flags: W
LayerCount: 2
Fore
SplineSet
0 502 m 1,0,1
 55 502 55 502 139 502 c 256,2,3
 224 502 224 502 279 502 c 1,4,5
 279 447 279 447 279 448 c 257,6,7
 279 448 279 448 279 390 c 1,8,9
 224 390 224 390 183 390 c 0,10,11
 139 390 139 390 112 390 c 1,12,13
 112 335 112 335 112 180 c 256,14,15
 112 24 112 24 112 0 c 0,16,17
 112 -55 112 -55 55 -55 c 0,18,19
 0 -55 0 -55 0 0 c 0,20,21
 0 120 0 120 0 227 c 0,22,23
 0 336 0 336 0 390 c 0,24,25
 0 447 0 447 0 448 c 257,26,27
 0 447 0 447 0 502 c 1,0,1
EndSplineSet
Validated: 1
Substitution2: "'fina' Terminal Forms in Mongolian lookup 2 subtable" j.fina
Substitution2: "'medi' Medial Forms in Mongolian lookup 1 subtable" j.medi
Substitution2: "Required Feature in Latin lookup 0 subtable" j.init
EndChar

StartChar: j.medi
Encoding: 107 -1 107
Width: 445
VWidth: 2796
GlyphClass: 2
Flags: W
LayerCount: 2
Fore
SplineSet
448 502 m 1,0,1
 448 502 448 502 448 475 c 256,2,3
 448 448 448 448 448 390 c 1,4,5
 238 390 238 390 147 390 c 0,6,7
 54 390 54 390 0 390 c 1,8,9
 0 447 0 447 0 448 c 257,10,11
 0 448 0 448 0 502 c 1,12,13
 55 502 55 502 147 502 c 0,14,15
 238 502 238 502 448 502 c 1,0,1
-167 55 m 0,16,17
 0 55 0 55 85 139 c 0,18,19
 167 224 167 224 167 390 c 0,20,21
 167 502 167 502 167 456 c 256,22,23
 167 410 167 410 167 448 c 1,24,25
 205 448 205 448 279 448 c 1,26,27
 279 434 279 434 279 390 c 0,28,29
 279 166 279 166 167 55 c 0,30,31
 55 -54 55 -54 -167 -55 c 0,32,33
 -224 -55 -224 -55 -224 0 c 256,34,35
 -224 55 -224 55 -167 55 c 0,16,17
EndSplineSet
Validated: 37
EndChar

StartChar: c.isol
Encoding: 108 6196 108
Width: 671
VWidth: 2796
GlyphClass: 2
Flags: W
LayerCount: 2
Fore
SplineSet
672 502 m 128,-1,1
 672 502 672 502 672 440 c 4,2,3
 672 394 672 394 672 390 c 4,4,5
 462 390 462 390 259 390 c 0,6,7
 54 390 54 390 0 390 c 256,8,9
 -55 390 -55 390 -55 447.5 c 128,-1,10
 -55 505 -55 505 0 502 c 256,11,12
 259 499 259 499 259 502 c 0,13,14
 672 502 672 502 672 502 c 128,-1,1
279 55 m 0,15,16
 336 55 336 55 363 85 c 0,17,18
 390 112 390 112 390 167 c 0,19,20
 390 279 390 279 390 344 c 256,21,22
 390 410 390 410 390 448 c 1,23,24
 428 448 428 448 502 448 c 1,25,26
 502 377 502 377 502 167 c 0,27,28
 502 55 502 55 448 0 c 0,29,30
 391 -55 391 -55 279 -55 c 0,31,32
 186 -55 186 -55 0 -55 c 0,33,34
 -55 -55 -55 -55 -55 0 c 256,35,36
 -55 55 -55 55 0 55 c 0,37,38
 85 55 85 55 153 55 c 0,39,40
 224 55 224 55 279 55 c 0,15,16
EndSplineSet
Validated: 37
Substitution2: "'fina' Terminal Forms in Mongolian lookup 2 subtable" c.fina
Substitution2: "'medi' Medial Forms in Mongolian lookup 1 subtable" c.medi
Substitution2: "Required Feature in Latin lookup 0 subtable" c.init
EndChar

StartChar: c.medi
Encoding: 109 -1 109
Width: 671
VWidth: 2796
GlyphClass: 2
Flags: W
LayerCount: 2
Fore
SplineSet
672 502 m 0,0,1
 672 447 672 447 672 448 c 0,2,3
 672 391 672 391 672 390 c 0,4,5
 462 390 462 390 259 390 c 0,6,7
 54 390 54 390 0 390 c 256,8,9
 -55 390 -55 390 -55 448 c 0,10,11
 -55 503 -55 503 0 502 c 256,12,13
 55 502 55 502 259 502 c 0,14,15
 672 502 672 502 672 502 c 0,0,1
279 55 m 0,16,17
 336 55 336 55 363 85 c 0,18,19
 390 112 390 112 390 167 c 0,20,21
 390 279 390 279 390 344 c 256,22,23
 390 410 390 410 390 448 c 1,24,25
 428 448 428 448 502 448 c 1,26,27
 502 377 502 377 502 167 c 0,28,29
 502 55 502 55 448 0 c 0,30,31
 391 -55 391 -55 279 -55 c 0,32,33
 186 -55 186 -55 0 -55 c 0,34,35
 -55 -55 -55 -55 -55 0 c 256,36,37
 -55 55 -55 55 0 55 c 0,38,39
 85 55 85 55 153 55 c 0,40,41
 224 55 224 55 279 55 c 0,16,17
EndSplineSet
Validated: 37
EndChar

StartChar: x.isol
Encoding: 110 6247 110
Width: 1062
VWidth: 2796
GlyphClass: 2
Flags: W
LayerCount: 2
Fore
SplineSet
0 1084 m 0,0,1
 0 1087 0 1087 0 1090 c 0,2,3
 -3 1166 -3 1166 66 1191 c 0,4,5
 93 1202 93 1202 115 1201 c 0,6,7
 150 1201 150 1201 175 1177 c 0,8,9
 303 1046 303 1046 543 795 c 0,10,11
 786 544 786 544 825 502 c 1,12,13
 880 502 880 502 945 502 c 0,14,15
 1008 502 1008 502 1062 502 c 1,16,17
 1062 467 1062 467 1062 390 c 1,18,19
 1007 390 1007 390 950 390 c 0,20,21
 895 390 895 390 896 390 c 257,22,23
 896 390 896 390 896 350 c 0,24,25
 896 306 896 306 896 279 c 0,26,27
 896 224 896 224 838 224 c 0,28,29
 783 224 783 224 784 279 c 0,30,31
 784 336 784 336 784 350 c 256,32,33
 784 364 784 364 784 390 c 1,34,35
 691 483 691 483 461 724 c 0,36,37
 232 962 232 962 175 1016 c 0,38,39
 159 1038 159 1038 137 1032 c 0,40,41
 112 1027 112 1027 112 1008 c 0,42,43
 112 885 112 885 112 721 c 0,44,45
 112 554 112 554 112 502 c 0,46,47
 112 447 112 447 85 448 c 0,48,49
 55 448 55 448 0 390 c 1,50,51
 0 623 0 623 0 1084 c 0,0,1
0 502 m 1,52,53
 224 502 224 502 336 390 c 256,54,55
 448 278 448 278 448 55 c 0,56,57
 448 0 448 0 390 0 c 0,58,59
 335 0 335 0 336 55 c 0,60,61
 336 224 336 224 251 309 c 0,62,63
 166 391 166 391 0 390 c 1,64,65
 0 447 0 447 0 448 c 257,66,67
 0 447 0 447 0 502 c 1,52,53
EndSplineSet
Validated: 37
Substitution2: "'fina' Terminal Forms in Mongolian lookup 2 subtable" x.fina
Substitution2: "'medi' Medial Forms in Mongolian lookup 1 subtable" x.medi
Substitution2: "Required Feature in Latin lookup 0 subtable" x.init
EndChar

StartChar: x.fina
Encoding: 111 -1 111
Width: 841
VWidth: 2796
GlyphClass: 2
Flags: W
LayerCount: 2
Fore
SplineSet
0 1062 m 0,0,1
 0 1065 0 1065 0 1065 c 2,2,3
 0 1144 0 1144 66 1169 c 0,4,5
 93 1177 93 1177 117 1177 c 0,6,7
 150 1177 150 1177 175 1155 c 0,8,9
 279 1049 279 1049 440 866 c 0,10,11
 598 683 598 683 677 593 c 0,12,13
 699 571 699 571 715 576 c 0,14,15
 729 581 729 581 729 603 c 0,16,17
 729 679 729 679 726 732 c 0,18,19
 726 784 726 784 726 896 c 0,20,21
 726 951 726 951 784 950 c 0,22,23
 839 950 839 950 838 896 c 0,24,25
 838 560 838 560 838 516 c 0,26,27
 838 475 838 475 838 475 c 2,28,29
 838 415 838 415 786 399 c 0,30,31
 734 385 734 385 702 421 c 0,32,33
 609 514 609 514 421 726 c 256,34,35
 233 939 233 939 177 994 c 0,36,37
 161 1013 161 1013 137 1008 c 256,38,39
 112 1003 112 1003 112 983 c 0,40,41
 112 863 112 863 112 598 c 256,42,43
 112 333 112 333 112 279 c 256,44,45
 112 224 112 224 55 224 c 0,46,47
 0 224 0 224 0 279 c 0,48,49
 0 540 0 540 0 1062 c 0,0,1
0 502 m 1,50,51
 224 502 224 502 336 390 c 256,52,53
 448 278 448 278 448 55 c 0,54,55
 448 0 448 0 390 0 c 0,56,57
 335 0 335 0 336 55 c 0,58,59
 336 224 336 224 251 309 c 0,60,61
 166 391 166 391 0 390 c 1,62,63
 0 447 0 447 0 448 c 257,64,65
 0 447 0 447 0 502 c 1,50,51
EndSplineSet
Validated: 37
EndChar

StartChar: x.medi
Encoding: 112 -1 112
Width: 1062
VWidth: 2796
GlyphClass: 2
Flags: W
LayerCount: 2
Fore
SplineSet
0 1084 m 0,0,1
 0 1087 0 1087 0 1090 c 0,2,3
 -3 1166 -3 1166 66 1191 c 0,4,5
 93 1202 93 1202 115 1201 c 0,6,7
 150 1201 150 1201 175 1177 c 0,8,9
 303 1046 303 1046 543 795 c 0,10,11
 786 544 786 544 825 502 c 1,12,13
 880 502 880 502 945 502 c 0,14,15
 1008 502 1008 502 1062 502 c 1,16,17
 1062 467 1062 467 1062 390 c 1,18,19
 1007 390 1007 390 950 390 c 0,20,21
 895 390 895 390 896 390 c 257,22,23
 896 390 896 390 896 350 c 0,24,25
 896 306 896 306 896 279 c 0,26,27
 896 224 896 224 838 224 c 0,28,29
 783 224 783 224 784 279 c 0,30,31
 784 336 784 336 784 350 c 256,32,33
 784 364 784 364 784 390 c 1,34,35
 691 483 691 483 461 724 c 0,36,37
 232 962 232 962 175 1016 c 0,38,39
 159 1038 159 1038 137 1032 c 0,40,41
 112 1027 112 1027 112 1008 c 0,42,43
 112 503 112 503 112 448 c 0,44,45
 112 391 112 391 112 279 c 0,46,47
 112 224 112 224 55 224 c 0,48,49
 0 224 0 224 0 279 c 0,50,51
 0 549 0 549 0 1084 c 0,0,1
0 502 m 1,52,53
 224 502 224 502 336 390 c 256,54,55
 448 278 448 278 448 55 c 0,56,57
 448 0 448 0 390 0 c 0,58,59
 335 0 335 0 336 55 c 0,60,61
 336 224 336 224 251 309 c 0,62,63
 166 391 166 391 0 390 c 1,64,65
 0 447 0 447 0 448 c 257,66,67
 0 447 0 447 0 502 c 1,52,53
EndSplineSet
Validated: 37
Substitution2: "Single Substitution lookup 26 subtable" glyph328
EndChar

StartChar: rh.isol
Encoding: 113 6256 113
Width: 281
VWidth: 2796
GlyphClass: 2
Flags: W
LayerCount: 2
Fore
SplineSet
0 0 m 0,0,1
 0 -55 0 -55 55 -55 c 0,2,3
 112 -55 112 -55 112 0 c 0,4,5
 112 298 112 298 112 896 c 0,6,7
 112 951 112 951 55 950 c 0,8,9
 0 950 0 950 0 896 c 0,10,11
 0 595 0 595 0 0 c 0,0,1
55 390 m 1,12,13
 112 390 112 390 279 390 c 1,14,15
 279 420 279 420 279 502 c 1,16,17
 224 502 224 502 55 502 c 1,18,19
 55 475 55 475 55 390 c 1,12,13
EndSplineSet
Validated: 37
Substitution2: "'fina' Terminal Forms in Mongolian lookup 2 subtable" rh.fina
Substitution2: "'medi' Medial Forms in Mongolian lookup 1 subtable" rh.medi
Substitution2: "Required Feature in Latin lookup 0 subtable" rh.init
EndChar

StartChar: rh.medi
Encoding: 114 -1 114
Width: 281
VWidth: 2796
GlyphClass: 2
Flags: W
LayerCount: 2
Fore
SplineSet
0 0 m 0,0,1
 0 -55 0 -55 55 -55 c 0,2,3
 112 -55 112 -55 112 0 c 0,4,5
 112 298 112 298 112 896 c 0,6,7
 112 951 112 951 55 950 c 0,8,9
 0 950 0 950 0 896 c 0,10,11
 0 595 0 595 0 0 c 0,0,1
55 390 m 1,12,13
 112 390 112 390 279 390 c 1,14,15
 279 420 279 420 279 502 c 1,16,17
 224 502 224 502 55 502 c 1,18,19
 55 475 55 475 55 390 c 1,12,13
EndSplineSet
Validated: 37
EndChar

StartChar: r.isol
Encoding: 115 6261 115
Width: 447
VWidth: 2796
GlyphClass: 2
Flags: W
LayerCount: 2
Fore
SplineSet
0 502 m 1,0,1
 55 502 55 502 224 502 c 0,2,3
 391 502 391 502 448 502 c 1,4,5
 448 447 448 447 448 448 c 257,6,7
 448 448 448 448 448 390 c 1,8,9
 391 390 391 390 265 390 c 256,10,11
 139 390 139 390 112 390 c 1,12,13
 112 335 112 335 112 180 c 256,14,15
 112 24 112 24 112 0 c 0,16,17
 112 -55 112 -55 55 -55 c 0,18,19
 0 -55 0 -55 0 0 c 0,20,21
 0 120 0 120 0 227 c 0,22,23
 0 336 0 336 0 390 c 0,24,25
 0 447 0 447 0 448 c 257,26,27
 0 447 0 447 0 502 c 1,0,1
112 224 m 0,28,29
 279 224 279 224 363 139 c 256,30,31
 448 54 448 54 448 -112 c 0,32,33
 448 -167 448 -167 390 -167 c 0,34,35
 335 -167 335 -167 336 -112 c 0,36,37
 336 0 336 0 279 55 c 0,38,39
 224 112 224 112 112 112 c 0,40,41
 55 112 55 112 55 167 c 0,42,43
 55 224 55 224 112 224 c 0,28,29
EndSplineSet
Validated: 37
Substitution2: "'fina' Terminal Forms in Mongolian lookup 2 subtable" r.fina
Substitution2: "'medi' Medial Forms in Mongolian lookup 1 subtable" r.medi
Substitution2: "Required Feature in Latin lookup 0 subtable" r.init
EndChar

StartChar: rs.fina
Encoding: 116 -1 116
Width: 895
VWidth: 2796
GlyphClass: 2
Flags: W
LayerCount: 2
Fore
SplineSet
0 502 m 0,0,1
 0 726 0 726 112 838 c 256,2,3
 224 950 224 950 448 950 c 256,4,5
 672 950 672 950 784 838 c 256,6,7
 896 726 896 726 896 502 c 0,8,9
 896 447 896 447 896 448 c 257,10,11
 896 448 896 448 896 448 c 1,12,13
 896 391 896 391 838 390 c 0,14,15
 783 390 783 390 784 448 c 1,16,17
 784 448 784 448 784 448 c 257,18,19
 784 448 784 448 784 502 c 0,20,21
 784 671 784 671 699 754 c 0,22,23
 614 839 614 839 448 838 c 0,24,25
 279 838 279 838 197 754 c 0,26,27
 112 672 112 672 112 502 c 0,28,29
 112 447 112 447 112 279 c 0,30,31
 112 112 112 112 112 0 c 0,32,33
 112 -55 112 -55 55 -55 c 0,34,35
 0 -55 0 -55 0 0 c 256,36,37
 0 55 0 55 0 251 c 256,38,39
 0 447 0 447 0 502 c 0,0,1
112 279 m 0,40,41
 279 279 279 279 363 197 c 0,42,43
 448 112 448 112 448 -55 c 0,44,45
 448 -112 448 -112 390 -112 c 0,46,47
 335 -112 335 -112 336 -55 c 0,48,49
 336 54 336 54 279 112 c 0,50,51
 224 167 224 167 112 167 c 0,52,53
 55 167 55 167 55 224 c 0,54,55
 55 279 55 279 112 279 c 0,40,41
EndSplineSet
Validated: 37
EndChar

StartChar: r.fina
Encoding: 117 -1 117
Width: 729
VWidth: 2796
GlyphClass: 2
Flags: W
LayerCount: 2
Fore
SplineSet
0 502 m 1,0,1
 55 502 55 502 224 502 c 0,2,3
 391 502 391 502 448 502 c 1,4,5
 448 447 448 447 448 448 c 257,6,7
 448 448 448 448 448 390 c 1,8,9
 391 390 391 390 265 390 c 256,10,11
 139 390 139 390 112 390 c 1,12,13
 112 335 112 335 112 180 c 256,14,15
 112 24 112 24 112 0 c 0,16,17
 112 -55 112 -55 55 -55 c 0,18,19
 0 -55 0 -55 0 0 c 0,20,21
 0 120 0 120 0 227 c 0,22,23
 0 336 0 336 0 390 c 0,24,25
 0 447 0 447 0 448 c 257,26,27
 0 447 0 447 0 502 c 1,0,1
112 224 m 0,28,29
 279 224 279 224 363 139 c 256,30,31
 448 54 448 54 448 -112 c 0,32,33
 448 -167 448 -167 390 -167 c 0,34,35
 335 -167 335 -167 336 -112 c 0,36,37
 336 0 336 0 279 55 c 0,38,39
 224 112 224 112 112 112 c 0,40,41
 55 112 55 112 55 167 c 0,42,43
 55 224 55 224 112 224 c 0,28,29
448 502 m 0,44,45
 672 502 672 502 784 390 c 256,46,47
 896 278 896 278 896 55 c 0,48,49
 896 0 896 0 838 0 c 0,50,51
 783 0 783 0 784 55 c 0,52,53
 784 224 784 224 699 309 c 0,54,55
 614 391 614 391 448 390 c 0,56,57
 391 390 391 390 390 448 c 0,58,59
 391 502 391 502 448 502 c 0,44,45
EndSplineSet
Validated: 37
EndChar

StartChar: r.medi
Encoding: 118 -1 118
Width: 447
VWidth: 2796
GlyphClass: 2
Flags: W
LayerCount: 2
Fore
SplineSet
0 502 m 1,0,1
 55 502 55 502 224 502 c 0,2,3
 391 502 391 502 448 502 c 1,4,5
 448 447 448 447 448 448 c 257,6,7
 448 448 448 448 448 390 c 1,8,9
 391 390 391 390 265 390 c 256,10,11
 139 390 139 390 112 390 c 1,12,13
 112 335 112 335 112 180 c 256,14,15
 112 24 112 24 112 0 c 0,16,17
 112 -55 112 -55 55 -55 c 0,18,19
 0 -55 0 -55 0 0 c 0,20,21
 0 120 0 120 0 227 c 0,22,23
 0 336 0 336 0 390 c 0,24,25
 0 447 0 447 0 448 c 257,26,27
 0 447 0 447 0 502 c 1,0,1
112 224 m 0,28,29
 279 224 279 224 363 139 c 256,30,31
 448 54 448 54 448 -112 c 0,32,33
 448 -167 448 -167 390 -167 c 0,34,35
 335 -167 335 -167 336 -112 c 0,36,37
 336 0 336 0 279 55 c 0,38,39
 224 112 224 112 112 112 c 0,40,41
 55 112 55 112 55 167 c 0,42,43
 55 224 55 224 112 224 c 0,28,29
EndSplineSet
Validated: 37
Substitution2: "Single Substitution lookup 26 subtable" glyph333
EndChar

StartChar: y.isol
Encoding: 119 6198 119
Width: 505
VWidth: 2796
GlyphClass: 2
Flags: W
LayerCount: 2
Fore
SplineSet
224 502 m 1,0,1
 279 502 279 502 363 502 c 256,2,3
 448 502 448 502 502 502 c 1,4,5
 502 447 502 447 502 448 c 257,6,7
 502 448 502 448 502 390 c 1,8,9
 447 390 447 390 407 390 c 0,10,11
 363 390 363 390 336 390 c 1,12,13
 336 335 336 335 336 139 c 0,14,15
 336 -55 336 -55 336 -167 c 256,16,17
 336 -279 336 -279 279 -336 c 0,18,19
 224 -391 224 -391 112 -390 c 0,20,21
 55 -390 55 -390 57 -390 c 1,22,23
 57 -390 57 -390 0 -390 c 0,24,25
 -55 -390 -55 -390 -55 -336 c 0,26,27
 -55 -279 -55 -279 0 -279 c 256,28,29
 55 -279 55 -279 55 -279 c 257,30,31
 55 -279 55 -279 112 -279 c 0,32,33
 167 -279 167 -279 197 -251 c 0,34,35
 224 -224 224 -224 224 -167 c 0,36,37
 224 103 224 103 224 208 c 0,38,39
 224 308 224 308 224 502 c 1,0,1
EndSplineSet
Validated: 33
Substitution2: "Single Subs wide y-1" y.long
Substitution2: "'fina' Terminal Forms in Mongolian lookup 2 subtable" y.fina
Substitution2: "'medi' Medial Forms in Mongolian lookup 1 subtable" y.medi
Substitution2: "Required Feature in Latin lookup 0 subtable" y.init
EndChar

StartChar: y.medi
Encoding: 120 -1 120
Width: 281
VWidth: 2796
GlyphClass: 2
Flags: W
LayerCount: 2
Fore
SplineSet
0 502 m 1,0,1
 55 502 55 502 139 502 c 256,2,3
 224 502 224 502 279 502 c 1,4,5
 279 447 279 447 279 448 c 257,6,7
 279 448 279 448 279 390 c 1,8,9
 224 390 224 390 183 390 c 0,10,11
 139 390 139 390 112 390 c 1,12,13
 112 335 112 335 112 139 c 0,14,15
 112 -55 112 -55 112 -167 c 256,16,17
 112 -279 112 -279 55 -336 c 0,18,19
 0 -391 0 -391 -112 -390 c 0,20,21
 -167 -390 -167 -390 -167 -390 c 257,22,23
 -167 -390 -167 -390 -224 -390 c 0,24,25
 -279 -390 -279 -390 -279 -336 c 0,26,27
 -279 -279 -279 -279 -224 -279 c 0,28,29
 -167 -279 -167 -279 -167 -279 c 257,30,31
 -167 -279 -167 -279 -112 -279 c 0,32,33
 -55 -279 -55 -279 -27 -251 c 256,34,35
 0 -224 0 -224 0 -167 c 0,36,37
 0 103 0 103 0 208 c 0,38,39
 0 308 0 308 0 502 c 1,0,1
EndSplineSet
Validated: 33
Substitution2: "Single Subs wide y-1" y.long
Substitution2: "Single Substitution lookup 26 subtable" glyph335
EndChar

StartChar: w.isol
Encoding: 121 6200 121
Width: 281
VWidth: 2796
GlyphClass: 2
Flags: W
LayerCount: 2
Fore
SplineSet
0 502 m 1,0,1
 55 502 55 502 139 502 c 256,2,3
 224 502 224 502 279 502 c 1,4,5
 279 447 279 447 279 448 c 257,6,7
 279 448 279 448 279 390 c 1,8,9
 224 390 224 390 183 390 c 0,10,11
 139 390 139 390 112 390 c 1,12,13
 112 335 112 335 112 139 c 0,14,15
 112 -55 112 -55 112 -167 c 0,16,17
 112 -224 112 -224 139 -251 c 256,18,19
 166 -278 166 -278 224 -279 c 0,20,21
 279 -279 279 -279 279 -279 c 257,22,23
 279 -279 279 -279 279 -279 c 1,24,25
 336 -279 336 -279 336 -336 c 0,26,27
 336 -391 336 -391 279 -390 c 0,28,29
 224 -390 224 -390 224 -390 c 257,30,31
 224 -390 224 -390 224 -390 c 1,32,33
 112 -390 112 -390 55 -336 c 0,34,35
 0 -279 0 -279 0 -167 c 0,36,37
 0 103 0 103 0 208 c 0,38,39
 0 308 0 308 0 502 c 1,0,1
EndSplineSet
Substitution2: "'fina' Terminal Forms in Mongolian lookup 2 subtable" w.fina
Substitution2: "'medi' Medial Forms in Mongolian lookup 1 subtable" w.medi
Substitution2: "Required Feature in Latin lookup 0 subtable" w.init
EndChar

StartChar: w.medi
Encoding: 122 -1 122
Width: 281
VWidth: 2796
GlyphClass: 2
Flags: W
LayerCount: 2
Fore
SplineSet
0 502 m 1,0,1
 55 502 55 502 139 502 c 256,2,3
 224 502 224 502 279 502 c 1,4,5
 279 447 279 447 279 448 c 257,6,7
 279 448 279 448 279 390 c 1,8,9
 224 390 224 390 183 390 c 0,10,11
 139 390 139 390 112 390 c 1,12,13
 112 335 112 335 112 139 c 0,14,15
 112 -55 112 -55 112 -167 c 0,16,17
 112 -224 112 -224 139 -251 c 256,18,19
 166 -278 166 -278 224 -279 c 0,20,21
 279 -279 279 -279 279 -279 c 257,22,23
 279 -279 279 -279 279 -279 c 1,24,25
 336 -279 336 -279 336 -336 c 0,26,27
 336 -391 336 -391 279 -390 c 0,28,29
 224 -390 224 -390 224 -390 c 257,30,31
 224 -390 224 -390 224 -390 c 1,32,33
 112 -390 112 -390 55 -336 c 0,34,35
 0 -279 0 -279 0 -167 c 0,36,37
 0 103 0 103 0 208 c 0,38,39
 0 308 0 308 0 502 c 1,0,1
EndSplineSet
Substitution2: "Single Substitution lookup 26 subtable" glyph336
EndChar

StartChar: ngs.isol
Encoding: 123 6242 123
Width: 838
VWidth: 2796
GlyphClass: 2
Flags: W
LayerCount: 2
Fore
SplineSet
0 502 m 1,0,1
 0 502 0 502 27 502 c 256,2,3
 54 502 54 502 0 502 c 1,4,5
 55 502 55 502 139 502 c 256,6,7
 224 502 224 502 279 502 c 0,8,9
 336 502 336 502 336 448 c 0,10,11
 336 391 336 391 279 390 c 0,12,13
 224 390 224 390 197 390 c 0,14,15
 167 390 167 390 112 390 c 1,16,17
 112 390 112 390 112 363 c 256,18,19
 112 336 112 336 112 279 c 0,20,21
 112 224 112 224 55 224 c 0,22,23
 0 224 0 224 0 279 c 0,24,25
 0 336 0 336 0 369 c 0,26,27
 0 398 0 398 0 502 c 1,0,1
279 502 m 1,28,29
 309 502 309 502 390 502 c 1,30,31
 390 447 390 447 390 279 c 0,32,33
 390 224 390 224 336 224 c 0,34,35
 279 224 279 224 279 279 c 0,36,37
 279 355 279 355 279 502 c 1,28,29
390 502 m 0,38,39
 614 502 614 502 726 390 c 256,40,41
 838 278 838 278 838 55 c 0,42,43
 838 -166 838 -166 726 -279 c 256,44,45
 614 -391 614 -391 390 -390 c 0,46,47
 335 -390 335 -390 336 -336 c 0,48,49
 336 -279 336 -279 390 -279 c 0,50,51
 559 -279 559 -279 644 -197 c 0,52,53
 726 -112 726 -112 726 55 c 0,54,55
 726 224 726 224 644 309 c 0,56,57
 559 391 559 391 390 390 c 0,58,59
 335 390 335 390 336 448 c 0,60,61
 335 502 335 502 390 502 c 0,38,39
EndSplineSet
Validated: 37
Substitution2: "'fina' Terminal Forms in Mongolian lookup 2 subtable" ngs.fina
Substitution2: "'medi' Medial Forms in Mongolian lookup 1 subtable" ngs.medi
Substitution2: "Required Feature in Latin lookup 0 subtable" ngs.init
EndChar

StartChar: ng.isol
Encoding: 124 6185 124
Width: 838
VWidth: 2796
GlyphClass: 2
Flags: W
LayerCount: 2
Fore
SplineSet
0 502 m 1,0,1
 0 502 0 502 27 502 c 256,2,3
 54 502 54 502 0 502 c 1,4,5
 55 502 55 502 139 502 c 256,6,7
 224 502 224 502 279 502 c 0,8,9
 336 502 336 502 336 448 c 0,10,11
 336 391 336 391 279 390 c 0,12,13
 224 390 224 390 197 390 c 0,14,15
 167 390 167 390 112 390 c 1,16,17
 112 390 112 390 112 363 c 256,18,19
 112 336 112 336 112 279 c 0,20,21
 112 224 112 224 55 224 c 0,22,23
 0 224 0 224 0 279 c 0,24,25
 0 336 0 336 0 369 c 0,26,27
 0 398 0 398 0 502 c 1,0,1
279 502 m 1,28,29
 309 502 309 502 390 502 c 1,30,31
 390 376 390 376 390 0 c 0,32,33
 390 -55 390 -55 336 -55 c 0,34,35
 279 -55 279 -55 279 0 c 0,36,37
 279 166 279 166 279 502 c 1,28,29
390 502 m 0,38,39
 614 502 614 502 726 390 c 256,40,41
 838 278 838 278 838 55 c 0,42,43
 838 -166 838 -166 726 -279 c 256,44,45
 614 -391 614 -391 390 -390 c 0,46,47
 335 -390 335 -390 336 -336 c 0,48,49
 336 -279 336 -279 390 -279 c 0,50,51
 559 -279 559 -279 644 -197 c 0,52,53
 726 -112 726 -112 726 55 c 0,54,55
 726 224 726 224 644 309 c 0,56,57
 559 391 559 391 390 390 c 0,58,59
 335 390 335 390 336 448 c 0,60,61
 335 502 335 502 390 502 c 0,38,39
EndSplineSet
Validated: 37
Substitution2: "'fina' Terminal Forms in Mongolian lookup 2 subtable" ng.fina
Substitution2: "'medi' Medial Forms in Mongolian lookup 1 subtable" ng.medi
Substitution2: "Required Feature in Latin lookup 0 subtable" ng.init
EndChar

StartChar: ng.init
Encoding: 125 -1 125
Width: 831
VWidth: 2790
GlyphClass: 2
Flags: W
LayerCount: 2
Fore
SplineSet
0 502 m 1,0,1
 0 502 0 502 27 502 c 256,2,3
 54 502 54 502 0 502 c 1,4,5
 54 502 54 502 139 502 c 256,6,7
 222 502 222 502 278 502 c 0,8,9
 336 502 336 502 336 449 c 0,10,11
 335 392 335 392 278 390 c 0,12,13
 224 390 224 390 197 390 c 0,14,15
 167 390 167 390 111 390 c 1,16,17
 111 390 111 390 111 364 c 256,18,19
 111 336 111 336 111 278 c 0,20,21
 111 225 111 225 54 225 c 0,22,23
 0 225 0 225 0 278 c 0,24,25
 0 335 0 335 0 369 c 0,26,27
 0 398 0 398 0 502 c 1,0,1
278 502 m 0,28,29
 278 727 278 727 364 810 c 256,30,31
 448 894 448 894 615 894 c 0,32,33
 785 894 785 894 864 782 c 0,34,35
 948 671 948 671 948 502 c 0,36,37
 948 448 948 448 948 449 c 257,38,39
 948 449 948 449 948 449 c 1,40,41
 948 392 948 392 894 390 c 0,42,43
 837 390 837 390 838 449 c 1,44,45
 838 449 838 449 838 449 c 257,46,47
 838 449 838 449 838 502 c 0,48,49
 838 613 838 613 782 700 c 0,50,51
 725 784 725 784 615 782 c 256,52,53
 504 782 504 782 449 728 c 0,54,55
 392 674 392 674 390 502 c 0,56,57
 390 447 390 447 390 278 c 0,58,59
 390 111 390 111 390 0 c 0,60,61
 391 -54 391 -54 336 -54 c 0,62,63
 279 -54 279 -54 278 0 c 256,64,65
 278 54 278 54 278 251 c 256,66,67
 278 448 278 448 278 502 c 0,28,29
EndSplineSet
Validated: 37
Substitution2: "Single Substitution lookup 24 subtable" glyph319
EndChar

StartChar: jh.isol
Encoding: 126 6263 126
Width: 281
VWidth: 2796
GlyphClass: 2
Flags: W
LayerCount: 2
Fore
SplineSet
0 502 m 1,0,1
 55 502 55 502 139 502 c 256,2,3
 224 502 224 502 279 502 c 1,4,5
 279 447 279 447 279 448 c 257,6,7
 279 448 279 448 279 390 c 1,8,9
 224 390 224 390 183 390 c 0,10,11
 139 390 139 390 112 390 c 1,12,13
 112 335 112 335 112 180 c 256,14,15
 112 24 112 24 112 0 c 0,16,17
 112 -55 112 -55 55 -55 c 0,18,19
 0 -55 0 -55 0 0 c 0,20,21
 0 120 0 120 0 227 c 0,22,23
 0 336 0 336 0 390 c 0,24,25
 0 447 0 447 0 448 c 257,26,27
 0 447 0 447 0 502 c 1,0,1
229 721 m 0,28,29
 207 696 207 696 175 683 c 0,30,31
 145 672 145 672 112 672 c 256,32,33
 79 672 79 672 46 683 c 0,34,35
 16 697 16 697 -8 721 c 0,36,37
 -30 743 -30 743 -44 776 c 0,38,39
 -58 806 -58 806 -57 838 c 256,40,41
 -57 871 -57 871 -44 904 c 0,42,43
 -30 934 -30 934 -8 958 c 0,44,45
 17 980 17 980 46 994 c 0,46,47
 79 1008 79 1008 112 1008 c 256,48,49
 145 1008 145 1008 175 994 c 0,50,51
 208 980 208 980 229 958 c 0,52,53
 254 933 254 933 268 904 c 0,54,55
 282 871 282 871 281 838 c 256,56,57
 281 805 281 805 268 776 c 0,58,59
 254 743 254 743 229 721 c 0,28,29
167 838 m 256,60,61
 167 849 167 849 164 860 c 0,62,63
 159 871 159 871 150 879 c 0,64,65
 145 884 145 884 134 890 c 256,66,67
 123 895 123 895 112 896 c 256,68,69
 101 896 101 896 90 890 c 256,70,71
 79 885 79 885 71 879 c 0,72,73
 66 871 66 871 60 860 c 256,74,75
 55 849 55 849 55 838 c 256,76,77
 55 827 55 827 60 816 c 256,78,79
 65 805 65 805 71 800 c 0,80,81
 79 792 79 792 90 786 c 0,82,83
 101 783 101 783 112 784 c 256,84,85
 123 784 123 784 134 786 c 0,86,87
 145 791 145 791 150 800 c 0,88,89
 158 805 158 805 164 816 c 0,90,91
 167 827 167 827 167 838 c 256,60,61
EndSplineSet
Validated: 33
Substitution2: "'fina' Terminal Forms in Mongolian lookup 2 subtable" jh.fina
Substitution2: "'medi' Medial Forms in Mongolian lookup 1 subtable" jh.medi
Substitution2: "Required Feature in Latin lookup 0 subtable" jh.init
EndChar

StartChar: jh.medi
Encoding: 127 -1 127
Width: 281
VWidth: 2796
GlyphClass: 2
Flags: W
LayerCount: 2
Fore
SplineSet
0 502 m 1,0,1
 55 502 55 502 139 502 c 256,2,3
 224 502 224 502 279 502 c 1,4,5
 279 447 279 447 279 448 c 257,6,7
 279 448 279 448 279 390 c 1,8,9
 224 390 224 390 183 390 c 0,10,11
 139 390 139 390 112 390 c 1,12,13
 112 335 112 335 112 180 c 256,14,15
 112 24 112 24 112 0 c 0,16,17
 112 -55 112 -55 55 -55 c 0,18,19
 0 -55 0 -55 0 0 c 0,20,21
 0 120 0 120 0 227 c 0,22,23
 0 336 0 336 0 390 c 0,24,25
 0 447 0 447 0 448 c 257,26,27
 0 447 0 447 0 502 c 1,0,1
229 721 m 0,28,29
 207 696 207 696 175 683 c 0,30,31
 145 672 145 672 112 672 c 256,32,33
 79 672 79 672 46 683 c 0,34,35
 16 697 16 697 -8 721 c 0,36,37
 -30 743 -30 743 -44 776 c 0,38,39
 -58 806 -58 806 -57 838 c 256,40,41
 -57 871 -57 871 -44 904 c 0,42,43
 -30 934 -30 934 -8 958 c 0,44,45
 17 980 17 980 46 994 c 0,46,47
 79 1008 79 1008 112 1008 c 256,48,49
 145 1008 145 1008 175 994 c 0,50,51
 208 980 208 980 229 958 c 0,52,53
 254 933 254 933 268 904 c 0,54,55
 282 871 282 871 281 838 c 256,56,57
 281 805 281 805 268 776 c 0,58,59
 254 743 254 743 229 721 c 0,28,29
167 838 m 256,60,61
 167 849 167 849 164 860 c 0,62,63
 159 871 159 871 150 879 c 0,64,65
 145 884 145 884 134 890 c 256,66,67
 123 895 123 895 112 896 c 256,68,69
 101 896 101 896 90 890 c 256,70,71
 79 885 79 885 71 879 c 0,72,73
 66 871 66 871 60 860 c 256,74,75
 55 849 55 849 55 838 c 256,76,77
 55 827 55 827 60 816 c 256,78,79
 65 805 65 805 71 800 c 0,80,81
 79 792 79 792 90 786 c 0,82,83
 101 783 101 783 112 784 c 256,84,85
 123 784 123 784 134 786 c 0,86,87
 145 791 145 791 150 800 c 0,88,89
 158 805 158 805 164 816 c 0,90,91
 167 827 167 827 167 838 c 256,60,61
EndSplineSet
Validated: 33
Substitution2: "Single Substitution lookup 26 subtable" glyph323
EndChar

StartChar: ch.isol
Encoding: 128 6257 128
Width: 671
VWidth: 2796
GlyphClass: 2
Flags: W
LayerCount: 2
Fore
SplineSet
672 502 m 1,0,1
 727 447 727 447 726 448 c 257,2,3
 726 448 726 448 672 390 c 1,4,5
 462 390 462 390 259 390 c 0,6,7
 54 390 54 390 0 390 c 256,8,9
 -55 390 -55 390 -55 448 c 0,10,11
 -55 503 -55 503 0 502 c 256,12,13
 55 502 55 502 279 502 c 256,14,15
 503 502 503 502 672 502 c 1,0,1
279 55 m 0,16,17
 336 55 336 55 363 85 c 0,18,19
 390 112 390 112 390 167 c 0,20,21
 390 279 390 279 390 344 c 256,22,23
 390 410 390 410 390 448 c 1,24,25
 428 448 428 448 502 448 c 1,26,27
 502 377 502 377 502 167 c 0,28,29
 502 55 502 55 448 0 c 0,30,31
 391 -55 391 -55 279 -55 c 0,32,33
 186 -55 186 -55 0 -55 c 0,34,35
 -55 -55 -55 -55 -55 0 c 256,36,37
 -55 55 -55 55 0 55 c 0,38,39
 85 55 85 55 153 55 c 0,40,41
 224 55 224 55 279 55 c 0,16,17
565 721 m 0,42,43
 543 696 543 696 511 683 c 0,44,45
 481 672 481 672 448 672 c 256,46,47
 415 672 415 672 382 683 c 0,48,49
 352 697 352 697 328 721 c 0,50,51
 306 743 306 743 292 776 c 0,52,53
 278 806 278 806 279 838 c 256,54,55
 279 871 279 871 292 904 c 0,56,57
 306 934 306 934 328 958 c 0,58,59
 353 980 353 980 382 994 c 0,60,61
 415 1008 415 1008 448 1008 c 256,62,63
 481 1008 481 1008 511 994 c 0,64,65
 544 980 544 980 565 958 c 0,66,67
 590 933 590 933 603 904 c 0,68,69
 614 871 614 871 614 838 c 256,70,71
 614 805 614 805 603 776 c 0,72,73
 590 743 590 743 565 721 c 0,42,43
502 838 m 256,74,75
 502 849 502 849 500 860 c 0,76,77
 495 871 495 871 486 879 c 0,78,79
 481 884 481 884 470 890 c 256,80,81
 459 895 459 895 448 896 c 256,82,83
 437 896 437 896 426 890 c 256,84,85
 415 885 415 885 407 879 c 0,86,87
 402 871 402 871 396 860 c 256,88,89
 391 849 391 849 390 838 c 256,90,91
 390 827 390 827 396 816 c 256,92,93
 401 805 401 805 407 800 c 0,94,95
 415 792 415 792 426 786 c 0,96,97
 437 783 437 783 448 784 c 256,98,99
 459 784 459 784 470 786 c 0,100,101
 481 791 481 791 486 800 c 0,102,103
 494 805 494 805 500 816 c 0,104,105
 502 827 502 827 502 838 c 256,74,75
EndSplineSet
Validated: 37
Substitution2: "'fina' Terminal Forms in Mongolian lookup 2 subtable" ch.fina
Substitution2: "'medi' Medial Forms in Mongolian lookup 1 subtable" ch.medi
Substitution2: "Required Feature in Latin lookup 0 subtable" ch.init
EndChar

StartChar: ch.medi
Encoding: 129 -1 129
Width: 671
VWidth: 2796
GlyphClass: 2
Flags: W
LayerCount: 2
Fore
SplineSet
672 502 m 1,0,1
 727 447 727 447 726 448 c 257,2,3
 726 448 726 448 672 390 c 1,4,5
 462 390 462 390 259 390 c 0,6,7
 54 390 54 390 0 390 c 256,8,9
 -55 390 -55 390 -55 448 c 0,10,11
 -55 503 -55 503 0 502 c 256,12,13
 55 502 55 502 279 502 c 256,14,15
 503 502 503 502 672 502 c 1,0,1
279 55 m 0,16,17
 336 55 336 55 363 85 c 0,18,19
 390 112 390 112 390 167 c 0,20,21
 390 279 390 279 390 344 c 256,22,23
 390 410 390 410 390 448 c 1,24,25
 428 448 428 448 502 448 c 1,26,27
 502 377 502 377 502 167 c 0,28,29
 502 55 502 55 448 0 c 0,30,31
 391 -55 391 -55 279 -55 c 0,32,33
 186 -55 186 -55 0 -55 c 0,34,35
 -55 -55 -55 -55 -55 0 c 256,36,37
 -55 55 -55 55 0 55 c 0,38,39
 85 55 85 55 153 55 c 0,40,41
 224 55 224 55 279 55 c 0,16,17
565 721 m 0,42,43
 543 696 543 696 511 683 c 0,44,45
 481 672 481 672 448 672 c 256,46,47
 415 672 415 672 382 683 c 0,48,49
 352 697 352 697 328 721 c 0,50,51
 306 743 306 743 292 776 c 0,52,53
 278 806 278 806 279 838 c 256,54,55
 279 871 279 871 292 904 c 0,56,57
 306 934 306 934 328 958 c 0,58,59
 353 980 353 980 382 994 c 0,60,61
 415 1008 415 1008 448 1008 c 256,62,63
 481 1008 481 1008 511 994 c 0,64,65
 544 980 544 980 565 958 c 0,66,67
 590 933 590 933 603 904 c 0,68,69
 614 871 614 871 614 838 c 256,70,71
 614 805 614 805 603 776 c 0,72,73
 590 743 590 743 565 721 c 0,42,43
502 838 m 256,74,75
 502 849 502 849 500 860 c 0,76,77
 495 871 495 871 486 879 c 0,78,79
 481 884 481 884 470 890 c 256,80,81
 459 895 459 895 448 896 c 256,82,83
 437 896 437 896 426 890 c 256,84,85
 415 885 415 885 407 879 c 0,86,87
 402 871 402 871 396 860 c 256,88,89
 391 849 391 849 390 838 c 256,90,91
 390 827 390 827 396 816 c 256,92,93
 401 805 401 805 407 800 c 0,94,95
 415 792 415 792 426 786 c 0,96,97
 437 783 437 783 448 784 c 256,98,99
 459 784 459 784 470 786 c 0,100,101
 481 791 481 791 486 800 c 0,102,103
 494 805 494 805 500 816 c 0,104,105
 502 827 502 827 502 838 c 256,74,75
EndSplineSet
Validated: 37
EndChar

StartChar: glyph277
Encoding: 130 -1 130
Width: 281
VWidth: 2796
GlyphClass: 2
Flags: W
LayerCount: 2
Fore
SplineSet
0 502 m 1,0,1
 55 502 55 502 139 502 c 256,2,3
 224 502 224 502 279 502 c 1,4,5
 279 486 279 486 279 467 c 256,6,7
 279 448 279 448 279 390 c 1,8,9
 224 390 224 390 186 390 c 256,10,11
 148 390 148 390 112 390 c 1,12,13
 112 390 112 390 112 363 c 256,14,15
 112 336 112 336 112 279 c 0,16,17
 112 224 112 224 55 224 c 0,18,19
 0 224 0 224 0 279 c 0,20,21
 0 336 0 336 0 336 c 257,22,23
 0 336 0 336 0 390 c 0,24,25
 0 447 0 447 0 448 c 257,26,27
 0 447 0 447 0 502 c 1,0,1
EndSplineSet
Validated: 1
EndChar

StartChar: glyph278
Encoding: 131 -1 131
Width: 278
VWidth: 2796
GlyphClass: 2
Flags: W
LayerCount: 2
Fore
SplineSet
0 502 m 1,0,1
 0 502 0 502 0 502 c 257,2,3
 0 502 0 502 0 502 c 1,4,5
 55 502 55 502 139 502 c 256,6,7
 224 502 224 502 279 502 c 1,8,9
 279 475 279 475 279 434 c 0,10,11
 279 390 279 390 279 390 c 1,12,13
 224 390 224 390 180 390 c 256,14,15
 136 390 136 390 112 390 c 1,16,17
 112 390 112 390 112 350 c 0,18,19
 112 306 112 306 112 279 c 0,20,21
 112 224 112 224 55 224 c 0,22,23
 0 224 0 224 0 279 c 0,24,25
 0 336 0 336 0 336 c 257,26,27
 0 336 0 336 0 390 c 0,28,29
 0 447 0 447 0 448 c 257,30,31
 0 447 0 447 0 502 c 1,0,1
-276 1141 m 0,32,33
 -287 1130 -287 1130 -303 1125 c 0,34,35
 -319 1117 -319 1117 -336 1117 c 256,36,37
 -352 1117 -352 1117 -369 1125 c 0,38,39
 -383 1130 -383 1130 -396 1141 c 0,40,41
 -407 1155 -407 1155 -412 1171 c 0,42,43
 -420 1185 -420 1185 -421 1201 c 256,44,45
 -421 1217 -421 1217 -412 1234 c 0,46,47
 -407 1250 -407 1250 -396 1262 c 0,48,49
 -382 1273 -382 1273 -369 1281 c 0,50,51
 -353 1286 -353 1286 -336 1286 c 256,52,53
 -320 1286 -320 1286 -303 1281 c 0,54,55
 -287 1273 -287 1273 -276 1262 c 256,56,57
 -265 1251 -265 1251 -259 1234 c 0,58,59
 -251 1218 -251 1218 -251 1201 c 256,60,61
 -251 1185 -251 1185 -259 1171 c 0,62,63
 -265 1155 -265 1155 -276 1141 c 0,32,33
EndSplineSet
Validated: 5
EndChar

StartChar: glyph279
Encoding: 132 -1 132
Width: 281
VWidth: 2796
GlyphClass: 2
Flags: W
LayerCount: 2
Fore
SplineSet
0 502 m 1,0,1
 55 502 55 502 139 502 c 256,2,3
 224 502 224 502 279 502 c 1,4,5
 279 447 279 447 279 448 c 257,6,7
 279 448 279 448 279 390 c 1,8,9
 224 390 224 390 183 390 c 0,10,11
 139 390 139 390 112 390 c 1,12,13
 112 335 112 335 112 180 c 256,14,15
 112 24 112 24 112 0 c 0,16,17
 112 -55 112 -55 55 -55 c 0,18,19
 0 -55 0 -55 0 0 c 0,20,21
 0 120 0 120 0 227 c 0,22,23
 0 336 0 336 0 390 c 0,24,25
 0 447 0 447 0 448 c 257,26,27
 0 447 0 447 0 502 c 1,0,1
EndSplineSet
Validated: 1
EndChar

StartChar: glyph280
Encoding: 133 -1 133
Width: 614
VWidth: 2796
GlyphClass: 2
Flags: W
LayerCount: 2
Fore
SplineSet
0 502 m 1,0,1
 112 502 112 502 279 502 c 0,2,3
 448 502 448 502 614 502 c 1,4,5
 614 477 614 477 614 442 c 256,6,7
 614 407 614 407 614 390 c 1,8,9
 579 390 579 390 513 390 c 256,10,11
 447 390 447 390 448 390 c 257,12,13
 448 390 448 390 448 363 c 256,14,15
 448 336 448 336 448 336 c 2,16,17
 448 224 448 224 390 167 c 0,18,19
 335 112 335 112 224 112 c 256,20,21
 112 112 112 112 55 167 c 0,22,23
 0 224 0 224 0 336 c 1,24,25
 3 336 3 336 0 399 c 0,26,27
 0 458 0 458 0 502 c 1,0,1
112 336 m 2,28,29
 112 279 112 279 139 251 c 256,30,31
 166 224 166 224 224 224 c 0,32,33
 279 224 279 224 309 251 c 0,34,35
 336 278 336 278 336 336 c 2,36,37
 336 336 336 336 336 363 c 256,38,39
 336 390 336 390 336 390 c 1,40,41
 262 390 262 390 112 390 c 1,42,43
 112 390 112 390 112 363 c 256,44,45
 112 336 112 336 112 336 c 2,28,29
EndSplineSet
Validated: 37
EndChar

StartChar: glyph281
Encoding: 134 -1 134
Width: 447
VWidth: 2796
GlyphClass: 2
Flags: W
LayerCount: 2
Fore
SplineSet
0 502 m 1,0,1
 112 502 112 502 197 502 c 0,2,3
 279 502 279 502 448 502 c 1,4,5
 448 472 448 472 448 461 c 0,6,7
 448 447 448 447 448 390 c 2,8,9
 448 390 448 390 448 363 c 256,10,11
 448 336 448 336 448 336 c 2,12,13
 448 224 448 224 390 167 c 0,14,15
 335 112 335 112 224 112 c 256,16,17
 112 112 112 112 55 167 c 0,18,19
 0 224 0 224 0 336 c 1,20,21
 3 336 3 336 0 399 c 0,22,23
 0 458 0 458 0 502 c 1,0,1
112 336 m 2,24,25
 112 279 112 279 139 251 c 256,26,27
 166 224 166 224 224 224 c 0,28,29
 279 224 279 224 309 251 c 0,30,31
 336 278 336 278 336 336 c 2,32,33
 336 336 336 336 336 363 c 256,34,35
 336 390 336 390 336 390 c 1,36,37
 262 390 262 390 112 390 c 1,38,39
 112 390 112 390 112 363 c 256,40,41
 112 336 112 336 112 336 c 2,24,25
EndSplineSet
Validated: 1
EndChar

StartChar: glyph282
Encoding: 135 -1 135
Width: 611
VWidth: 2796
GlyphClass: 2
Flags: W
LayerCount: 2
Fore
SplineSet
0 502 m 1,0,1
 112 502 112 502 279 502 c 0,2,3
 448 502 448 502 614 502 c 1,4,5
 614 453 614 453 614 423 c 0,6,7
 614 390 614 390 614 390 c 1,8,9
 581 390 581 390 543 390 c 0,10,11
 502 390 502 390 448 390 c 1,12,13
 448 390 448 390 448 390 c 257,14,15
 448 390 448 390 448 390 c 257,16,17
 448 390 448 390 448 363 c 256,18,19
 448 336 448 336 448 336 c 2,20,21
 448 224 448 224 390 167 c 0,22,23
 335 112 335 112 224 112 c 256,24,25
 112 112 112 112 55 167 c 0,26,27
 0 224 0 224 0 336 c 1,28,29
 3 336 3 336 0 399 c 0,30,31
 0 458 0 458 0 502 c 1,0,1
112 336 m 2,32,33
 112 279 112 279 139 251 c 256,34,35
 166 224 166 224 224 224 c 0,36,37
 279 224 279 224 309 251 c 0,38,39
 336 278 336 278 336 336 c 2,40,41
 336 336 336 336 336 363 c 256,42,43
 336 390 336 390 336 390 c 1,44,45
 262 390 262 390 112 390 c 1,46,47
 112 390 112 390 112 363 c 256,48,49
 112 336 112 336 112 336 c 2,32,33
115 1141 m 0,50,51
 104 1130 104 1130 87 1125 c 0,52,53
 71 1117 71 1117 55 1117 c 0,54,55
 41 1117 41 1117 25 1125 c 0,56,57
 9 1130 9 1130 -3 1141 c 0,58,59
 -14 1155 -14 1155 -22 1171 c 0,60,61
 -27 1185 -27 1185 -27 1201 c 256,62,63
 -27 1217 -27 1217 -22 1234 c 0,64,65
 -14 1250 -14 1250 -3 1262 c 256,66,67
 8 1273 8 1273 25 1281 c 0,68,69
 41 1286 41 1286 55 1286 c 0,70,71
 71 1286 71 1286 87 1281 c 0,72,73
 103 1273 103 1273 115 1262 c 256,74,75
 126 1251 126 1251 134 1234 c 0,76,77
 139 1218 139 1218 139 1201 c 256,78,79
 139 1185 139 1185 134 1171 c 0,80,81
 126 1155 126 1155 115 1141 c 0,50,51
EndSplineSet
Validated: 5
EndChar

StartChar: glyph283
Encoding: 136 -1 136
Width: 447
VWidth: 2796
GlyphClass: 2
Flags: W
LayerCount: 2
Fore
SplineSet
0 502 m 1,0,1
 112 502 112 502 197 502 c 0,2,3
 279 502 279 502 448 502 c 1,4,5
 448 447 448 447 448 448 c 257,6,7
 448 448 448 448 448 390 c 1,8,9
 448 390 448 390 448 390 c 257,10,11
 448 390 448 390 448 390 c 257,12,13
 448 390 448 390 448 363 c 256,14,15
 448 336 448 336 448 336 c 2,16,17
 448 224 448 224 390 167 c 0,18,19
 335 112 335 112 224 112 c 256,20,21
 112 112 112 112 55 167 c 0,22,23
 0 224 0 224 0 336 c 1,24,25
 3 336 3 336 0 399 c 0,26,27
 0 458 0 458 0 502 c 1,0,1
112 336 m 2,28,29
 112 279 112 279 139 251 c 256,30,31
 166 224 166 224 224 224 c 0,32,33
 279 224 279 224 309 251 c 0,34,35
 336 278 336 278 336 336 c 2,36,37
 336 336 336 336 336 363 c 256,38,39
 336 390 336 390 336 390 c 1,40,41
 262 390 262 390 112 390 c 1,42,43
 112 390 112 390 112 363 c 256,44,45
 112 336 112 336 112 336 c 2,28,29
115 1141 m 0,46,47
 104 1130 104 1130 87 1125 c 0,48,49
 71 1117 71 1117 55 1117 c 0,50,51
 41 1117 41 1117 25 1125 c 0,52,53
 9 1130 9 1130 -3 1141 c 0,54,55
 -14 1155 -14 1155 -22 1171 c 0,56,57
 -27 1185 -27 1185 -27 1201 c 256,58,59
 -27 1217 -27 1217 -22 1234 c 0,60,61
 -14 1250 -14 1250 -3 1262 c 256,62,63
 8 1273 8 1273 25 1281 c 0,64,65
 41 1286 41 1286 55 1286 c 0,66,67
 71 1286 71 1286 87 1281 c 0,68,69
 103 1273 103 1273 115 1262 c 256,70,71
 126 1251 126 1251 134 1234 c 0,72,73
 139 1218 139 1218 139 1201 c 256,74,75
 139 1185 139 1185 134 1171 c 0,76,77
 126 1155 126 1155 115 1141 c 0,46,47
EndSplineSet
Validated: 1
EndChar

StartChar: glyph284
Encoding: 137 -1 137
Width: 617
VWidth: 2796
GlyphClass: 2
Flags: W
LayerCount: 2
Fore
SplineSet
0 502 m 1,0,1
 112 502 112 502 279 502 c 0,2,3
 448 502 448 502 614 502 c 1,4,5
 614 502 614 502 614 448 c 0,6,7
 614 391 614 391 614 390 c 1,8,9
 559 390 559 390 502 390 c 0,10,11
 447 390 447 390 448 390 c 1,12,13
 448 223 448 223 390 167 c 0,14,15
 335 112 335 112 224 112 c 256,16,17
 112 112 112 112 55 167 c 0,18,19
 0 224 0 224 0 336 c 2,20,21
 0 336 0 336 0 363 c 256,22,23
 0 390 0 390 0 390 c 257,24,25
 0 390 0 390 0 448 c 0,26,27
 0 502 0 502 0 502 c 1,0,1
112 336 m 2,28,29
 112 279 112 279 139 251 c 256,30,31
 166 224 166 224 224 224 c 0,32,33
 279 224 279 224 309 251 c 0,34,35
 336 278 336 278 336 336 c 2,36,37
 336 336 336 336 336 363 c 256,38,39
 336 390 336 390 336 390 c 1,40,41
 279 390 279 390 224 390 c 0,42,43
 167 390 167 390 112 390 c 1,44,45
 112 390 112 390 112 363 c 256,46,47
 112 336 112 336 112 336 c 2,28,29
336 448 m 1,48,49
 363 448 363 448 448 448 c 1,50,51
 448 336 448 336 448 197 c 0,52,53
 448 55 448 55 448 0 c 256,54,55
 448 -55 448 -55 390 -55 c 0,56,57
 335 -55 335 -55 336 0 c 256,58,59
 336 55 336 55 336 197 c 0,60,61
 336 336 336 336 336 448 c 1,48,49
EndSplineSet
Validated: 37
EndChar

StartChar: glyph285
Encoding: 138 -1 138
Width: 895
VWidth: 2796
GlyphClass: 2
Flags: W
LayerCount: 2
Fore
SplineSet
0 502 m 1,0,1
 112 502 112 502 197 502 c 0,2,3
 279 502 279 502 448 502 c 0,4,5
 672 502 672 502 784 390 c 256,6,7
 896 278 896 278 896 55 c 0,8,9
 896 0 896 0 838 0 c 0,10,11
 783 0 783 0 784 55 c 0,12,13
 784 224 784 224 699 309 c 0,14,15
 614 391 614 391 448 390 c 1,16,17
 448 363 448 363 448 350 c 256,18,19
 448 336 448 336 448 336 c 2,20,21
 448 224 448 224 390 167 c 0,22,23
 335 112 335 112 224 112 c 256,24,25
 112 112 112 112 55 167 c 0,26,27
 0 224 0 224 0 336 c 2,28,29
 0 336 0 336 0 363 c 256,30,31
 0 390 0 390 0 390 c 2,32,33
 0 447 0 447 0 448 c 257,34,35
 0 447 0 447 0 502 c 1,0,1
112 336 m 2,36,37
 112 279 112 279 139 251 c 256,38,39
 166 224 166 224 224 224 c 0,40,41
 279 224 279 224 309 251 c 0,42,43
 336 278 336 278 336 336 c 2,44,45
 336 336 336 336 336 363 c 256,46,47
 336 390 336 390 336 390 c 1,48,49
 279 390 279 390 224 390 c 0,50,51
 167 390 167 390 112 390 c 1,52,53
 112 390 112 390 112 363 c 256,54,55
 112 336 112 336 112 336 c 2,36,37
EndSplineSet
Validated: 33
EndChar

StartChar: glyph286
Encoding: 139 -1 139
Width: 335
VWidth: 2796
GlyphClass: 2
Flags: W
LayerCount: 2
Fore
SplineSet
0 502 m 1,0,1
 0 726 0 726 112 838 c 256,2,3
 224 950 224 950 390 950 c 0,4,5
 559 950 559 950 672 838 c 256,6,7
 784 726 784 726 784 502 c 2,8,9
 784 502 784 502 784 475 c 256,10,11
 784 448 784 448 784 448 c 2,12,13
 784 391 784 391 726 390 c 0,14,15
 671 390 671 390 672 448 c 2,16,17
 672 448 672 448 672 461 c 256,18,19
 672 475 672 475 672 502 c 0,20,21
 672 671 672 671 587 754 c 0,22,23
 502 839 502 839 390 838 c 256,24,25
 278 838 278 838 197 754 c 0,26,27
 112 672 112 672 112 502 c 1,28,29
 224 502 224 502 279 502 c 0,30,31
 336 502 336 502 448 502 c 1,32,33
 448 365 448 365 448 352 c 0,34,35
 448 336 448 336 448 336 c 2,36,37
 448 224 448 224 390 167 c 0,38,39
 335 112 335 112 224 112 c 256,40,41
 112 112 112 112 55 167 c 0,42,43
 0 224 0 224 0 336 c 1,44,45
 3 336 3 336 3 421 c 0,46,47
 3 502 3 502 0 502 c 1,0,1
112 336 m 2,48,49
 112 279 112 279 139 251 c 256,50,51
 166 224 166 224 224 224 c 0,52,53
 279 224 279 224 309 251 c 0,54,55
 336 278 336 278 336 336 c 2,56,57
 336 336 336 336 336 363 c 256,58,59
 336 390 336 390 336 390 c 1,60,61
 262 390 262 390 112 390 c 1,62,63
 112 390 112 390 112 363 c 256,64,65
 112 336 112 336 112 336 c 2,48,49
EndSplineSet
Validated: 33
EndChar

StartChar: glyph287
Encoding: 140 -1 140
Width: 335
VWidth: 2796
GlyphClass: 2
Flags: W
LayerCount: 2
Fore
SplineSet
0 502 m 1,0,1
 0 726 0 726 112 838 c 256,2,3
 224 950 224 950 390 950 c 0,4,5
 559 950 559 950 672 838 c 256,6,7
 784 726 784 726 784 502 c 2,8,9
 784 502 784 502 784 475 c 256,10,11
 784 448 784 448 784 448 c 2,12,13
 784 391 784 391 726 390 c 0,14,15
 671 390 671 390 672 448 c 2,16,17
 672 448 672 448 672 461 c 256,18,19
 672 475 672 475 672 502 c 0,20,21
 672 671 672 671 587 754 c 0,22,23
 502 839 502 839 390 838 c 256,24,25
 278 838 278 838 197 754 c 0,26,27
 112 672 112 672 112 502 c 1,28,29
 224 502 224 502 279 502 c 0,30,31
 336 502 336 502 448 502 c 1,32,33
 448 365 448 365 448 352 c 0,34,35
 448 336 448 336 448 336 c 2,36,37
 448 224 448 224 390 167 c 0,38,39
 335 112 335 112 224 112 c 256,40,41
 112 112 112 112 55 167 c 0,42,43
 0 224 0 224 0 336 c 1,44,45
 3 336 3 336 3 421 c 0,46,47
 3 502 3 502 0 502 c 1,0,1
112 336 m 2,48,49
 112 279 112 279 139 251 c 256,50,51
 166 224 166 224 224 224 c 0,52,53
 279 224 279 224 309 251 c 0,54,55
 336 278 336 278 336 336 c 2,56,57
 336 336 336 336 336 363 c 256,58,59
 336 390 336 390 336 390 c 1,60,61
 262 390 262 390 112 390 c 1,62,63
 112 390 112 390 112 363 c 256,64,65
 112 336 112 336 112 336 c 2,48,49
EndSplineSet
Validated: 33
EndChar

StartChar: glyph288
Encoding: 141 -1 141
Width: 335
VWidth: 2796
GlyphClass: 2
Flags: W
LayerCount: 2
Fore
SplineSet
0 502 m 1,0,1
 0 726 0 726 112 838 c 256,2,3
 224 950 224 950 390 950 c 0,4,5
 559 950 559 950 672 838 c 256,6,7
 784 726 784 726 784 502 c 2,8,9
 784 502 784 502 784 475 c 256,10,11
 784 448 784 448 784 448 c 2,12,13
 784 391 784 391 726 390 c 0,14,15
 671 390 671 390 672 448 c 2,16,17
 672 448 672 448 672 461 c 256,18,19
 672 475 672 475 672 502 c 0,20,21
 672 671 672 671 587 754 c 0,22,23
 502 839 502 839 390 838 c 256,24,25
 278 838 278 838 197 754 c 0,26,27
 112 672 112 672 112 502 c 1,28,29
 224 502 224 502 279 502 c 0,30,31
 336 502 336 502 448 502 c 1,32,33
 448 365 448 365 448 352 c 0,34,35
 448 336 448 336 448 336 c 2,36,37
 448 224 448 224 390 167 c 0,38,39
 335 112 335 112 224 112 c 256,40,41
 112 112 112 112 55 167 c 0,42,43
 0 224 0 224 0 336 c 1,44,45
 3 336 3 336 3 421 c 0,46,47
 3 502 3 502 0 502 c 1,0,1
112 336 m 2,48,49
 112 279 112 279 139 251 c 256,50,51
 166 224 166 224 224 224 c 0,52,53
 279 224 279 224 309 251 c 0,54,55
 336 278 336 278 336 336 c 2,56,57
 336 336 336 336 336 363 c 256,58,59
 336 390 336 390 336 390 c 1,60,61
 262 390 262 390 112 390 c 1,62,63
 112 390 112 390 112 363 c 256,64,65
 112 336 112 336 112 336 c 2,48,49
336 896 m 1,66,67
 363 896 363 896 448 896 c 1,68,69
 448 852 448 852 448 726 c 0,70,71
 448 671 448 671 390 672 c 0,72,73
 335 672 335 672 336 726 c 0,74,75
 336 784 336 784 336 896 c 1,66,67
EndSplineSet
Validated: 37
EndChar

StartChar: glyph289
Encoding: 142 -1 142
Width: 335
VWidth: 2796
GlyphClass: 2
Flags: W
LayerCount: 2
Fore
SplineSet
0 502 m 1,0,1
 0 726 0 726 112 838 c 256,2,3
 224 950 224 950 390 950 c 0,4,5
 559 950 559 950 672 838 c 256,6,7
 784 726 784 726 784 502 c 2,8,9
 784 502 784 502 784 475 c 256,10,11
 784 448 784 448 784 448 c 2,12,13
 784 391 784 391 726 390 c 0,14,15
 671 390 671 390 672 448 c 2,16,17
 672 448 672 448 672 461 c 256,18,19
 672 475 672 475 672 502 c 0,20,21
 672 671 672 671 587 754 c 0,22,23
 502 839 502 839 390 838 c 256,24,25
 278 838 278 838 197 754 c 0,26,27
 112 672 112 672 112 502 c 1,28,29
 224 502 224 502 279 502 c 0,30,31
 336 502 336 502 448 502 c 1,32,33
 448 365 448 365 448 352 c 0,34,35
 448 336 448 336 448 336 c 2,36,37
 448 224 448 224 390 167 c 0,38,39
 335 112 335 112 224 112 c 256,40,41
 112 112 112 112 55 167 c 0,42,43
 0 224 0 224 0 336 c 1,44,45
 3 336 3 336 3 421 c 0,46,47
 3 502 3 502 0 502 c 1,0,1
112 336 m 2,48,49
 112 279 112 279 139 251 c 256,50,51
 166 224 166 224 224 224 c 0,52,53
 279 224 279 224 309 251 c 0,54,55
 336 278 336 278 336 336 c 2,56,57
 336 336 336 336 336 363 c 256,58,59
 336 390 336 390 336 390 c 1,60,61
 262 390 262 390 112 390 c 1,62,63
 112 390 112 390 112 363 c 256,64,65
 112 336 112 336 112 336 c 2,48,49
336 896 m 1,66,67
 363 896 363 896 448 896 c 1,68,69
 448 852 448 852 448 726 c 0,70,71
 448 671 448 671 390 672 c 0,72,73
 335 672 335 672 336 726 c 0,74,75
 336 784 336 784 336 896 c 1,66,67
EndSplineSet
Validated: 37
EndChar

